<?xml version="1.0" encoding="UTF-8"?>
<svg version="1.1" xmlns="http://www.w3.org/2000/svg" width="658" height="608">
<path d="M0 0 C217.14 0 434.28 0 658 0 C658 200.64 658 401.28 658 608 C440.86 608 223.72 608 0 608 C0 407.36 0 206.72 0 0 Z " fill="#FDFEFE" transform="translate(0,0)"/>
<path d="M0 0 C0.63631348 0.34788574 1.27262695 0.69577148 1.92822266 1.05419922 C11.58653558 6.37930993 19.79097112 12.66570371 28 20 C28.73734375 20.61617187 29.4746875 21.23234375 30.234375 21.8671875 C53.6087205 41.40814033 71.69311974 72.85183815 76 103 C123.52 103 171.04 103 220 103 C213.29927007 111.93430657 213.29927007 111.93430657 210.0625 115 C206.87848571 118.10006664 203.93619062 121.30902734 201.0390625 124.67578125 C198.45246603 127.62410482 195.79161695 130.49913058 193.125 133.375 C189.51617553 137.26937871 185.92275594 141.17466183 182.375 145.125 C181.68953094 145.86163376 181.00406189 146.59826752 180.29782104 147.35722351 C177.94898425 149.94199895 177.94898425 149.94199895 176.11941528 152.84455872 C173.27015922 156.79290398 170.67419984 160.22060186 165.90279388 161.61123276 C159.6743926 162.56210069 153.39330697 162.26172409 147.1171875 162.07421875 C145.09128055 162.05367483 143.06531854 162.03802976 141.03933716 162.02705383 C135.73439792 161.9852668 130.4328287 161.87741276 125.12921143 161.75531006 C119.70639633 161.64231144 114.28303076 161.59244453 108.859375 161.53710938 C98.23811124 161.41951608 87.61933698 161.23204895 77 161 C76.85449707 162.23951416 76.70899414 163.47902832 76.55908203 164.75610352 C76.06584209 168.95792884 75.08849023 172.89108966 73.875 176.9375 C73.54786011 178.03058472 73.54786011 178.03058472 73.21411133 179.14575195 C65.45849165 204.27805723 52.20196718 225.17396537 34 244 C33.07960938 244.99773437 33.07960938 244.99773437 32.140625 246.015625 C8.7224534 270.82497511 -29.27873744 286.40240488 -62.87426758 288.20825195 C-66.87579428 288.30245523 -70.87276977 288.33416769 -74.875 288.3125 C-75.92982071 288.30976578 -75.92982071 288.30976578 -77.00595093 288.30697632 C-87.32610483 288.26198566 -96.9641651 287.6791034 -107 285 C-108.51089611 284.65265209 -110.02267496 284.3091292 -111.53515625 283.96875 C-147.15683197 275.64978549 -180.92189415 252.76483961 -201 222 C-201.36351562 221.443125 -201.72703125 220.88625 -202.1015625 220.3125 C-206.68115434 213.2094596 -210.69067065 205.88467595 -214.3125 198.25 C-214.62582275 197.5897583 -214.93914551 196.9295166 -215.26196289 196.24926758 C-219.64203431 186.74136475 -222.64570139 177.19901522 -224.6875 166.9375 C-224.89955078 165.92623047 -225.11160156 164.91496094 -225.33007812 163.87304688 C-233.25325509 125.05697803 -224.96165666 84.18467202 -203.65039062 50.89160156 C-197.58064067 41.88332187 -190.5621452 33.78070431 -183 26 C-182.47011475 25.44747559 -181.94022949 24.89495117 -181.39428711 24.32568359 C-134.61607381 -23.66316653 -57.72530853 -32.15932107 0 0 Z " fill="#FCFDFD" transform="translate(301,49)"/>
<path d="M0 0 C0 3.77130628 -1.13659462 5.12222638 -3.18359375 8.26953125 C-4.19740112 9.83960937 -4.19740112 9.83960937 -5.23168945 11.44140625 C-5.96683622 12.56518491 -6.7021089 13.68888121 -7.4375 14.8125 C-8.18188192 15.96051746 -8.92561415 17.10895645 -9.66870117 18.2578125 C-11.1263592 20.5095575 -12.58795341 22.75857417 -14.05175781 25.00634766 C-16.32153895 28.49407401 -18.56912758 31.99524419 -20.8125 35.5 C-23.03283076 38.95198594 -25.25845211 42.40042904 -27.4921875 45.84375 C-33.31087292 54.81498058 -39.07452878 63.81935802 -44.80737305 72.84570312 C-48.34640371 78.41373934 -51.90713035 83.966568 -55.5 89.5 C-60.19210646 96.72845019 -64.82432307 103.9939645 -69.44604492 111.26757812 C-80.39763155 128.49954317 -91.38023368 145.71458432 -102.4921875 162.84375 C-108.31087292 171.81498058 -114.07452878 180.81935802 -119.80737305 189.84570312 C-123.77267675 196.08440427 -127.77099613 202.30030926 -131.79882812 208.4987793 C-136.35940023 215.52854186 -140.84360195 222.6067742 -145.31835938 229.69140625 C-146.16624023 231.02945313 -146.16624023 231.02945313 -147.03125 232.39453125 C-147.53205078 233.18706299 -148.03285156 233.97959473 -148.54882812 234.79614258 C-149.02771484 235.52341553 -149.50660156 236.25068848 -150 237 C-150.3606958 237.74693115 -150.7213916 238.4938623 -151.09301758 239.26342773 C-154.3445606 242.22440911 -158.25677891 241.48716756 -162.48046875 241.390625 C-163.40845779 241.38496521 -164.33644684 241.37930542 -165.29255676 241.37347412 C-168.25806146 241.35107376 -171.2223602 241.30087073 -174.1875 241.25 C-176.19724818 241.22993973 -178.20701529 241.21168813 -180.21679688 241.1953125 C-185.14499629 241.15119696 -190.07229365 241.08214424 -195 241 C-195 245.29 -195 249.58 -195 254 C-157.71 254 -120.42 254 -82 254 C-82 258.29 -82 262.58 -82 267 C-83.07138214 266.96367462 -84.14276428 266.92734924 -85.24661255 266.8899231 C-95.39586016 266.56046105 -105.54176327 266.3494937 -115.69595528 266.25128365 C-120.91619867 266.19706976 -126.12897355 266.10275254 -131.34619141 265.91308594 C-153.1653336 264.06981988 -153.1653336 264.06981988 -173.29382324 270.23571777 C-178.74850231 276.01721144 -181.56381483 282.53659073 -184 290 C-185 291 -185 291 -187.01844788 291.12025452 C-188.3474839 291.1169236 -188.3474839 291.1169236 -189.70336914 291.11352539 C-190.70433121 291.11344986 -191.70529327 291.11337433 -192.73658752 291.11329651 C-193.8251152 291.10813522 -194.91364288 291.10297394 -196.03515625 291.09765625 C-197.14354355 291.0962413 -198.25193085 291.09482635 -199.39390564 291.09336853 C-202.95013069 291.08775033 -206.50629383 291.07519475 -210.0625 291.0625 C-212.46679597 291.05748734 -214.87109292 291.05292403 -217.27539062 291.04882812 C-223.18361777 291.03777499 -229.09179837 291.02049816 -235 291 C-235 294.96 -235 298.92 -235 303 C-185.83 303 -136.66 303 -86 303 C-86 307.62 -86 312.24 -86 317 C-87.42216827 316.96367462 -88.84433655 316.92734924 -90.30960083 316.8899231 C-103.75517964 316.56104057 -117.1989901 316.34832601 -130.64819527 316.25128365 C-137.56240371 316.19846302 -144.47144083 316.10509179 -151.38330078 315.91308594 C-158.0633692 315.72763685 -164.73553773 315.65942783 -171.4186058 315.66051865 C-173.95866721 315.64218795 -176.4987683 315.5855056 -179.03705215 315.48874283 C-190.80822516 314.92598099 -190.80822516 314.92598099 -202 318 C-206.10577051 322.09496965 -208.63030202 326.98626291 -211.28354263 332.09330368 C-215.73131019 340.48954666 -215.73131019 340.48954666 -219.70895386 341.95724487 C-223.91214886 342.53379897 -227.6032342 342.50354822 -231.8046875 342.1484375 C-233.26417266 342.10727217 -234.72396723 342.07601811 -236.18386841 342.05410767 C-239.98362736 341.97101791 -243.76413554 341.75615785 -247.55639648 341.51062012 C-251.44249543 341.28331381 -255.33179296 341.18463833 -259.22265625 341.07421875 C-266.82480625 340.83992758 -274.40723022 340.45418141 -282 340 C-282 344.29 -282 348.58 -282 353 C-221.28 353 -160.56 353 -98 353 C-98 357.62 -98 362.24 -98 367 C-99.67495041 366.96811584 -101.34990082 366.93623169 -103.0756073 366.90338135 C-118.89141315 366.61547389 -134.70483556 366.43256453 -150.523036 366.35490799 C-158.65501567 366.31232173 -166.78339724 366.23271539 -174.91381836 366.06396484 C-182.00591695 365.91686125 -189.0946877 365.84124321 -196.18836766 365.84919715 C-199.94168765 365.85096728 -203.6872492 365.81851394 -207.43886375 365.70020294 C-222.85946144 364.65166337 -222.85946144 364.65166337 -236.56287003 370.05149841 C-240.79854358 374.86933157 -243.72111617 380.18431026 -246.18536854 386.0850029 C-247 388 -247 388 -248 389 C-250.14743549 389.09425595 -252.29801026 389.11742648 -254.44750977 389.11352539 C-255.12065216 389.11367142 -255.79379456 389.11381744 -256.48733521 389.1139679 C-258.72205784 389.11326878 -260.9566981 389.10547652 -263.19140625 389.09765625 C-264.73697362 389.09579206 -266.28254157 389.09436816 -267.82810974 389.09336853 C-271.90357077 389.0895434 -275.97899637 389.07971317 -280.05444336 389.06866455 C-284.21011882 389.05845032 -288.36579999 389.05387089 -292.52148438 389.04882812 C-300.68100768 389.03809089 -308.84049536 389.02049414 -317 389 C-317 393.29 -317 397.58 -317 402 C-248.03 402 -179.06 402 -108 402 C-108 406.62 -108 411.24 -108 416 C-109.95945053 415.98810135 -111.91890106 415.9762027 -113.93772888 415.96394348 C-132.40379935 415.85898209 -150.86923837 415.81115354 -169.33561611 415.82121754 C-178.82948796 415.82492951 -188.32249318 415.80818521 -197.81616211 415.74291992 C-206.09304129 415.68607188 -214.36895375 415.66797618 -222.64599663 415.6959936 C-227.02721914 415.70948156 -231.40649918 415.70385126 -235.78747368 415.65177345 C-239.91624886 415.60330688 -244.04179357 415.60688399 -248.1706028 415.64941406 C-249.68105274 415.65597691 -251.19172289 415.64394626 -252.70183563 415.61136436 C-261.37770182 415.39609786 -261.37770182 415.39609786 -268.82966805 419.40878868 C-271.0984426 422.17603596 -273.04452808 425.0075517 -275 428 C-276.17149896 429.26432208 -277.37273085 430.50312586 -278.625 431.6875 C-281.08431009 434.04504553 -283.26960606 436.49710148 -285.4375 439.125 C-291.02672464 445.57699086 -297.64968737 449.26813773 -306.203125 450.25390625 C-317.14440786 450.80097039 -328.44711677 446.76369054 -337 440 C-343.38190207 433.79965987 -348.90996449 426.91767928 -354.48046875 419.9921875 C-358.72020525 414.95708958 -363.27331053 410.21609819 -367.78515625 405.42578125 C-371.29205837 401.70076082 -374.67187449 397.8851052 -378 394 C-380.10133583 391.56004975 -382.20622682 389.12318889 -384.3125 386.6875 C-384.87541748 386.03644287 -385.43833496 385.38538574 -386.01831055 384.71459961 C-390.21452999 379.87466597 -394.49190693 375.12034411 -398.81640625 370.39453125 C-402.94255041 365.86979713 -406.93800272 361.23362851 -410.93359375 356.59375 C-416.12782308 350.57028153 -421.33689483 344.57838868 -426.75 338.75 C-430.07613047 335.15586478 -433.25428891 331.51167187 -436.3125 327.6875 C-440.57044743 322.38991011 -445.17601983 317.48562844 -449.8425293 312.55200195 C-454.02068907 308.11175402 -457.91259386 303.51870247 -461.71875 298.75390625 C-465.37706246 294.33762151 -469.31153631 290.18379115 -473.22265625 285.9921875 C-475.9364646 283.08162125 -478.55739756 280.09988008 -481.16015625 277.08984375 C-483.56670539 274.35629006 -486.03321846 271.67903563 -488.5 269 C-493.68163615 263.36555734 -498.74667719 257.65021748 -503.70703125 251.8203125 C-509.51920128 244.99675277 -515.42144115 238.29127522 -521.5078125 231.7109375 C-524.7380101 228.19721158 -527.88439696 224.61537554 -531 221 C-530.34 220.67 -529.68 220.34 -529 220 C-527.20117188 220.70239258 -527.20117188 220.70239258 -524.96875 221.89453125 C-524.11361816 222.34594482 -523.25848633 222.7973584 -522.37744141 223.26245117 C-521.42788574 223.77396729 -520.47833008 224.2854834 -519.5 224.8125 C-518.49243652 225.34657471 -517.48487305 225.88064941 -516.44677734 226.4309082 C-513.58494084 227.94908018 -510.72691076 229.47418207 -507.86999512 231.00158691 C-502.51066076 233.86300057 -497.14071106 236.7045245 -491.77246094 239.54916382 C-490.3350522 240.31111219 -488.89787946 241.07350593 -487.4609375 241.83633423 C-475.81990542 248.01590596 -464.12001125 254.07321662 -452.38949585 260.08087158 C-443.77896563 264.49382674 -435.24072118 269.0023003 -426.81518555 273.76123047 C-421.92911704 276.51306613 -416.9651016 279.0710508 -411.93579102 281.55004883 C-404.54125672 285.20336959 -397.20622932 288.97174554 -389.875 292.75 C-389.20069946 293.09742249 -388.52639893 293.44484497 -387.83166504 293.80279541 C-378.2805644 298.72967856 -368.80783696 303.77984072 -359.39672852 308.97021484 C-353.45288885 312.23901594 -347.45404738 315.35795896 -341.35546875 318.328125 C-337.4777567 320.22245615 -333.77160292 322.29707976 -330.0625 324.5 C-325.11414764 327.27407632 -321.60854795 327.55166045 -316 327 C-315.79528076 326.46858398 -315.59056152 325.93716797 -315.37963867 325.38964844 C-313.42375735 322.0019 -310.70193361 319.47737369 -307.92578125 316.765625 C-307.3237236 316.16876892 -306.72166595 315.57191284 -306.10136414 314.95697021 C-304.17644085 313.04982435 -302.24498653 311.14947934 -300.3125 309.25 C-297.78436908 306.75861981 -295.25943764 304.26406303 -292.73828125 301.765625 C-292.12783966 301.16077271 -291.51739807 300.55592041 -290.88845825 299.93273926 C-287.40516992 296.46126397 -284.11040573 292.90774685 -280.93041992 289.15527344 C-275.29801883 282.86681551 -269.10623556 277.06176369 -263.10644531 271.12695312 C-254.20661166 262.33956339 -254.20661166 262.33956339 -245.83398438 253.05664062 C-241.38344238 248.06577724 -236.50703812 243.44729063 -231.75 238.75 C-229.59602515 236.62272732 -227.4454723 234.49207743 -225.296875 232.359375 C-224.80934753 231.88014587 -224.32182007 231.40091675 -223.81951904 230.90716553 C-221.80942161 228.91157569 -219.96716745 226.95506433 -218.29394531 224.66503906 C-217.65344238 223.84084473 -217.65344238 223.84084473 -217 223 C-216.34 223 -215.68 223 -215 223 C-214.73108444 222.40544006 -214.46216888 221.81088013 -214.18510437 221.19830322 C-212.99616157 218.99287993 -211.81418854 217.57778904 -210.03833008 215.82714844 C-209.44043167 215.23262878 -208.84253326 214.63810913 -208.22651672 214.02557373 C-207.58071152 213.39322815 -206.93490631 212.76088257 -206.26953125 212.109375 C-205.60088547 211.44593079 -204.93223969 210.78248657 -204.24333191 210.09893799 C-202.10441918 207.97781594 -199.9589638 205.86347832 -197.8125 203.75 C-195.68471241 201.65000293 -193.55846171 199.54850868 -191.43522644 197.44390869 C-190.11572591 196.13647456 -188.79356395 194.83171857 -187.46821594 193.5302124 C-183.68704742 189.78928525 -180.14016167 185.91708479 -176.66508484 181.89117432 C-174.2542581 179.15299936 -171.69441212 176.58775681 -169.09375 174.03125 C-168.56535522 173.50664185 -168.03696045 172.98203369 -167.49255371 172.44152832 C-165.27380416 170.23883885 -163.04901227 168.04229163 -160.82470703 165.84521484 C-153.46379775 158.64067071 -153.46379775 158.64067071 -146.53125 151.03125 C-140.86910022 144.38738438 -134.45586116 138.40358569 -128.25195312 132.27246094 C-120.68436543 124.87777944 -120.68436543 124.87777944 -113.5625 117.0625 C-107.54869187 109.99701607 -100.69743734 103.64656257 -94.10644531 97.12695312 C-86.09644282 89.31911578 -86.09644282 89.31911578 -78.5625 81.0625 C-72.21260032 73.5826683 -64.92792499 66.87836252 -57.9609375 59.98144531 C-48.63938642 50.80101635 -48.63938642 50.80101635 -39.875 41.09765625 C-34.44644566 35.02446108 -28.46954791 29.4248386 -22.67919922 23.69970703 C-13.71395991 14.86727772 -13.71395991 14.86727772 -5.29467773 5.51953125 C-3.63427516 3.5707578 -1.84612721 1.77228212 0 0 Z " fill="#28C0D0" transform="translate(637,90)"/>
<path d="M0 0 C0.63631348 0.34788574 1.27262695 0.69577148 1.92822266 1.05419922 C11.58653558 6.37930993 19.79097112 12.66570371 28 20 C28.73734375 20.61617187 29.4746875 21.23234375 30.234375 21.8671875 C53.6087205 41.40814033 71.69311974 72.85183815 76 103 C123.52 103 171.04 103 220 103 C213.29927007 111.93430657 213.29927007 111.93430657 210.0625 115 C206.87848571 118.10006664 203.93619062 121.30902734 201.0390625 124.67578125 C198.45246603 127.62410482 195.79161695 130.49913058 193.125 133.375 C189.51617553 137.26937871 185.92275594 141.17466183 182.375 145.125 C181.68953094 145.86163376 181.00406189 146.59826752 180.29782104 147.35722351 C177.94898425 149.94199895 177.94898425 149.94199895 176.11941528 152.84455872 C173.27015922 156.79290398 170.67419984 160.22060186 165.90279388 161.61123276 C159.6743926 162.56210069 153.39330697 162.26172409 147.1171875 162.07421875 C145.09128055 162.05367483 143.06531854 162.03802976 141.03933716 162.02705383 C135.73439792 161.9852668 130.4328287 161.87741276 125.12921143 161.75531006 C119.70639633 161.64231144 114.28303076 161.59244453 108.859375 161.53710938 C98.23811124 161.41951608 87.61933698 161.23204895 77 161 C76.85449707 162.23951416 76.70899414 163.47902832 76.55908203 164.75610352 C76.06584209 168.95792884 75.08849023 172.89108966 73.875 176.9375 C73.54786011 178.03058472 73.54786011 178.03058472 73.21411133 179.14575195 C65.45849165 204.27805723 52.20196718 225.17396537 34 244 C33.07960938 244.99773437 33.07960938 244.99773437 32.140625 246.015625 C8.7224534 270.82497511 -29.27873744 286.40240488 -62.87426758 288.20825195 C-66.87579428 288.30245523 -70.87276977 288.33416769 -74.875 288.3125 C-75.92982071 288.30976578 -75.92982071 288.30976578 -77.00595093 288.30697632 C-87.32610483 288.26198566 -96.9641651 287.6791034 -107 285 C-108.51089611 284.65265209 -110.02267496 284.3091292 -111.53515625 283.96875 C-147.15683197 275.64978549 -180.92189415 252.76483961 -201 222 C-201.36351562 221.443125 -201.72703125 220.88625 -202.1015625 220.3125 C-206.68115434 213.2094596 -210.69067065 205.88467595 -214.3125 198.25 C-214.62582275 197.5897583 -214.93914551 196.9295166 -215.26196289 196.24926758 C-219.64203431 186.74136475 -222.64570139 177.19901522 -224.6875 166.9375 C-224.89955078 165.92623047 -225.11160156 164.91496094 -225.33007812 163.87304688 C-233.25325509 125.05697803 -224.96165666 84.18467202 -203.65039062 50.89160156 C-197.58064067 41.88332187 -190.5621452 33.78070431 -183 26 C-182.47011475 25.44747559 -181.94022949 24.89495117 -181.39428711 24.32568359 C-134.61607381 -23.66316653 -57.72530853 -32.15932107 0 0 Z M-112 14 C-113.02383789 14.33692871 -113.02383789 14.33692871 -114.06835938 14.68066406 C-128.2958167 19.50507827 -141.75022274 27.04900857 -153 37 C-153.85207031 37.74378906 -154.70414063 38.48757812 -155.58203125 39.25390625 C-158.08495553 41.47163976 -160.54539091 43.72906914 -163 46 C-163.59296875 46.515625 -164.1859375 47.03125 -164.796875 47.5625 C-175.71317843 57.54312028 -183.01279067 71.6789894 -189 85 C-189.48210937 86.05316406 -189.96421875 87.10632813 -190.4609375 88.19140625 C-201.83013339 115.16740742 -201.93060083 149.55197502 -191.25 176.75 C-190.19358422 179.18503837 -189.1172756 181.59404856 -188 184 C-187.70609375 184.65452148 -187.4121875 185.30904297 -187.109375 185.98339844 C-182.56389556 196.04219774 -177.12101676 204.57920327 -170 213 C-169.24589844 213.89460937 -168.49179688 214.78921875 -167.71484375 215.7109375 C-150.43709727 235.51787791 -129.10050241 247.93564952 -104 255 C-102.78699219 255.34160156 -101.57398438 255.68320312 -100.32421875 256.03515625 C-80.92290519 260.51558849 -59.04613344 259.70335111 -40 254 C-39.28489258 253.79101074 -38.56978516 253.58202148 -37.83300781 253.36669922 C-6.69569636 244.00868238 20.51395429 222.73887915 36 194 C41.81166372 182.98907385 46.49539783 172.25048939 49 160 C49.25946411 158.8394812 49.25946411 158.8394812 49.52416992 157.65551758 C51.17529014 149.68629765 51.44338065 141.80676139 51.4375 133.6875 C51.4375705 132.98579681 51.43764099 132.28409363 51.43771362 131.56112671 C51.34383891 107.13187894 44.65814623 82.89809102 30 63 C29.44828125 62.24074219 28.8965625 61.48148438 28.328125 60.69921875 C11.51969787 38.37793593 -9.18897592 23.20251859 -35.5625 14.1875 C-36.40047119 13.8972998 -37.23844238 13.60709961 -38.10180664 13.30810547 C-50.01388441 9.40684533 -62.0278378 8.5584002 -74.5 8.5625 C-75.19632538 8.5614325 -75.89265076 8.56036499 -76.6100769 8.55926514 C-88.93343752 8.58638234 -100.28511159 10.05839545 -112 14 Z " fill="#055697" transform="translate(301,49)"/>
<path d="M0 0 C3.39527308 1.59795638 5.29341918 3.19812676 7.75 6.0625 C11.9469144 10.84423034 16.25480856 15.50109263 20.625 20.125 C22.02085406 21.60414711 23.41668717 23.08331398 24.8125 24.5625 C25.50988281 25.30113281 26.20726562 26.03976562 26.92578125 26.80078125 C30.16561181 30.23585583 33.3959864 33.6797597 36.625 37.125 C37.23400146 37.77452637 37.84300293 38.42405273 38.47045898 39.09326172 C41.6219024 42.45608499 44.76875848 45.82310219 47.91015625 49.1953125 C48.54421387 49.87577637 49.17827148 50.55624023 49.83154297 51.25732422 C51.03307956 52.54737179 52.23396864 53.83802287 53.43408203 55.12939453 C53.97532715 55.71060059 54.51657227 56.29180664 55.07421875 56.890625 C55.54432373 57.39625977 56.01442871 57.90189453 56.4987793 58.42285156 C58.0537148 60.11583087 58.0537148 60.11583087 60.21533203 61.85449219 C62 64 62 64 62.08276367 66.49609375 C61.88400635 67.46675781 61.68524902 68.43742187 61.48046875 69.4375 C61.26052246 70.59507812 61.04057617 71.75265625 60.81396484 72.9453125 C60.61719147 73.91259277 60.61719147 73.91259277 60.41644287 74.89941406 C59.8039215 77.98904258 59.28263418 81.09307018 58.75076294 84.19743347 C57.95845914 88.80190335 57.13298492 93.40048371 56.3125 98 C56.13936279 98.97335297 55.96622559 99.94670593 55.7878418 100.94955444 C52.33853494 120.32776509 48.71551619 139.6712233 45 159 C45.5612709 158.97330734 46.12254181 158.94661469 46.70082092 158.91911316 C64.48840132 158.09426821 82.28106742 157.57560061 100.08673668 157.39985847 C104.20227273 157.35832284 108.31550803 157.29667424 112.42993164 157.19067383 C116.49202781 157.08659323 120.55205366 157.0323246 124.61540413 157.01228905 C126.1397295 156.99650272 127.66399071 156.96360547 129.18752861 156.91213417 C140.89719785 156.53397604 140.89719785 156.53397604 146.09646606 160.15878296 C148.62199933 162.65563747 150.82832677 165.19403162 153 168 C154.13894548 169.29774419 155.2832986 170.59080534 156.4375 171.875 C156.98277344 172.51179687 157.52804687 173.14859375 158.08984375 173.8046875 C160.50833385 176.58422008 163.0028069 179.291451 165.5 182 C168.53911004 185.30007211 171.56156625 188.60949951 174.5 192 C177.52704522 195.48991864 180.62942906 198.90638662 183.75 202.3125 C184.45866211 203.0869043 184.45866211 203.0869043 185.18164062 203.87695312 C187.02122573 205.879706 188.85255543 207.86043174 190.828125 209.73046875 C192 211 192 211 192 213 C264.6 213 337.2 213 412 213 C412 217.95 412 222.9 412 228 C359.86234024 228.114092 307.72469635 228.20256337 255.58693619 228.25532665 C249.42994619 228.26158009 243.27295643 228.26805171 237.1159668 228.2746582 C235.89023416 228.27596976 234.66450153 228.27728131 233.40162548 228.2786326 C213.56136636 228.30038212 193.72117977 228.3398012 173.88096366 228.38576398 C153.51921197 228.43254115 133.15749823 228.46029808 112.79569501 228.47044247 C100.23393659 228.47729898 87.67238318 228.49894552 75.11068787 228.53958233 C66.49368044 228.56603619 57.8767788 228.57399497 49.25973371 228.56750689 C44.29000371 228.56430815 39.32063166 228.56917071 34.3509655 228.59602737 C29.79497136 228.62046795 25.23957382 228.62151789 20.68355145 228.60449447 C19.04132703 228.60239242 17.39906444 228.60864329 15.75691441 228.62441591 C2.65943939 228.74283062 -8.79113972 226.58354623 -19.125 217.90234375 C-24.53364439 212.4148233 -27.14161972 206.82291535 -27.16577148 199.1262207 C-27.10821446 192.30356307 -26.35179998 185.72069227 -25.34765625 178.98046875 C-25.17240921 177.75262665 -24.99716217 176.52478455 -24.81660461 175.25973511 C-24.43792062 172.61503248 -24.05607014 169.97104189 -23.668396 167.32766724 C-23.04877225 163.10245067 -22.44167889 158.87548915 -21.83642578 154.64819336 C-21.09506514 149.47549016 -20.35088895 144.30320817 -19.60311127 139.13142872 C-18.26138546 129.84851103 -16.94541054 120.5621615 -15.64453125 111.2734375 C-15.54980404 110.59722855 -15.45507683 109.92101959 -15.3574791 109.22431946 C-14.97785781 106.51393142 -14.59839013 103.80352195 -14.21916389 101.09307861 C-10.92511117 77.55007702 -7.58967373 54.01303553 -4.20654297 30.48266602 C-2.74833972 20.32870053 -1.32737869 10.17198486 0 0 Z " fill="#055697" transform="translate(111,338)"/>
<path d="M0 0 C2.58297781 2.18991597 4.48415844 3.96831688 6 7 C6.08500081 9.21506363 6.10420381 11.43274252 6.09423828 13.64941406 C6.09145137 15.0655312 6.08878152 16.48164857 6.08621216 17.89776611 C6.08316196 18.64990639 6.08011177 19.40204666 6.07696915 20.17697906 C6.06563656 24.15839884 6.08612626 28.13970375 6.1015625 32.12109375 C6.11984682 37.18852552 6.12857016 42.2553489 6.09960938 47.32275391 C6.07704533 51.41687263 6.08853331 55.50966734 6.12261581 59.6036911 C6.12937783 61.16173669 6.12372447 62.71988883 6.10525894 64.27783966 C5.73959242 72.66772447 5.73959242 72.66772447 8.50848389 80.31799316 C11.40483632 82.93148862 13.1299906 83.94673412 17.0625 84.1875 C20.63905852 82.74165719 23.49842387 80.93410494 26 78 C26.87259844 74.69282894 26.87259844 74.69282894 26.70947266 71.01000977 C26.71367722 70.32641388 26.71788177 69.64281799 26.72221375 68.93850708 C26.72989672 66.6885624 26.69638518 64.44109914 26.6640625 62.19140625 C26.66515697 60.62108326 26.66946839 59.05075952 26.67684937 57.48045349 C26.6902451 53.35114647 26.67144721 49.22271073 26.64239502 45.09350586 C26.59700183 38.4887172 26.5814613 31.88440079 26.60194016 25.27949333 C26.60156842 22.97805538 26.57584367 20.67785235 26.54824829 18.37660217 C26.54756306 16.95752982 26.54786716 15.53845654 26.54931641 14.11938477 C26.54010162 12.88648209 26.53088684 11.65357941 26.52139282 10.38331604 C27.09762162 6.30990425 28.43611891 4.18214106 31 1 C34.55859074 -1.37239383 35.80196739 -1.44189817 40 -1 C42.56521381 0.07168933 44.84344674 1.15159913 47.25 2.5 C47.90750244 2.8616626 48.56500488 3.2233252 49.24243164 3.59594727 C63.75860144 11.79070245 74.65813789 22.97441368 80 39 C80.63922564 46.45776892 80.6744737 53.98595254 80.80750179 61.46686745 C80.86925805 64.88250768 80.95766618 68.2927112 81.11108398 71.70556641 C82.07702357 93.7305452 82.07702357 93.7305452 78.66305542 99.10449219 C74.98983376 102.73833016 70.82684252 104.36138427 66 106 C64.21856252 106.89588447 62.44497036 107.80796687 60.6875 108.75 C37.18998998 118.82036144 7.3979428 121.34376599 -17 113 C-18.10085937 112.66097656 -19.20171875 112.32195312 -20.3359375 111.97265625 C-29.1737367 108.9660926 -40.28271653 103.71728347 -47 97 C-47.11473999 95.2124235 -47.15964263 93.42032143 -47.17700195 91.62915039 C-47.18983719 90.48027847 -47.20267242 89.33140656 -47.21589661 88.14772034 C-47.22328354 86.89369919 -47.23067047 85.63967804 -47.23828125 84.34765625 C-47.246353 83.06322128 -47.25442474 81.77878632 -47.26274109 80.45542908 C-47.27779325 77.72573985 -47.28761522 74.99607683 -47.29516602 72.26635742 C-47.30615737 68.79308932 -47.34045935 65.32047498 -47.38033772 61.84743595 C-47.41302757 58.51420431 -47.41730472 55.18103568 -47.42578125 51.84765625 C-47.44328934 50.61185318 -47.46079742 49.37605011 -47.47883606 48.10279846 C-47.4488688 36.04404416 -43.92089924 27.94447469 -36 19 C-35.34128906 18.2471875 -34.68257812 17.494375 -34.00390625 16.71875 C-26.29157072 8.45452257 -11.96977112 -3.54659885 0 0 Z " fill="#055697" transform="translate(210,173)"/>
<path d="M0 0 C7.11311659 5.80395403 11.78350286 12.47550858 14.6875 21.1875 C15.57398762 35.4875626 14.64121893 46.65816125 4.953125 57.9609375 C-2.75509647 65.5362586 -12.61426143 69.23416531 -23.3125 69.5625 C-34.53483614 69.20372966 -42.99688591 65.19139923 -51.1328125 57.45703125 C-58.887758 48.94217903 -61.83417442 38.93125606 -61.625 27.53125 C-60.7151714 17.79608397 -56.11580763 8.44633331 -48.796875 1.95703125 C-34.22770237 -9.2140243 -15.47763029 -10.8722337 0 0 Z " fill="#055697" transform="translate(249.3125,86.8125)"/>
<path d="M0 0 C68.97 0 137.94 0 209 0 C209 4.62 209 9.24 209 14 C157.19 14 105.38 14 52 14 C52.33 12.68 52.66 11.36 53 10 C54.02253655 10.16173675 55.04507311 10.32347349 56.09859562 10.49011135 C59.59518428 10.94709317 62.9013105 11.1371336 66.42247009 11.15821838 C68.29222504 11.17290161 68.29222504 11.17290161 70.19975281 11.18788147 C71.56277428 11.19378403 72.92579615 11.19959458 74.28881836 11.20532227 C75.73811108 11.21491248 77.18740108 11.22492321 78.63668823 11.23532104 C82.55555268 11.2622524 86.47442902 11.28332533 90.39333415 11.30332303 C94.49463085 11.32525557 98.59589136 11.35260856 102.69715881 11.37937927 C110.45654429 11.4292082 118.21594995 11.47418321 125.97537476 11.51740164 C134.81215221 11.56685799 143.64889335 11.62174487 152.48563564 11.67708123 C170.65705667 11.79075075 188.82851202 11.89762227 207 12 C207 8.7 207 5.4 207 2 C105.03 2.495 105.03 2.495 1 3 C0.67 2.01 0.34 1.02 0 0 Z " fill="#58C3D3" transform="translate(320,492)"/>
<path d="M0 0 C60.72 0 121.44 0 184 0 C184 4.62 184 9.24 184 14 C182.32282898 13.97033646 180.64565796 13.94067291 178.91766357 13.91011047 C163.08679285 13.64259866 147.25810539 13.47465327 131.42515182 13.40672016 C123.28548634 13.3692658 115.14904861 13.29660385 107.01074219 13.1394043 C99.91245844 13.00238495 92.81719726 12.93310544 85.71754384 12.94328564 C81.96067497 12.94635521 78.21078317 12.91680882 74.45540619 12.805933 C59.15151003 11.7428158 59.15151003 11.7428158 45.52394104 16.96468735 C41.11018508 22.01605688 38.24533362 27.71005329 36 34 C35.67 33.01 35.34 32.02 35 31 C35.9609375 29.1328125 35.9609375 29.1328125 37.375 27.125 C39.40386254 24.07889613 40.65145212 21.71784407 41 18 C41.99 17.67 42.98 17.34 44 17 C44.495 15.515 44.495 15.515 45 14 C45.66 14 46.32 14 47 14 C47 13.34 47 12.68 47 12 C91.55 12 136.1 12 182 12 C182 8.7 182 5.4 182 2 C121.94 2 61.88 2 0 2 C0 1.34 0 0.68 0 0 Z " fill="#5EC1CE" transform="translate(355,443)"/>
<path d="M0 0 C0.495 0.99 0.495 0.99 1 2 C0.34 3.98 -0.32 5.96 -1 8 C-15.19 8 -29.38 8 -44 8 C-43.67 11.3 -43.34 14.6 -43 18 C11.945 17.505 11.945 17.505 68 17 C69.18681726 20.56045177 69.09689832 23.43808337 69.0625 27.1875 C69.05347656 28.45980469 69.04445313 29.73210937 69.03515625 31.04296875 C69.02355469 32.01878906 69.01195312 32.99460937 69 34 C63.85309863 34.86126505 58.89865996 35.11286605 53.67797852 35.02172852 C52.87716354 35.01212097 52.07634857 35.00251343 51.25126648 34.99261475 C48.62705017 34.95986118 46.00301292 34.91944033 43.37890625 34.87890625 C41.5504569 34.85458197 39.72200108 34.83073959 37.89353943 34.80735779 C33.09803864 34.74474643 28.30265343 34.67561564 23.50726318 34.60510254 C18.60710888 34.53421092 13.70687309 34.4695189 8.80664062 34.40429688 C-0.79566248 34.27558064 -10.39785485 34.13997324 -20 34 C-20 34.66 -20 35.32 -20 36 C-20.66 36 -21.32 36 -22 36 C-21.67 35.01 -21.34 34.02 -21 33 C8.04 33 37.08 33 67 33 C67 28.71 67 24.42 67 20 C29.71 20 -7.58 20 -46 20 C-46 15.71 -46 11.42 -46 7 C-44.74864258 7.00112793 -43.49728516 7.00225586 -42.20800781 7.00341797 C-37.56334124 6.9997458 -32.9197148 6.95694717 -28.27539062 6.90234375 C-26.26569314 6.88417993 -24.25587067 6.87661594 -22.24609375 6.87988281 C-19.35578655 6.88273885 -16.4680731 6.8474371 -13.578125 6.8046875 C-12.68007141 6.81378143 -11.78201782 6.82287537 -10.85675049 6.83224487 C-6.28447906 6.84864153 -6.28447906 6.84864153 -2.5189209 4.61090088 C-1.24075136 2.79951194 -1.24075136 2.79951194 0 0 Z " fill="#CDF5F8" transform="translate(488,324)"/>
<path d="M0 0 C37.29 0 74.58 0 113 0 C113 4.29 113 8.58 113 13 C111.91529419 12.98588074 110.83058838 12.97176147 109.7130127 12.95721436 C99.4728949 12.83178791 89.23407965 12.76981907 78.99317169 12.76940536 C73.72831894 12.76716843 68.4655258 12.74285793 63.20117188 12.66748047 C58.11696606 12.59550481 53.03564445 12.58232476 47.95103455 12.60929108 C46.01493546 12.60934673 44.07871544 12.58848787 42.14308167 12.5460434 C32.27631197 11.91235796 32.27631197 11.91235796 23.37362671 15.24421692 C20.4553797 18.43771402 18.62722259 21.99158492 17 26 C16.67 24.68 16.34 23.36 16 22 C16.99 21.67 17.98 21.34 19 21 C19 20.01 19 19.02 19 18 C19.66 18 20.32 18 21 18 C21 16.68 21 15.36 21 14 C21.66 14 22.32 14 23 14 C22.67 13.01 22.34 12.02 22 11 C26.76110823 10.05637245 31.37302934 9.86314517 36.20849609 9.88647461 C37.00916504 9.88632858 37.80983398 9.88618256 38.63476562 9.8860321 C41.26435109 9.8867252 43.8938645 9.89448924 46.5234375 9.90234375 C48.35332195 9.90421007 50.18320691 9.90563296 52.01309204 9.90663147 C56.81676628 9.91043977 61.62041003 9.9202556 66.42407227 9.93133545 C71.33088773 9.94158589 76.23770815 9.94613686 81.14453125 9.95117188 C90.76303419 9.96187944 100.38151455 9.97893553 110 10 C110.33 7.03 110.66 4.06 111 1 C74.37 1 37.74 1 0 1 C0 0.67 0 0.34 0 0 Z " fill="#4FB7C6" transform="translate(442,344)"/>
<path d="M0 0 C0 3.77130628 -1.13659462 5.12222638 -3.18359375 8.26953125 C-4.19848877 9.84142212 -4.19848877 9.84142212 -5.23388672 11.44506836 C-5.96824307 12.56766426 -6.70278405 13.69013941 -7.4375 14.8125 C-8.17525899 15.94955104 -8.91240044 17.08700299 -9.64892578 18.22485352 C-11.10025572 20.46543451 -12.55521723 22.70350828 -14.01220703 24.94042969 C-15.68650688 27.5174778 -17.34766038 30.1016845 -18.99609375 32.6953125 C-19.40867432 33.34395264 -19.82125488 33.99259277 -20.24633789 34.66088867 C-20.61879639 35.24717041 -20.99125488 35.83345215 -21.375 36.4375 C-24.75420875 41.75420875 -24.75420875 41.75420875 -27 44 C-27.33 43.01 -27.66 42.02 -28 41 C-30.50447516 39.78130071 -30.50447516 39.78130071 -33 39 C-33.68835938 39.77537109 -33.68835938 39.77537109 -34.390625 40.56640625 C-35.00421875 41.22511719 -35.6178125 41.88382813 -36.25 42.5625 C-36.85328125 43.22378906 -37.4565625 43.88507813 -38.078125 44.56640625 C-38.71234375 45.03949219 -39.3465625 45.51257813 -40 46 C-42.12011719 45.58959961 -42.12011719 45.58959961 -44 45 C-43.60211777 44.60433838 -43.20423553 44.20867676 -42.79429626 43.80102539 C-38.621565 39.65056486 -34.45247496 35.49647169 -30.28540039 31.34033203 C-28.73358112 29.79351499 -27.18086219 28.24759993 -25.62719727 26.70263672 C-23.3831559 24.47084213 -21.14246196 22.23573155 -18.90234375 20 C-18.21663803 19.31945557 -17.53093231 18.63891113 -16.82444763 17.93774414 C-12.88046844 13.99421619 -9.12299293 9.94651459 -5.49147034 5.71289062 C-3.75029735 3.71322707 -1.91245668 1.83595842 0 0 Z " fill="#32BECA" transform="translate(637,90)"/>
<path d="M0 0 C0.33 0 0.66 0 1 0 C1.3125 2.1875 1.3125 2.1875 1 5 C-1.56120426 8.04575642 -3.20519658 9.73506553 -7 11 C-7.33 11.66 -7.66 12.32 -8 13 C-8 12.34 -8 11.68 -8 11 C-23.18 11 -38.36 11 -54 11 C-54 13.97 -54 16.94 -54 20 C-6.48 19.67 41.04 19.34 90 19 C90 19.66 90 20.32 90 21 C42.15 21 -5.7 21 -55 21 C-55 17.04 -55 13.08 -55 9 C-52.76730347 9.01740234 -52.76730347 9.01740234 -50.48950195 9.03515625 C-44.96336418 9.06770366 -39.43843774 9.04784696 -33.91235352 9.01220703 C-31.52140874 9.00409939 -29.13037187 9.01017753 -26.73950195 9.03076172 C-23.30036675 9.05790339 -19.86478962 9.03391976 -16.42578125 9 C-15.35789871 9.0194165 -14.29001617 9.03883301 -13.18977356 9.05883789 C-7.63477704 9.08777965 -7.63477704 9.08777965 -3.21737671 6.15234375 C-1.9775225 4.14642166 -0.98461454 2.13805275 0 0 Z " fill="#E5FEFE" transform="translate(457,372)"/>
<path d="M0 0 C3.84416793 1.47302797 7.49799412 3.19111034 11.17578125 5.0390625 C12.33271484 5.61914062 13.48964844 6.19921875 14.68164062 6.796875 C15.89194917 7.40620614 17.10223535 8.01558169 18.3125 8.625 C19.54222476 9.24237268 20.77204156 9.85956205 22.00195312 10.4765625 C25.00221215 11.98257487 28.00152027 13.49044899 31 15 C31 15.66 31 16.32 31 17 C30.360625 17.28875 29.72125 17.5775 29.0625 17.875 C26.84793921 18.82823451 26.84793921 18.82823451 26 21 C26.33 21.99 26.66 22.98 27 24 C27 25.32 27 26.64 27 28 C28.4540625 29.2065625 28.4540625 29.2065625 29.9375 30.4375 C33 33 33 33 33.875 35.8125 C33.91625 36.534375 33.9575 37.25625 34 38 C30.45580438 35.32954705 27.72120866 32.62217832 25 29.125 C21.30065227 24.50390843 17.42423251 20.1294791 13.375 15.8125 C0 1.54389913 0 1.54389913 0 0 Z " fill="#28BECE" transform="translate(106,310)"/>
<path d="M0 0 C0.99 0.66 1.98 1.32 3 2 C2.67 2.66 2.34 3.32 2 4 C1.91499919 6.21506363 1.89579619 8.43274252 1.90576172 10.64941406 C1.90854863 12.0655312 1.91121848 13.48164857 1.91378784 14.89776611 C1.91683804 15.64990639 1.91988823 16.40204666 1.92303085 17.17697906 C1.93436344 21.15839884 1.91387374 25.13970375 1.8984375 29.12109375 C1.88015318 34.18852552 1.87142984 39.2553489 1.90039062 44.32275391 C1.92295467 48.41687263 1.91146669 52.50966734 1.87738419 56.6036911 C1.87062217 58.16173669 1.87627553 59.71988883 1.89474106 61.27783966 C2.02936215 73.42093602 2.02936215 73.42093602 -0.49530029 77.29382324 C-3.99824285 80.43653535 -7.22527412 81.76708654 -12 82 C-12.33 81.34 -12.66 80.68 -13 80 C-9.04 79.01 -9.04 79.01 -5 78 C-5 77.34 -5 76.68 -5 76 C-3.02 75.505 -3.02 75.505 -1 75 C-1.00222061 74.10464035 -1.00444122 73.2092807 -1.00672913 72.28678894 C-1.02675306 63.85537396 -1.0419849 55.42396696 -1.05181217 46.99253368 C-1.05703427 42.65769119 -1.06411976 38.32286831 -1.07543945 33.98803711 C-1.08629217 29.80593485 -1.09228192 25.62385148 -1.09487724 21.44173622 C-1.09672718 19.84491999 -1.10033955 18.24810482 -1.10573006 16.65129662 C-1.1129721 14.41749194 -1.1139896 12.18376567 -1.11352539 9.94995117 C-1.115746 8.67754074 -1.11796661 7.40513031 -1.12025452 6.09416199 C-1 3 -1 3 0 0 Z " fill="#EAFDFF" transform="translate(236,176)"/>
<path d="M0 0 C2.56541025 0.02613056 5.13089063 0.04605016 7.69639587 0.06002808 C13.74360106 0.10790217 19.78652137 0.21804249 25.83201355 0.35892093 C32.71912811 0.51589623 39.60642209 0.5924982 46.4948827 0.66265702 C60.65351279 0.80864778 74.80898167 1.05457947 88.96484375 1.3671875 C88.96484375 1.6971875 88.96484375 2.0271875 88.96484375 2.3671875 C51.34484375 2.3671875 13.72484375 2.3671875 -25.03515625 2.3671875 C-25.36515625 4.3471875 -25.69515625 6.3271875 -26.03515625 8.3671875 C-28.34765625 10.3671875 -28.34765625 10.3671875 -31.03515625 12.3671875 C-32.42871389 14.32570094 -33.77798172 16.31845863 -35.03515625 18.3671875 C-35.03515625 12.36503383 -32.09414998 7.04277432 -28.0108223 2.75978851 C-20.67670768 -2.40985818 -8.4696008 -0.25286135 0 0 Z " fill="#DAFDFE" transform="translate(461.03515625,405.6328125)"/>
<path d="M0 0 C47.19 0 94.38 0 143 0 C140.525 2.475 140.525 2.475 138 5 C138 3.68 138 2.36 138 1 C92.46 1 46.92 1 0 1 C0 0.67 0 0.34 0 0 Z " fill="#0F5286" transform="translate(377,153)"/>
<path d="M0 0 C0.33 0 0.66 0 1 0 C1 3.96 1 7.92 1 12 C48.025 12.495 48.025 12.495 96 13 C96 13.33 96 13.66 96 14 C86.91377969 14.13251259 77.82753308 14.26301195 68.74125004 14.39115143 C64.51913633 14.45075265 60.29703355 14.51096987 56.07495117 14.57275391 C36.71538486 14.85559027 17.36223839 15.09085741 -2 15 C-1.85816304 13.24967156 -1.71136571 11.49974466 -1.5625 9.75 C-1.48128906 8.77546875 -1.40007812 7.8009375 -1.31640625 6.796875 C-1.04925416 4.43538247 -0.64628032 2.28098935 0 0 Z " fill="#DFF2F8" transform="translate(158,482)"/>
<path d="M0 0 C0.99 0.99 0.99 0.99 2 2 C0.625 3.5 0.625 3.5 -1 5 C-1.66 5 -2.32 5 -3 5 C-3.2475 5.5775 -3.495 6.155 -3.75 6.75 C-5.28699531 9.51659156 -6.46826564 11.05198554 -9 13 C-11.99538311 13.40275372 -14.62788604 13.56432718 -17.62402344 13.54589844 C-18.49267532 13.55623611 -19.36132721 13.56657379 -20.25630188 13.57722473 C-23.12418119 13.60669526 -25.99135605 13.6081528 -28.859375 13.609375 C-30.84907379 13.62435378 -32.83876013 13.64108028 -34.82843018 13.65948486 C-40.06285162 13.70320449 -45.29710532 13.72316774 -50.53167725 13.73822021 C-55.87408383 13.75777462 -61.21630884 13.79974652 -66.55859375 13.83984375 C-77.03900655 13.91519588 -87.51937881 13.9654571 -98 14 C-99.32 16.64 -100.64 19.28 -102 22 C-103.27351308 19.45297384 -102.80191925 18.5717055 -102.0625 15.875 C-101.86785156 15.15054688 -101.67320312 14.42609375 -101.47265625 13.6796875 C-101.31667969 13.12539062 -101.16070312 12.57109375 -101 12 C-99.88215118 12.01189865 -98.76430237 12.0237973 -97.61257935 12.03605652 C-87.0493079 12.14127078 -76.48715077 12.18816711 -65.92334175 12.17878246 C-60.49282336 12.17581049 -55.06396286 12.19298488 -49.63378906 12.25708008 C-44.38758811 12.31824796 -39.14378185 12.32534581 -33.89733505 12.29583168 C-31.90152437 12.29393623 -29.90559641 12.31113376 -27.91012955 12.34822655 C-16.49845827 12.96104962 -16.49845827 12.96104962 -6.48529053 8.46450806 C-3.94122863 5.89428088 -1.89727586 3.0819229 0 0 Z " fill="#E4FDFE" transform="translate(479,198)"/>
<path d="M0 0 C0.33 0 0.66 0 1 0 C1 3.63 1 7.26 1 11 C-27.71 11 -56.42 11 -86 11 C-86.66 12.65 -87.32 14.3 -88 16 C-89.00041576 17.63021117 -90.04239953 19.23566888 -91.125 20.8125 C-91.66382813 21.60269531 -92.20265625 22.39289063 -92.7578125 23.20703125 C-93.16773438 23.79871094 -93.57765625 24.39039063 -94 25 C-94.33 23.68 -94.66 22.36 -95 21 C-94.01 20.67 -93.02 20.34 -92 20 C-92 19.01 -92 18.02 -92 17 C-91.34 17 -90.68 17 -90 17 C-90 15.68 -90 14.36 -90 13 C-89.34 13 -88.68 13 -88 13 C-88.33 12.01 -88.66 11.02 -89 10 C-84.23889177 9.05637245 -79.62697066 8.86314517 -74.79150391 8.88647461 C-73.99083496 8.88632858 -73.19016602 8.88618256 -72.36523438 8.8860321 C-69.73564891 8.8867252 -67.1061355 8.89448924 -64.4765625 8.90234375 C-62.64667805 8.90421007 -60.81679309 8.90563296 -58.98690796 8.90663147 C-54.18323372 8.91043977 -49.37958997 8.9202556 -44.57592773 8.93133545 C-39.66911227 8.94158589 -34.76229185 8.94613686 -29.85546875 8.95117188 C-20.23696581 8.96187944 -10.61848545 8.97893553 -1 9 C-0.67 6.03 -0.34 3.06 0 0 Z " fill="#39B7CB" transform="translate(553,345)"/>
<path d="M0 0 C-1.54016694 0.4839655 -3.08222194 0.96192387 -4.625 1.4375 C-5.48351562 1.70433594 -6.34203125 1.97117187 -7.2265625 2.24609375 C-12.64343747 3.71856821 -17.76890128 4.12783751 -23.375 4.1328125 C-24.40633057 4.13424759 -24.40633057 4.13424759 -25.45849609 4.13571167 C-26.90397229 4.13638847 -28.34945161 4.13456929 -29.79492188 4.13037109 C-31.99355976 4.12501569 -34.19199339 4.13033309 -36.390625 4.13671875 C-37.80208378 4.13605788 -39.21354243 4.13477653 -40.625 4.1328125 C-41.89601562 4.13168457 -43.16703125 4.13055664 -44.4765625 4.12939453 C-47.74441747 4.009386 -50.79366365 3.62091937 -54 3 C-54 2.34 -54 1.68 -54 1 C-52.15438477 1.01571045 -52.15438477 1.01571045 -50.27148438 1.03173828 C-45.67939191 1.06810871 -41.08731203 1.09096225 -36.49511719 1.10986328 C-34.51267349 1.11988215 -32.53024441 1.133501 -30.54785156 1.15087891 C-27.68811416 1.17530882 -24.82857321 1.1865245 -21.96875 1.1953125 C-21.09134155 1.20563507 -20.21393311 1.21595764 -19.30993652 1.22659302 C-15.21742942 1.22732876 -11.58458801 1.01221526 -7.62695312 -0.07470703 C-4.16325401 -0.95835133 -3.20299209 -1.00756337 0 0 Z " fill="#326D9C" transform="translate(258,286)"/>
<path d="M0 0 C0.99 0.33 1.98 0.66 3 1 C1.85573734 2.813492 0.70954608 4.62576725 -0.4375 6.4375 C-1.39462891 7.95150391 -1.39462891 7.95150391 -2.37109375 9.49609375 C-4 12 -4 12 -5 13 C-8.10251201 13.08874135 -11.1826812 13.11518455 -14.28515625 13.09765625 C-15.21597519 13.0962413 -16.14679413 13.09482635 -17.1058197 13.09336853 C-20.09141191 13.08775172 -23.07693029 13.0751964 -26.0625 13.0625 C-28.08137913 13.05748716 -30.10025943 13.05292388 -32.11914062 13.04882812 C-37.07945572 13.03777683 -42.03971532 13.02050095 -47 13 C-47 12.34 -47 11.68 -47 11 C-33.14 11 -19.28 11 -5 11 C-5 10.01 -5 9.02 -5 8 C-4.34 8 -3.68 8 -3 8 C-3 7.01 -3 6.02 -3 5 C-2.34 5 -1.68 5 -1 5 C-0.67 3.35 -0.34 1.7 0 0 Z " fill="#55C0CA" transform="translate(489,318)"/>
<path d="M0 0 C1.29111191 0.0001133 1.29111191 0.0001133 2.60830688 0.00022888 C3.53855682 0.00539017 4.46880676 0.01055145 5.42724609 0.01586914 C6.37884613 0.01728409 7.33044617 0.01869904 8.31088257 0.02015686 C11.35751456 0.02576527 14.40407372 0.0383192 17.45068359 0.05102539 C19.51318253 0.05603931 21.57568262 0.0606024 23.63818359 0.06469727 C28.70071176 0.07573744 33.76318532 0.09300772 38.82568359 0.11352539 C34.85996369 2.30848184 32.06415314 2.26640318 27.50927734 2.09790039 C26.01941987 2.05816448 24.52950634 2.02048931 23.03955078 1.98461914 C22.25946655 1.96383301 21.47938232 1.94304688 20.67565918 1.92163086 C3.52004442 1.50843081 -11.61218391 3.33060541 -28.17431641 8.11352539 C-28.17431641 5.11352539 -28.17431641 5.11352539 -27.17431641 3.30102539 C-24.62339436 1.78641543 -23.80264707 2.2183299 -20.98681641 2.92602539 C-19.09962891 3.51383789 -19.09962891 3.51383789 -17.17431641 4.11352539 C-16.84431641 3.45352539 -16.51431641 2.79352539 -16.17431641 2.11352539 C-13.95947266 1.73461914 -13.95947266 1.73461914 -11.23681641 1.55102539 C-7.24604541 1.26966168 -3.96959242 -0.011607 0 0 Z " fill="#226294" transform="translate(211.17431640625,56.886474609375)"/>
<path d="M0 0 C2.475 0.495 2.475 0.495 5 1 C5 1.66 5 2.32 5 3 C8.68157771 4.49564094 12.3921569 5.87968263 16.1328125 7.21875 C18 8 18 8 21 10 C23.22485741 10.27478373 23.22485741 10.27478373 25.66796875 10.1953125 C26.56064453 10.18886719 27.45332031 10.18242188 28.37304688 10.17578125 C29.76620117 10.15064453 29.76620117 10.15064453 31.1875 10.125 C32.12787109 10.11597656 33.06824219 10.10695313 34.03710938 10.09765625 C36.35832968 10.07409056 38.67903644 10.04119116 41 10 C41 9.34 41 8.68 41 8 C43.31 7.34 45.62 6.68 48 6 C44.03478752 10.99961573 38.77213805 12.47992117 32.6484375 13.32421875 C21.71934254 13.84041379 10.63476091 9.568023 2 3 C1.34 2.01 0.68 1.02 0 0 Z " fill="#54C3CB" transform="translate(298,527)"/>
<path d="M0 0 C0.66 0 1.32 0 2 0 C1.67 1.32 1.34 2.64 1 4 C0.01 4 -0.98 4 -2 4 C-2.92526485 7.95072759 -3.15188853 11.66468694 -3.20532227 15.71801758 C-3.21522186 16.37223694 -3.22512146 17.0264563 -3.23532104 17.70050049 C-3.26673914 19.84847478 -3.29161492 21.99647113 -3.31640625 24.14453125 C-3.33699282 25.63954725 -3.35798973 27.13455765 -3.37937927 28.62956238 C-3.43442415 32.55365448 -3.48391053 36.47779758 -3.53222656 40.40197754 C-3.58257044 44.41060901 -3.63818907 48.41916694 -3.69335938 52.42773438 C-3.80072569 60.28509397 -3.90221793 68.14251531 -4 76 C-4.33 76 -4.66 76 -5 76 C-5.09280748 67.10721205 -5.16381914 58.21459161 -5.20724869 49.32142448 C-5.22809606 45.19164765 -5.2563609 41.06220291 -5.30175781 36.93261719 C-5.34531833 32.94498571 -5.36915855 28.95767304 -5.37950897 24.96982193 C-5.38688213 23.4507966 -5.40128042 21.9317881 -5.42292023 20.41289902 C-5.45209175 18.27993239 -5.45595054 16.14827173 -5.45410156 14.01513672 C-5.46298401 12.8026828 -5.47186646 11.59022888 -5.48101807 10.34103394 C-4.86449899 6.05884309 -3.06458472 3.06458472 0 0 Z " fill="#2B618A" transform="translate(242,173)"/>
<path d="M0 0 C0 3.60117934 -0.87727927 4.69935429 -2.84375 7.66796875 C-3.43027344 8.56064453 -4.01679687 9.45332031 -4.62109375 10.37304688 C-5.24113281 11.30181641 -5.86117187 12.23058594 -6.5 13.1875 C-7.12003906 14.12787109 -7.74007812 15.06824219 -8.37890625 16.03710938 C-9.91321536 18.3621778 -11.45376075 20.68285546 -13 23 C-13.33 21.68 -13.66 20.36 -14 19 C-15.32 19.33 -16.64 19.66 -18 20 C-6.10169492 5.96610169 -6.10169492 5.96610169 0 0 Z " fill="#3EBBC4" transform="translate(637,90)"/>
<path d="M0 0 C0.99 0.495 0.99 0.495 2 1 C0.52435311 4.61048202 -1.11204513 7.349618 -4 10 C-8.90622261 11.29005261 -13.77345658 11.05033804 -18.8046875 10.87890625 C-20.25338781 10.86210351 -21.70213953 10.84930018 -23.15090942 10.84031677 C-26.94990191 10.80607864 -30.74575835 10.71779842 -34.54351807 10.61798096 C-38.42441377 10.52562948 -42.30582038 10.48474941 -46.1875 10.43945312 C-53.79309093 10.34315488 -61.39610482 10.18972214 -69 10 C-69 9.67 -69 9.34 -69 9 C-47.88 9 -26.76 9 -5 9 C-4.34 6.69 -3.68 4.38 -3 2 C-2.01 1.34 -1.02 0.68 0 0 Z " fill="#41B5C0" transform="translate(425,420)"/>
<path d="M0 0 C0.33 0.99 0.66 1.98 1 3 C-1.49609391 5.50502448 -3.99964492 7.99965476 -6.53515625 10.46484375 C-11.920841 15.59198783 -11.920841 15.59198783 -16.375 21.5 C-18.12669093 24.19490912 -19.18484997 24.68626332 -22 26 C-23.26804566 28.0335948 -23.26804566 28.0335948 -24 30 C-25.32 29.67 -26.64 29.34 -28 29 C-27.34926514 28.35450195 -26.69853027 27.70900391 -26.02807617 27.04394531 C-23.60514299 24.63809789 -21.18451052 22.22998209 -18.76538086 19.8203125 C-17.71973904 18.77968613 -16.67319971 17.73996076 -15.62573242 16.70117188 C-14.11658231 15.20420968 -12.61073502 13.70399132 -11.10546875 12.203125 C-10.19949951 11.30239258 -9.29353027 10.40166016 -8.36010742 9.47363281 C-6.00455477 7.11363485 -6.00455477 7.11363485 -4.3059082 4.67480469 C-3.8749585 4.12211914 -3.44400879 3.56943359 -3 3 C-2.34 3 -1.68 3 -1 3 C-0.67 2.01 -0.34 1.02 0 0 Z " fill="#4BBEC7" transform="translate(423,310)"/>
<path d="M0 0 C0.33 0 0.66 0 1 0 C0.67 7.59 0.34 15.18 0 23 C-0.66 23 -1.32 23 -2 23 C-2.06058594 24.21816406 -2.12117188 25.43632812 -2.18359375 26.69140625 C-2.26806403 28.31511277 -2.35270872 29.93881022 -2.4375 31.5625 C-2.47681641 32.36236328 -2.51613281 33.16222656 -2.55664062 33.98632812 C-2.80748156 38.71371506 -3.25321814 43.32476901 -4 48 C-4.66 48 -5.32 48 -6 48 C-5.24823724 37.88187238 -3.81990299 27.85873132 -2.4375 17.8125 C-2.20094792 16.08010869 -1.96461806 14.34768702 -1.72851562 12.61523438 C-1.15490399 8.40980202 -0.57829025 4.20479144 0 0 Z " fill="#2D6895" transform="translate(105,381)"/>
<path d="M0 0 C6.15234375 -0.09765625 6.15234375 -0.09765625 8 0 C8.33 0.33 8.66 0.66 9 1 C18.54665881 2.25745061 28.204149 2.1242189 37.8125 2.0625 C39.19856606 2.05746684 40.58463393 2.0529072 41.97070312 2.04882812 C45.31384975 2.03717953 48.65690011 2.02082429 52 2 C52 2.33 52 2.66 52 3 C45.535538 4.2387696 39.14243057 4.18604933 32.58959961 4.18530273 C30.46772579 4.18746914 28.34639009 4.20560098 26.22460938 4.22460938 C17.78224759 4.26021972 9.21142791 4.17563398 1 2 C0.67 1.34 0.34 0.68 0 0 Z " fill="#2F6691" transform="translate(196,333)"/>
<path d="M0 0 C0 4.0333534 -1.60879918 5.83517538 -4 9 C-4.66 9 -5.32 9 -6 9 C-5.67 9.99 -5.34 10.98 -5 12 C-7.64738916 13.4606285 -8.89448334 14 -12 14 C-12 15.32 -12 16.64 -12 18 C-14.31 18.66 -16.62 19.32 -19 20 C-13.17371096 12.84198775 -6.5617015 6.47408234 0 0 Z " fill="#34BDC7" transform="translate(449,284)"/>
<path d="M0 0 C0 3.10551666 -0.5393715 4.35261084 -2 7 C-2.66 7 -3.32 7 -4 7 C-4.061875 7.556875 -4.12375 8.11375 -4.1875 8.6875 C-5.98398463 13.80057164 -10.51420918 16.40296321 -15 19 C-16.75149165 20.58245275 -16.75149165 20.58245275 -18 22 C-18.66 21.67 -19.32 21.34 -20 21 C-18.82244141 19.83984375 -18.82244141 19.83984375 -17.62109375 18.65625 C-11.85322406 12.94713308 -6.24756889 7.19858461 -1 1 C-0.67 0.67 -0.34 0.34 0 0 Z " fill="#42BEC7" transform="translate(394,340)"/>
<path d="M0 0 C0.495 0.99 0.495 0.99 1 2 C0.34 3.98 -0.32 5.96 -1 8 C-15.19 8 -29.38 8 -44 8 C-44.33 9.32 -44.66 10.64 -45 12 C-45 10.35 -45 8.7 -45 7 C-43.16840332 7.00169189 -43.16840332 7.00169189 -41.29980469 7.00341797 C-36.76694326 6.99974539 -32.23514735 6.95694318 -27.70263672 6.90234375 C-25.7414435 6.88418155 -23.78012225 6.87661566 -21.81884766 6.87988281 C-18.99801538 6.88273935 -16.17983945 6.84743323 -13.359375 6.8046875 C-12.04510529 6.8183284 -12.04510529 6.8183284 -10.70428467 6.83224487 C-8.31749717 6.77532732 -6.29071719 6.67593875 -4 6 C-1.35074736 3.13455167 -1.35074736 3.13455167 0 0 Z " fill="#DCFDFE" transform="translate(488,324)"/>
<path d="M0 0 C0 3.69418201 -1.28179295 5.77836178 -3 9 C-3.66 9 -4.32 9 -5 9 C-5 9.66 -5 10.32 -5 11 C-5.99 11 -6.98 11 -8 11 C-8.33 11.99 -8.66 12.98 -9 14 C-10.3243115 14.68441309 -11.65892758 15.34904149 -13 16 C-14.73442288 17.70377665 -14.73442288 17.70377665 -16.25 19.625 C-17.03117187 20.57246094 -17.03117187 20.57246094 -17.828125 21.5390625 C-18.21484375 22.02117187 -18.6015625 22.50328125 -19 23 C-19.66 22.67 -20.32 22.34 -21 22 C-18.62670743 19.45673448 -16.25105333 16.91568624 -13.875 14.375 C-13.20984375 13.66214844 -12.5446875 12.94929688 -11.859375 12.21484375 C-7.97739207 8.06645023 -4.04256015 3.99218557 0 0 Z " fill="#49BEC7" transform="translate(471,261)"/>
<path d="M0 0 C1.485 0.99 1.485 0.99 3 2 C2.67 2.66 2.34 3.32 2 4 C1.84504237 6.24974161 1.74989072 8.50371536 1.68359375 10.7578125 C1.66281265 11.42086395 1.64203156 12.08391541 1.62062073 12.76705933 C1.55520769 14.88626694 1.49627895 17.005599 1.4375 19.125 C1.39430691 20.56121081 1.35069236 21.99740902 1.30664062 23.43359375 C1.19953501 26.95559594 1.09824425 30.47773825 1 34 C0.67 34 0.34 34 0 34 C-1.15571658 27.57935231 -1.14847768 21.26114454 -1.125 14.75 C-1.12886719 13.66203125 -1.13273438 12.5740625 -1.13671875 11.453125 C-1.13542969 10.4115625 -1.13414062 9.37 -1.1328125 8.296875 C-1.13168457 7.35166992 -1.13055664 6.40646484 -1.12939453 5.43261719 C-1 3 -1 3 0 0 Z " fill="#D2EBF9" transform="translate(236,176)"/>
<path d="M0 0 C-0.99 0.66 -1.98 1.32 -3 2 C-2.67 2.66 -2.34 3.32 -2 4 C-4.76264289 4.59732819 -7.16032769 5 -10 5 C-11.15048828 5.49113281 -11.15048828 5.49113281 -12.32421875 5.9921875 C-15.34446806 7.12974125 -17.5997733 7.2024151 -20.8125 7.125 C-22.27623047 7.09792969 -22.27623047 7.09792969 -23.76953125 7.0703125 C-24.50558594 7.04710937 -25.24164063 7.02390625 -26 7 C-26 6.67 -26 6.34 -26 6 C-24.84242188 5.66226562 -23.68484375 5.32453125 -22.4921875 4.9765625 C-20.95310788 4.52610017 -19.41404633 4.07557606 -17.875 3.625 C-17.11445313 3.40328125 -16.35390625 3.1815625 -15.5703125 2.953125 C-14.82265625 2.73398437 -14.075 2.51484375 -13.3046875 2.2890625 C-12.56959961 2.07411133 -11.83451172 1.85916016 -11.07714844 1.63769531 C-9.24339636 1.07472394 -7.43518026 0.42998446 -5.6328125 -0.2265625 C-3 -1 -3 -1 0 0 Z " fill="#206094" transform="translate(279,298)"/>
<path d="M0 0 C0.33 0 0.66 0 1 0 C1.03758423 1.38505737 1.03758423 1.38505737 1.07592773 2.7980957 C1.17109045 6.22546416 1.27032214 9.65266461 1.37231445 13.07983398 C1.4156133 14.56286015 1.45729199 16.04593454 1.49731445 17.52905273 C1.55513958 19.66144339 1.61879832 21.79359242 1.68359375 23.92578125 C1.72025146 25.20880127 1.75690918 26.49182129 1.79467773 27.8137207 C1.86561234 31.02111551 1.86561234 31.02111551 3 34 C1.68 33.34 0.36 32.68 -1 32 C-1.02929981 28.16668301 -1.04689897 24.33339529 -1.0625 20.5 C-1.07087891 19.42234375 -1.07925781 18.3446875 -1.08789062 17.234375 C-1.10571885 11.38671618 -0.89105963 5.78136329 0 0 Z " fill="#0F548A" transform="translate(214,218)"/>
<path d="M0 0 C0.66 0.33 1.32 0.66 2 1 C-0.23874862 4.52585792 -2.48084784 8.04955451 -4.72607422 11.57128906 C-5.48936893 12.76959364 -6.25174564 13.96848348 -7.01318359 15.16796875 C-8.10793985 16.89217417 -9.20598237 18.61424649 -10.3046875 20.3359375 C-10.96452637 21.37282715 -11.62436523 22.4097168 -12.30419922 23.47802734 C-14 26 -14 26 -16 28 C-15.34 25.03 -14.68 22.06 -14 19 C-13.01 19 -12.02 19 -11 19 C-11.33 17.68 -11.66 16.36 -12 15 C-11.01 15 -10.02 15 -9 15 C-9 14.01 -9 13.02 -9 12 C-8.34 12 -7.68 12 -7 12 C-7 11.01 -7 10.02 -7 9 C-6.34 9 -5.68 9 -5 9 C-5 8.01 -5 7.02 -5 6 C-3.70896357 4.6256709 -2.3743291 3.29103643 -1 2 C-0.67 1.34 -0.34 0.68 0 0 Z " fill="#45BDC7" transform="translate(608,134)"/>
<path d="M0 0 C0.33 0.66 0.66 1.32 1 2 C0.04882866 3.1725131 -0.91117009 4.33787015 -1.875 5.5 C-2.67550781 6.47453125 -2.67550781 6.47453125 -3.4921875 7.46875 C-3.98976563 7.9740625 -4.48734375 8.479375 -5 9 C-5.66 9 -6.32 9 -7 9 C-7 9.66 -7 10.32 -7 11 C-13.36842105 16.78947368 -13.36842105 16.78947368 -17 18 C-18.34291094 17.70763193 -19.67871882 17.37829212 -21 17 C-20.32195312 16.52691406 -19.64390625 16.05382812 -18.9453125 15.56640625 C-12.21146416 10.7818298 -6.02605179 5.64697261 0 0 Z " fill="#195C92" transform="translate(317,269)"/>
<path d="M0 0 C3.90775329 1.95387664 5.47622339 3.38892729 8.25 6.625 C8.95640625 7.44226563 9.6628125 8.25953125 10.390625 9.1015625 C10.92171875 9.72804688 11.4528125 10.35453125 12 11 C11.01 11.33 10.02 11.66 9 12 C7.79557292 10.47005208 6.59114583 8.94010417 5.38671875 7.41015625 C3.94316909 5.72844923 3.94316909 5.72844923 1 5 C1.020625 6.175625 1.04125 7.35125 1.0625 8.5625 C1.06947261 12.47413467 0.64250343 16.14497944 0 20 C-0.66 19.67 -1.32 19.34 -2 19 C-1.34 12.73 -0.68 6.46 0 0 Z " fill="#255F8C" transform="translate(111,338)"/>
<path d="M0 0 C17.34042553 8.57446809 17.34042553 8.57446809 25 13 C24.01 13.495 24.01 13.495 23 14 C20.61385684 13.06425758 18.32249433 12.07299238 16 11 C14.68921417 10.43351698 13.37678954 9.87080592 12.0625 9.3125 C11.051875 8.879375 10.04125 8.44625 9 8 C9 7.34 9 6.68 9 6 C8.36191406 5.95101563 7.72382813 5.90203125 7.06640625 5.8515625 C6.24011719 5.77679688 5.41382813 5.70203125 4.5625 5.625 C3.73878906 5.55539062 2.91507813 5.48578125 2.06640625 5.4140625 C1.38449219 5.27742188 0.70257813 5.14078125 0 5 C-0.33 4.34 -0.66 3.68 -1 3 C-0.67 2.01 -0.34 1.02 0 0 Z " fill="#48BDC6" transform="translate(239,379)"/>
<path d="M0 0 C0 0.99 0 1.98 0 3 C-0.66 3 -1.32 3 -2 3 C-2.10570312 3.59425781 -2.21140625 4.18851563 -2.3203125 4.80078125 C-3.09425122 7.30496227 -4.00604289 8.3789818 -5.875 10.1875 C-6.38804687 10.69667969 -6.90109375 11.20585937 -7.4296875 11.73046875 C-9 13 -9 13 -12 14 C-13.69882448 16.49759982 -13.69882448 16.49759982 -15 19 C-15.66 18.67 -16.32 18.34 -17 18 C-6.88517745 3.44258873 -6.88517745 3.44258873 0 0 Z " fill="#1B5A8B" transform="translate(185,182)"/>
<path d="M0 0 C0.33 0 0.66 0 1 0 C1.02684679 2.64590014 1.04676357 5.29153096 1.0625 7.9375 C1.07087891 8.69224609 1.07925781 9.44699219 1.08789062 10.22460938 C1.09652441 12.14994313 1.05224333 14.07535581 1 16 C0.67 16.33 0.34 16.66 0 17 C-0.30523962 21.65088715 -0.30523962 21.65088715 1 26 C1.039992 27.99960012 1.04346799 30.00047242 1 32 C-2.29184457 28.70815543 -2.16006045 25.63819552 -2.1875 21.1875 C-2.14708253 14.00935725 -1.18690862 7.06846475 0 0 Z " fill="#2B6796" transform="translate(86,516)"/>
<path d="M0 0 C0.734375 1.74609375 0.734375 1.74609375 1 4 C-0.546875 6.03515625 -0.546875 6.03515625 -2.75 8.0625 C-3.46671875 8.73410156 -4.1834375 9.40570313 -4.921875 10.09765625 C-5.60765625 10.72542969 -6.2934375 11.35320312 -7 12 C-7.54140625 12.57621094 -8.0828125 13.15242188 -8.640625 13.74609375 C-10 15 -10 15 -12 15 C-11.58685438 10.55073948 -8.49538473 8.15899896 -5.4375 5.25 C-4.91736328 4.74339844 -4.39722656 4.23679687 -3.86132812 3.71484375 C-2.58089916 2.46965595 -1.29132446 1.23388498 0 0 Z " fill="#39BDC6" transform="translate(342,394)"/>
<path d="M0 0 C2.875 0.6875 2.875 0.6875 6 2 C6.68753301 3.65816784 7.35561283 5.32459336 8 7 C10.54775306 7.89386164 10.54775306 7.89386164 13 8 C13.33 8.99 13.66 9.98 14 11 C15.85804317 12.44870619 15.85804317 12.44870619 18.0625 13.6875 C18.79597656 14.12449219 19.52945313 14.56148438 20.28515625 15.01171875 C20.85105469 15.33785156 21.41695312 15.66398437 22 16 C21.34 16.66 20.68 17.32 20 18 C5.93838527 7.4907932 5.93838527 7.4907932 0 1 C0 0.67 0 0.34 0 0 Z " fill="#216090" transform="translate(120,293)"/>
<path d="M0 0 C0.99 0 1.98 0 3 0 C0.82635713 10.27951941 -3.61053835 19.5225163 -8 29 C-8.33 29 -8.66 29 -9 29 C-9.43200679 24.24792529 -7.98489083 21.21789302 -6 17 C-5.34 17 -4.68 17 -4 17 C-3.86722656 16.45601562 -3.73445313 15.91203125 -3.59765625 15.3515625 C-2.67050596 11.70355938 -1.6364783 8.08522877 -0.62109375 4.4609375 C0.08156926 2.09981834 0.08156926 2.09981834 0 0 Z " fill="#255F8D" transform="translate(371,227)"/>
<path d="M0 0 C2.55673879 3.83510818 2.38408455 7.04766137 2.375 11.5 C2.37338867 12.30646973 2.37177734 13.11293945 2.37011719 13.94384766 C2.21657021 21.46313339 1.16377053 28.61684392 -4.140625 34.2890625 C-4.75421875 34.85367188 -5.3678125 35.41828125 -6 36 C-6 35.01 -6 34.02 -6 33 C-5.34 33 -4.68 33 -4 33 C-3.896875 32.360625 -3.79375 31.72125 -3.6875 31.0625 C-3.11630406 28.51808171 -2.38713067 26.36008691 -1.46875 23.9375 C0.24245045 18.86153908 0.34823441 14.24997833 0.1875 8.9375 C0.16719727 7.6390918 0.16719727 7.6390918 0.14648438 6.31445312 C0.1115933 4.20935826 0.05780665 2.10459026 0 0 Z " fill="#235F8E" transform="translate(262,105)"/>
<path d="M0 0 C0.33 0 0.66 0 1 0 C1 4.62 1 9.24 1 14 C8.26 14 15.52 14 23 14 C23 14.33 23 14.66 23 15 C14.75 15 6.5 15 -2 15 C-1 4 -1 4 0 0 Z " fill="#BFE1F3" transform="translate(158,482)"/>
<path d="M0 0 C0.66 0 1.32 0 2 0 C2.14695312 0.65484375 2.29390625 1.3096875 2.4453125 1.984375 C4.09328101 8.68990205 6.52053294 14.34504819 9.890625 20.37109375 C11.1302726 23.30870936 10.90642663 24.07743488 10 27 C8.70652783 24.27167614 7.41516704 21.54238631 6.125 18.8125 C5.76019531 18.04357422 5.39539063 17.27464844 5.01953125 16.48242188 C-0.29820001 5.2185002 -0.29820001 5.2185002 0 0 Z " fill="#205E8D" transform="translate(81,229)"/>
<path d="M0 0 C0.33 0.66 0.66 1.32 1 2 C1.66 2 2.32 2 3 2 C1.55575365 5.23861303 -0.25772247 7.61969163 -2.625 10.25 C-3.25664062 10.95640625 -3.88828125 11.6628125 -4.5390625 12.390625 C-5.02117187 12.92171875 -5.50328125 13.4528125 -6 14 C-6.66 13.01 -7.32 12.02 -8 11 C-7.34 11 -6.68 11 -6 11 C-5.690625 10.05125 -5.38125 9.1025 -5.0625 8.125 C-4 5 -4 5 -3 3 C-2.34 3 -1.68 3 -1 3 C-0.67 2.01 -0.34 1.02 0 0 Z " fill="#38BECB" transform="translate(365,507)"/>
<path d="M0 0 C7.18043397 3.59021699 12.95303941 8.79703227 19 14 C16 15 16 15 13.3125 13.6875 C12.549375 13.130625 11.78625 12.57375 11 12 C11 11.34 11 10.68 11 10 C10.34 10 9.68 10 9 10 C9 9.34 9 8.68 9 8 C8.2575 7.7525 7.515 7.505 6.75 7.25 C3.76976913 5.89534961 2.10080748 4.4898459 0 2 C0 1.34 0 0.68 0 0 Z " fill="#1F5B8B" transform="translate(313,57)"/>
<path d="M0 0 C0.33 0 0.66 0 1 0 C1.37322822 5.10078564 0.16536935 8.40941697 -2 13 C-2.33 13.99 -2.66 14.98 -3 16 C-4.32 16 -5.64 16 -7 16 C-7 16.66 -7 17.32 -7 18 C-7.66 17.67 -8.32 17.34 -9 17 C-6.03 11.39 -3.06 5.78 0 0 Z " fill="#195B8E" transform="translate(341,233)"/>
<path d="M0 0 C0 4.31845141 -1.65944304 6.62775138 -4.65234375 9.69140625 C-8.1601172 12.88770722 -8.1601172 12.88770722 -10 14 C-10.99 13.67 -11.98 13.34 -13 13 C-8.71 8.71 -4.42 4.42 0 0 Z " fill="#49C0CB" transform="translate(606,122)"/>
<path d="M0 0 C3.7910119 1.44950455 7.3874638 3.15172566 11 5 C10.01 5.495 10.01 5.495 9 6 C10.73559438 9.057952 12.38472619 11.63379989 15 14 C14.67 14.66 14.34 15.32 14 16 C9.09222228 11.22647759 4.28953003 6.34561493 0 1 C0 0.67 0 0.34 0 0 Z " fill="#50BAC0" transform="translate(106,310)"/>
<path d="M0 0 C0.33 0 0.66 0 1 0 C1.05534912 0.71655762 1.11069824 1.43311523 1.16772461 2.17138672 C1.42001558 5.40627677 1.67867668 8.64062633 1.9375 11.875 C2.02451172 13.00292969 2.11152344 14.13085938 2.20117188 15.29296875 C2.28818359 16.36933594 2.37519531 17.44570312 2.46484375 18.5546875 C2.543396 19.54968262 2.62194824 20.54467773 2.70288086 21.56982422 C2.86274433 24.00495664 2.86274433 24.00495664 4 26 C3.01 27.32 2.02 28.64 1 30 C-0.3302664 20.02300197 -0.09502917 10.04385176 0 0 Z " fill="#4579A1" transform="translate(73,174)"/>
<path d="M0 0 C0.99 0.33 1.98 0.66 3 1 C2.25556641 1.61875 2.25556641 1.61875 1.49609375 2.25 C-2.90714797 5.99317322 -6.824993 9.8858638 -10.5546875 14.30078125 C-12 16 -12 16 -14 18 C-13.125 13.25 -13.125 13.25 -12 11 C-11.34 11 -10.68 11 -10 11 C-9.731875 10.360625 -9.46375 9.72125 -9.1875 9.0625 C-8 7 -8 7 -5 6 C-4.3162955 4.67532254 -3.65035814 3.34136367 -3 2 C-2.01 1.34 -1.02 0.68 0 0 Z " fill="#D3ECF5" transform="translate(182,182)"/>
<path d="M0 0 C0.33 0.99 0.66 1.98 1 3 C-0.64827041 5.61492524 -2.8829884 7.75528004 -5 10 C-6.2684375 11.4540625 -6.2684375 11.4540625 -7.5625 12.9375 C-10 15 -10 15 -12.8125 15.3125 C-13.534375 15.209375 -14.25625 15.10625 -15 15 C-14.28457031 14.45859375 -13.56914062 13.9171875 -12.83203125 13.359375 C-9.82346094 10.8529247 -7.29428142 8.16959519 -4.6875 5.25 C-4.23310547 4.74339844 -3.77871094 4.23679687 -3.31054688 3.71484375 C-2.20355268 2.47967128 -1.10127675 1.24027284 0 0 Z " fill="#DBF9FA" transform="translate(357,522)"/>
<path d="M0 0 C3 0 3 0 4.6875 1.375 C6 3 6 3 6 5 C6.66 5 7.32 5 8 5 C8.66 5.66 9.32 6.32 10 7 C10.66 7.33 11.32 7.66 12 8 C11.34 8.66 10.68 9.32 10 10 C8.68 10 7.36 10 6 10 C5.87625 9.071875 5.87625 9.071875 5.75 8.125 C5.21189267 5.81653196 5.21189267 5.81653196 3 5 C1 4 1 4 0.25 1.875 C0.1675 1.25625 0.085 0.6375 0 0 Z " fill="#25C0D0" transform="translate(115,316)"/>
<path d="M0 0 C1.0635774 3.19073219 0.89019883 3.93375957 0 7 C0 7.66 0 8.32 0 9 C-1.423125 9.928125 -1.423125 9.928125 -2.875 10.875 C-5.82241872 12.87924473 -6.83853833 13.74790731 -8 17 C-8.66 17 -9.32 17 -10 17 C-8.51364884 12.78345644 -6.38750841 9.37521395 -3.875 5.6875 C-3.15054688 4.61886719 -2.42609375 3.55023438 -1.6796875 2.44921875 C-0.84824219 1.23685547 -0.84824219 1.23685547 0 0 Z " fill="#DBF9FA" transform="translate(590,165)"/>
<path d="M0 0 C1.05692047 0.00212242 1.05692047 0.00212242 2.13519287 0.00428772 C4.37663084 0.00986692 6.61796743 0.02241552 8.859375 0.03515625 C10.38281105 0.04017394 11.90624868 0.04473638 13.4296875 0.04882812 C17.15628272 0.05982951 20.88281896 0.07707979 24.609375 0.09765625 C24.609375 0.42765625 24.609375 0.75765625 24.609375 1.09765625 C23.33090698 1.13524048 23.33090698 1.13524048 22.02661133 1.17358398 C18.84892534 1.26901194 15.67138606 1.36822749 12.49389648 1.4699707 C11.12154724 1.51314465 9.74915033 1.55483126 8.37670898 1.5949707 C6.39815432 1.65310017 4.4197753 1.71711335 2.44140625 1.78125 C1.25264893 1.81790771 0.0638916 1.85456543 -1.16088867 1.89233398 C-4.34322586 2.00710311 -4.34322586 2.00710311 -7.19262695 2.74243164 C-7.91796631 2.85965576 -8.64330566 2.97687988 -9.390625 3.09765625 C-10.050625 2.43765625 -10.710625 1.77765625 -11.390625 1.09765625 C-7.59524869 -0.12108125 -3.96270879 -0.01572503 0 0 Z " fill="#E2F6FB" transform="translate(217.390625,57.90234375)"/>
<path d="M0 0 C0.33 0 0.66 0 1 0 C1 6.93 1 13.86 1 21 C0.01 21 -0.98 21 -2 21 C-1.03644647 6.21867882 -1.03644647 6.21867882 0 0 Z " fill="#346E98" transform="translate(657,343)"/>
<path d="M0 0 C2.39591038 -0.02712351 4.79150957 -0.0468982 7.1875 -0.0625 C7.86103516 -0.07087891 8.53457031 -0.07925781 9.22851562 -0.08789062 C12.95434131 -0.10606538 16.3788042 0.10700608 20 1 C20 1.33 20 1.66 20 2 C17.22965863 2.24858198 14.46060931 2.47452879 11.6875 2.6875 C10.50897461 2.79674805 10.50897461 2.79674805 9.30664062 2.90820312 C8.54931641 2.96298828 7.79199219 3.01777344 7.01171875 3.07421875 C6.31522217 3.13182373 5.61872559 3.18942871 4.90112305 3.2487793 C2.40690575 2.92238821 1.5788082 1.8898183 0 0 Z " fill="#0E558B" transform="translate(230,31)"/>
<path d="M0 0 C1.1055189 0.93590504 2.20935453 1.87379858 3.3125 2.8125 C3.92738281 3.33457031 4.54226563 3.85664062 5.17578125 4.39453125 C8.51952278 7.3373102 8.51952278 7.3373102 10 9 C10 9.66 10 10.32 10 11 C8.68 11 7.36 11 6 11 C5.67 10.67 5.34 10.34 5 10 C4.34 10 3.68 10 3 10 C2.67 8.02 2.34 6.04 2 4 C1.01 4.495 1.01 4.495 0 5 C0 3.35 0 1.7 0 0 Z " fill="#14598E" transform="translate(281,527)"/>
<path d="M0 0 C0.33 1.32 0.66 2.64 1 4 C-0.21484375 5.921875 -0.21484375 5.921875 -1.9375 7.75 C-2.50339844 8.36359375 -3.06929688 8.9771875 -3.65234375 9.609375 C-4.09707031 10.06828125 -4.54179687 10.5271875 -5 11 C-6.32 10.34 -7.64 9.68 -9 9 C-6.03 6.03 -3.06 3.06 0 0 Z " fill="#41BCC9" transform="translate(481,251)"/>
<path d="M0 0 C0 3.88291746 -1.37860494 5.46752535 -3.5 8.6875 C-4.1496875 9.68136719 -4.799375 10.67523438 -5.46875 11.69921875 C-5.9740625 12.45847656 -6.479375 13.21773437 -7 14 C-7.33 13.01 -7.66 12.02 -8 11 C-8.66 10.67 -9.32 10.34 -10 10 C-6.7 6.7 -3.4 3.4 0 0 Z " fill="#55C0C8" transform="translate(637,90)"/>
<path d="M0 0 C5.23435005 4.27293882 9.67106815 8.81580806 14 14 C13.01 14.33 12.02 14.66 11 15 C6 9.25 6 9.25 6 7 C4.35 6.67 2.7 6.34 1 6 C0.67 4.02 0.34 2.04 0 0 Z " fill="#24628F" transform="translate(257,500)"/>
<path d="M0 0 C0.33 0.66 0.66 1.32 1 2 C0.0625 4.625 0.0625 4.625 -1 7 C-1.66 7 -2.32 7 -3 7 C-3 8.32 -3 9.64 -3 11 C-3.66 11 -4.32 11 -5 11 C-5.2475 11.5775 -5.495 12.155 -5.75 12.75 C-7.16683317 15.3002997 -8.87627537 17.01785701 -11 19 C-9.41467191 14.44435939 -7.00996919 10.68524231 -4.375 6.6875 C-3.95476563 6.04232422 -3.53453125 5.39714844 -3.1015625 4.73242188 C-2.07161759 3.15239276 -1.03634372 1.57583953 0 0 Z " fill="#CFF7FA" transform="translate(534,252)"/>
<path d="M0 0 C0.33 0 0.66 0 1 0 C1.4375 2.125 1.4375 2.125 1 5 C-1.96827912 8.59634977 -4.91607623 10.72409213 -9.4375 11.875 C-10.7059375 11.936875 -10.7059375 11.936875 -12 12 C-12.33 11.34 -12.66 10.68 -13 10 C-10.36 9.34 -7.72 8.68 -5 8 C-5 7.34 -5 6.68 -5 6 C-3.68 5.67 -2.36 5.34 -1 5 C-0.67 3.35 -0.34 1.7 0 0 Z " fill="#D9F1F9" transform="translate(236,246)"/>
<path d="M0 0 C0.391875 0.495 0.78375 0.99 1.1875 1.5 C3.55091715 3.45593143 5.01435003 3.24207973 8 3 C4.35140239 6.04049801 0.2555467 7.96518762 -4 10 C-4 9.34 -4 8.68 -4 8 C-3.34 7.67 -2.68 7.34 -2 7 C-1.61781233 5.34385343 -1.28604898 3.67542976 -1 2 C-0.67 1.34 -0.34 0.68 0 0 Z " fill="#145990" transform="translate(164,67)"/>
<path d="M0 0 C0.99 0 1.98 0 3 0 C3.2475 0.7425 3.495 1.485 3.75 2.25 C5.11899045 5.26177898 6.60699074 6.74775599 9 9 C10.35156675 10.65191491 11.68962066 12.31522656 13 14 C12.67 14.66 12.34 15.32 12 16 C9.99074192 13.90403286 7.99268779 11.79912074 6 9.6875 C5.42765625 9.09259766 4.8553125 8.49769531 4.265625 7.88476562 C3.72421875 7.30791016 3.1828125 6.73105469 2.625 6.13671875 C2.12226563 5.60780029 1.61953125 5.07888184 1.1015625 4.53393555 C0 3 0 3 0 0 Z " fill="#43BBC6" transform="translate(145,352)"/>
<path d="M0 0 C6.27 2.97 12.54 5.94 19 9 C16 10 16 10 14.1328125 9.2578125 C13.47023437 8.88398438 12.80765625 8.51015625 12.125 8.125 C9.07775061 6.49455291 6.46976899 5.43372112 3 5 C3 4.34 3 3.68 3 3 C2.01 2.67 1.02 2.34 0 2 C0 1.34 0 0.68 0 0 Z " fill="#59C0CB" transform="translate(118,316)"/>
<path d="M0 0 C2 3 2 3 2 6 C1.0925 6.2475 0.185 6.495 -0.75 6.75 C-4.10351489 8.03981342 -5.67708236 9.31971042 -8 12 C-8.66 11.67 -9.32 11.34 -10 11 C-6.7 7.37 -3.4 3.74 0 0 Z " fill="#41BEC9" transform="translate(524,206)"/>
<path d="M0 0 C7.48291572 6.15034169 7.48291572 6.15034169 10 10 C8.02 10.99 8.02 10.99 6 12 C5.67 10.02 5.34 8.04 5 6 C3.68 6 2.36 6 1 6 C0.67 4.02 0.34 2.04 0 0 Z " fill="#1B5D8F" transform="translate(161,391)"/>
<path d="M0 0 C4.24292532 1.60630825 8.27025107 3.5768162 12.3125 5.625 C12.95767578 5.94984375 13.60285156 6.2746875 14.26757812 6.609375 C15.84597541 7.40441956 17.42311694 8.20195634 19 9 C16.44653975 9.95537629 15.37100779 10.15729668 12.81640625 9.07421875 C12.07261719 8.61660156 11.32882813 8.15898437 10.5625 7.6875 C8.01806235 6.1658676 5.78698214 4.9201183 3 3.875 C2.34 3.58625 1.68 3.2975 1 3 C0.67 2.01 0.34 1.02 0 0 Z " fill="#48BCC4" transform="translate(219,369)"/>
<path d="M0 0 C1.093125 0.185625 2.18625 0.37125 3.3125 0.5625 C6.93624133 1.2578068 6.93624133 1.2578068 10 0 C10 0.66 10 1.32 10 2 C10.99 2.33 11.98 2.66 13 3 C12.67 3.99 12.34 4.98 12 6 C7.76570244 4.68938409 3.92592596 3.05643741 0 1 C0 0.67 0 0.34 0 0 Z " fill="#DEF8F7" transform="translate(176,346)"/>
<path d="M0 0 C0.33 0.66 0.66 1.32 1 2 C-4.0940919 9.68490153 -4.0940919 9.68490153 -7.875 11 C-8.57625 11 -9.2775 11 -10 11 C-6.79239749 7.19364503 -3.59253891 3.45436433 0 0 Z " fill="#4BBFCA" transform="translate(572,157)"/>
<path d="M0 0 C0.66 0 1.32 0 2 0 C0.52278578 3.45201639 -1.43794001 5.64961936 -4.125 8.25 C-4.84945313 8.95640625 -5.57390625 9.6628125 -6.3203125 10.390625 C-6.87460937 10.92171875 -7.42890625 11.4528125 -8 12 C-8.33 10.68 -8.66 9.36 -9 8 C-7.68 7.67 -6.36 7.34 -5 7 C-5 6.34 -5 5.68 -5 5 C-4.34 5 -3.68 5 -3 5 C-3 4.01 -3 3.02 -3 2 C-2.01 2 -1.02 2 0 2 C0 1.34 0 0.68 0 0 Z " fill="#CCF5F8" transform="translate(486,243)"/>
<path d="M0 0 C0.33 0.66 0.66 1.32 1 2 C-0.36328125 4.56640625 -0.36328125 4.56640625 -2.3125 7.5625 C-3.26576172 9.04943359 -3.26576172 9.04943359 -4.23828125 10.56640625 C-6 13 -6 13 -8 14 C-7.6875 11.125 -7.6875 11.125 -7 8 C-6.01 7.34 -5.02 6.68 -4 6 C-2.9590934 4.35857037 -1.95495674 2.69287785 -1 1 C-0.67 0.67 -0.34 0.34 0 0 Z " fill="#42BBC2" transform="translate(562,206)"/>
<path d="M0 0 C0 1.32 0 2.64 0 4 C-0.99 4 -1.98 4 -3 4 C-3.33 5.65 -3.66 7.3 -4 9 C-5.32 8.67 -6.64 8.34 -8 8 C-6.48291727 4.46014029 -4.24676932 0 0 0 Z " fill="#27BECF" transform="translate(623,109)"/>
<path d="M0 0 C3.65589852 0.89366408 5.55866062 1.44476659 7.9375 4.4375 C9 7 9 7 8 10 C6.66370254 8.52351062 5.33103329 7.0437367 4 5.5625 C3.2575 4.73878906 2.515 3.91507812 1.75 3.06640625 C0 1 0 1 0 0 Z " fill="#41BFC8" transform="translate(223,442)"/>
<path d="M0 0 C2.12936806 3.19405209 2.23418211 3.49187661 1.7578125 7.01171875 C1.66113281 7.76904297 1.56445312 8.52636719 1.46484375 9.30664062 C1.35269531 10.09232422 1.24054688 10.87800781 1.125 11.6875 C1.02058594 12.48478516 0.91617188 13.28207031 0.80859375 14.10351562 C0.54948177 16.07041111 0.27610346 18.03541767 0 20 C-2 18 -2 18 -2.04345703 16.12060547 C-1.94919434 15.37697754 -1.85493164 14.63334961 -1.7578125 13.8671875 C-1.66113281 13.06152344 -1.56445312 12.25585938 -1.46484375 11.42578125 C-1.29662109 10.16314453 -1.29662109 10.16314453 -1.125 8.875 C-1.02058594 8.02550781 -0.91617188 7.17601562 -0.80859375 6.30078125 C-0.54885849 4.1992869 -0.27568684 2.09946128 0 0 Z " fill="#326A96" transform="translate(97,438)"/>
<path d="M0 0 C0.66 0 1.32 0 2 0 C2 0.66 2 1.32 2 2 C2.66 2 3.32 2 4 2 C5.68732277 3.98260426 7.35366057 5.9832342 9 8 C9.66 8.33 10.32 8.66 11 9 C11.625 11.5625 11.625 11.5625 12 14 C6.99345667 10.51059101 3.48289714 5.94832361 0 1 C0 0.67 0 0.34 0 0 Z " fill="#4BBDC7" transform="translate(128,334)"/>
<path d="M0 0 C1.32 0.33 2.64 0.66 4 1 C0.04 6.94 0.04 6.94 -4 13 C-5 11 -5 11 -4.0625 7.875 C-3.711875 6.92625 -3.36125 5.9775 -3 5 C-2.01 5 -1.02 5 0 5 C0 3.35 0 1.7 0 0 Z " fill="#43BEC5" transform="translate(535,245)"/>
<path d="M0 0 C1 2 1 2 1 6 C-0.78277744 8.01623639 -2.83126157 9.37344618 -5 11 C-5.66 10.67 -6.32 10.34 -7 10 C-3.535 5.05 -3.535 5.05 0 0 Z " fill="#226090" transform="translate(102,94)"/>
<path d="M0 0 C3.45925163 1.2491742 6.14693203 2.67527795 9 5 C9.66 4.67 10.32 4.34 11 4 C11.33 6.31 11.66 8.62 12 11 C7.81576108 7.49102731 3.80411834 3.91939465 0 0 Z " fill="#216091" transform="translate(308,87)"/>
<path d="M0 0 C0.66 1.32 1.32 2.64 2 4 C-2.625 9.875 -2.625 9.875 -6 11 C-4.54955729 6.89041233 -2.48889248 3.56741255 0 0 Z " fill="#DBFAFB" transform="translate(597,154)"/>
<path d="M0 0 C0 3.41321235 -0.66867466 4.39472885 -2.5 7.1875 C-2.9640625 7.90292969 -3.428125 8.61835938 -3.90625 9.35546875 C-4.2671875 9.89816406 -4.628125 10.44085938 -5 11 C-6.32 10.34 -7.64 9.68 -9 9 C-6.03 6.03 -3.06 3.06 0 0 Z " fill="#45BDC7" transform="translate(373,362)"/>
<path d="M0 0 C0.33 1.32 0.66 2.64 1 4 C0.01 4 -0.98 4 -2 4 C-2 5.32 -2 6.64 -2 8 C-4.31 8.66 -6.62 9.32 -9 10 C-8.06409496 8.8944811 -7.12620142 7.79064547 -6.1875 6.6875 C-5.66542969 6.07261719 -5.14335937 5.45773437 -4.60546875 4.82421875 C-3.12827531 3.14575321 -1.59960869 1.56117966 0 0 Z " fill="#48BFC6" transform="translate(439,294)"/>
<path d="M0 0 C1.2065625 0.0309375 1.2065625 0.0309375 2.4375 0.0625 C1.46221263 1.39867352 0.48216681 2.7313751 -0.5 4.0625 C-1.04527344 4.805 -1.59054687 5.5475 -2.15234375 6.3125 C-2.61769531 6.89 -3.08304687 7.4675 -3.5625 8.0625 C-3.8925 8.0625 -4.2225 8.0625 -4.5625 8.0625 C-3.54737544 0.08652135 -3.54737544 0.08652135 0 0 Z " fill="#175E95" transform="translate(486.5625,186.9375)"/>
<path d="M0 0 C1.9375 1.5625 1.9375 1.5625 3 3 C2.01 3 1.02 3 0 3 C-0.33 2.67 -0.66 2.34 -1 2 C-2.85287502 1.92773498 -4.70833878 1.9161878 -6.5625 1.9375 C-7.57441406 1.94652344 -8.58632812 1.95554688 -9.62890625 1.96484375 C-10.41136719 1.97644531 -11.19382813 1.98804688 -12 2 C-8.22170186 -1.77829814 -4.93987197 -1.05854399 0 0 Z " fill="#2D6792" transform="translate(210,173)"/>
<path d="M0 0 C0.33 0.66 0.66 1.32 1 2 C-0.70847138 6.13629913 -2.67356033 9.01767477 -6 12 C-6.99 11.67 -7.98 11.34 -9 11 C-6.03 7.37 -3.06 3.74 0 0 Z " fill="#286493" transform="translate(112,81)"/>
<path d="M0 0 C0.66 0.33 1.32 0.66 2 1 C-1.96 6.94 -1.96 6.94 -6 13 C-6.33 11.68 -6.66 10.36 -7 9 C-6.01 8.67 -5.02 8.34 -4 8 C-4 7.01 -4 6.02 -4 5 C-3.34 5 -2.68 5 -2 5 C-2 3.68 -2 2.36 -2 1 C-1.34 0.67 -0.68 0.34 0 0 Z " fill="#42BCC2" transform="translate(465,357)"/>
<path d="M0 0 C4.52615993 3.67832017 8.39424999 7.41086363 12 12 C8.7991535 11.65705216 8.04586025 11.05558818 5.9375 8.5 C5.298125 7.675 4.65875 6.85 4 6 C3.01 5.67 2.02 5.34 1 5 C0.67 3.35 0.34 1.7 0 0 Z " fill="#195888" transform="translate(132,264)"/>
<path d="M0 0 C0.99 0.33 1.98 0.66 3 1 C-0.3810038 5.13621084 -3.66590534 8.81316569 -8 12 C-6.79618552 9.50638429 -5.54571278 7.31856917 -4 5 C-3.34 5 -2.68 5 -2 5 C-1.34 3.35 -0.68 1.7 0 0 Z " fill="#D9FBFC" transform="translate(474,254)"/>
<path d="M0 0 C0.66 0.66 1.32 1.32 2 2 C0.625 3.5 0.625 3.5 -1 5 C-1.66 5 -2.32 5 -3 5 C-3.268125 5.598125 -3.53625 6.19625 -3.8125 6.8125 C-4.98493467 8.97224808 -6.19369282 10.35790256 -8 12 C-8.66 11.67 -9.32 11.34 -10 11 C-6.7 7.37 -3.4 3.74 0 0 Z " fill="#D5EDF7" transform="translate(479,198)"/>
<path d="M0 0 C1.32 0.33 2.64 0.66 4 1 C1.36 3.64 -1.28 6.28 -4 9 C-4.33 8.01 -4.66 7.02 -5 6 C-4.34 6 -3.68 6 -3 6 C-2.87625 5.38125 -2.7525 4.7625 -2.625 4.125 C-2 2 -2 2 0 0 Z " fill="#CFF6F8" transform="translate(623,101)"/>
<path d="M0 0 C0.66 0.33 1.32 0.66 2 1 C1.67 1.66 1.34 2.32 1 3 C0.34 3 -0.32 3 -1 3 C-1 3.66 -1 4.32 -1 5 C-4.13498292 6.85776765 -6.37471432 7.20140476 -10 7 C-6.81404865 4.36021174 -3.69029454 1.89501612 0 0 Z " fill="#D6EDF6" transform="translate(310,312)"/>
<path d="M0 0 C0.99 0 1.98 0 3 0 C1.44298069 4.67105792 -1.08447373 8.08705685 -4 12 C-4.6171875 10.125 -4.6171875 10.125 -5 8 C-3.71034824 6.62437146 -2.37310707 5.29233607 -1 4 C-0.2127322 1.8618034 -0.2127322 1.8618034 0 0 Z " fill="#40BCC6" transform="translate(497,305)"/>
<path d="M0 0 C1.32 0.66 2.64 1.32 4 2 C1.375 6.875 1.375 6.875 -2 8 C-1.67 6.68 -1.34 5.36 -1 4 C-1.66 3.67 -2.32 3.34 -3 3 C-2.01 2.01 -1.02 1.02 0 0 Z " fill="#EFF7F7" transform="translate(335,292)"/>
<path d="M0 0 C0 3.39593478 -0.52165948 4.06619881 -2.5 6.6875 C-2.9640625 7.31011719 -3.428125 7.93273437 -3.90625 8.57421875 C-4.2671875 9.04472656 -4.628125 9.51523438 -5 10 C-6.32 9.67 -7.64 9.34 -9 9 C-6.03 6.03 -3.06 3.06 0 0 Z " fill="#42BCC5" transform="translate(582,147)"/>
<path d="M0 0 C5.875 4.625 5.875 4.625 7 8 C6.34 8 5.68 8 5 8 C5 7.34 5 6.68 5 6 C3.68 5.67 2.36 5.34 1 5 C0.67 5.66 0.34 6.32 0 7 C-1.04449911 3.86650268 -0.93423645 3.01031744 0 0 Z " fill="#DAFAFB" transform="translate(169,382)"/>
<path d="M0 0 C6.435 2.97 6.435 2.97 13 6 C9 7 9 7 6.640625 6.00390625 C5.85171875 5.52824219 5.0628125 5.05257813 4.25 4.5625 C3.45078125 4.08941406 2.6515625 3.61632812 1.828125 3.12890625 C1.22484375 2.75636719 0.6215625 2.38382812 0 2 C0 1.34 0 0.68 0 0 Z " fill="#46BDC7" transform="translate(139,327)"/>
<path d="M0 0 C0.99 0.33 1.98 0.66 3 1 C0.69 4.63 -1.62 8.26 -4 12 C-4.33 10.68 -4.66 9.36 -5 8 C-4.34 8 -3.68 8 -3 8 C-3 7.01 -3 6.02 -3 5 C-2.34 5 -1.68 5 -1 5 C-0.67 3.35 -0.34 1.7 0 0 Z " fill="#47BDC5" transform="translate(489,318)"/>
<path d="M0 0 C0.66 0 1.32 0 2 0 C0.54955729 4.10958767 -1.51110752 7.43258745 -4 11 C-5.60031344 7.79937313 -4.03173691 5.27728194 -3 2 C-2.01 2 -1.02 2 0 2 C0 1.34 0 0.68 0 0 Z " fill="#43BDC4" transform="translate(517,275)"/>
<path d="M0 0 C0.97792207 3.18565522 1.04657813 5.81321089 0.75 9.125 C0.68296875 9.99382812 0.6159375 10.86265625 0.546875 11.7578125 C0 14 0 14 -3 16 C-2.30834212 10.58201328 -1.24200752 5.3177215 0 0 Z " fill="#2A6594" transform="translate(79,140)"/>
<path d="M0 0 C5.61 0 11.22 0 17 0 C17 0.33 17 0.66 17 1 C8.09 1.99 8.09 1.99 -1 3 C-0.67 2.01 -0.34 1.02 0 0 Z " fill="#C7E0EC" transform="translate(213,79)"/>
<path d="M0 0 C4.50802601 1.25805377 7.4912812 2.90407165 11 6 C8.69 6.33 6.38 6.66 4 7 C4 6.01 4 5.02 4 4 C2.68 3.34 1.36 2.68 0 2 C0 1.34 0 0.68 0 0 Z " fill="#1C5F90" transform="translate(294,46)"/>
<path d="M0 0 C1 2 1 2 0.25 4.375 C-0.95138534 6.89790922 -2.14521899 8.91337136 -4 11 C-4.66 11 -5.32 11 -6 11 C-4.54955729 6.89041233 -2.48889248 3.56741255 0 0 Z " fill="#D3F9FA" transform="translate(465,360)"/>
<path d="M0 0 C7.83098592 1.95774648 7.83098592 1.95774648 11 5 C11 5.66 11 6.32 11 7 C6.89188572 5.55007731 3.53144334 3.54592427 0 1 C0 0.67 0 0.34 0 0 Z " fill="#D1E8F4" transform="translate(154,283)"/>
<path d="M0 0 C0.33 1.32 0.66 2.64 1 4 C0.01 4 -0.98 4 -2 4 C-2.268125 4.598125 -2.53625 5.19625 -2.8125 5.8125 C-3.98493467 7.97224808 -5.19369282 9.35790256 -7 11 C-7.66 10.67 -8.32 10.34 -9 10 C-6.03 6.7 -3.06 3.4 0 0 Z " fill="#D5EDF7" transform="translate(510,164)"/>
<path d="M0 0 C3.465 1.98 3.465 1.98 7 4 C6.67 4.66 6.34 5.32 6 6 C3.69 5.34 1.38 4.68 -1 4 C-0.67 2.68 -0.34 1.36 0 0 Z " fill="#39BDC8" transform="translate(239,379)"/>
<path d="M0 0 C0.99 0.33 1.98 0.66 3 1 C0.36 3.64 -2.28 6.28 -5 9 C-5.33 8.01 -5.66 7.02 -6 6 C-4.625 4.5 -4.625 4.5 -3 3 C-2.34 3 -1.68 3 -1 3 C-0.67 2.01 -0.34 1.02 0 0 Z " fill="#CBF5F8" transform="translate(451,279)"/>
<path d="M0 0 C0.99 0.33 1.98 0.66 3 1 C0.525 5.455 0.525 5.455 -2 10 C-2.99 10 -3.98 10 -5 10 C-4.6390625 9.36191406 -4.278125 8.72382813 -3.90625 8.06640625 C-3.4421875 7.24011719 -2.978125 6.41382813 -2.5 5.5625 C-2.0359375 4.73878906 -1.571875 3.91507813 -1.09375 3.06640625 C0.07796849 1.24236475 0.07796849 1.24236475 0 0 Z " fill="#DBF0F8" transform="translate(333,243)"/>
<path d="M0 0 C0.33 1.32 0.66 2.64 1 4 C0.34 4 -0.32 4 -1 4 C-1.33 5.65 -1.66 7.3 -2 9 C-2.99 9.33 -3.98 9.66 -5 10 C-5 10.66 -5 11.32 -5 12 C-5.66 11.67 -6.32 11.34 -7 11 C-4.69 7.37 -2.38 3.74 0 0 Z " fill="#CDF9F9" transform="translate(548,230)"/>
<path d="M0 0 C0.6875 1.8125 0.6875 1.8125 1 4 C-0.3125 5.5 -0.3125 5.5 -2 7 C-3.17574711 9.09989652 -3.17574711 9.09989652 -4 11 C-4.66 11 -5.32 11 -6 11 C-4.54955729 6.89041233 -2.48889248 3.56741255 0 0 Z " fill="#D4F9FB" transform="translate(563,207)"/>
<path d="M0 0 C0.33 0.66 0.66 1.32 1 2 C-1.41556126 5.19199167 -3.68003538 7.74716687 -7 10 C-7.66 9.67 -8.32 9.34 -9 9 C-6.03 6.03 -3.06 3.06 0 0 Z " fill="#3EB9C6" transform="translate(554,176)"/>
<path d="M0 0 C2 4 2 4 1.3125 7.1875 C0.6628125 8.5796875 0.6628125 8.5796875 0 10 C-0.99 10.33 -1.98 10.66 -3 11 C-2.01 7.37 -1.02 3.74 0 0 Z " fill="#246393" transform="translate(83,128)"/>
<path d="M0 0 C0.66 0.33 1.32 0.66 2 1 C1.37619308 2.41719242 0.7508997 3.8337306 0.125 5.25 C-0.22304687 6.03890625 -0.57109375 6.8278125 -0.9296875 7.640625 C-1.90413905 9.78868608 -2.92986429 11.89829202 -4 14 C-3.66009167 8.62007164 -3.31442207 4.46726453 0 0 Z " fill="#DCF3FB" transform="translate(192,97)"/>
<path d="M0 0 C3.84280285 1.24631444 6.07319896 2.36048692 8 6 C7.5703125 8.1328125 7.5703125 8.1328125 7 10 C5.83043409 8.52312468 4.66441854 7.04343707 3.5 5.5625 C2.8503125 4.73878906 2.200625 3.91507812 1.53125 3.06640625 C0 1 0 1 0 0 Z " fill="#DDF2FA" transform="translate(347,88)"/>
<path d="M0 0 C2.31 1.98 4.62 3.96 7 6 C3 7 3 7 1 7 C0.67 4.69 0.34 2.38 0 0 Z " fill="#296797" transform="translate(296,543)"/>
<path d="M0 0 C0.66 0 1.32 0 2 0 C2 0.66 2 1.32 2 2 C2.66 2 3.32 2 4 2 C3.67 3.65 3.34 5.3 3 7 C1.35 5.35 -0.3 3.7 -2 2 C-1.34 1.34 -0.68 0.68 0 0 Z " fill="#36BFC9" transform="translate(283,506)"/>
<path d="M0 0 C4.87685861 1.35468295 6.48592381 3.71675909 9 8 C8.67 8.66 8.34 9.32 8 10 C6.66370254 8.52351062 5.33103329 7.0437367 4 5.5625 C3.2575 4.73878906 2.515 3.91507812 1.75 3.06640625 C0 1 0 1 0 0 Z " fill="#48BBC6" transform="translate(247,469)"/>
<path d="M0 0 C0.33 2.31 0.66 4.62 1 7 C-0.98 5.35 -2.96 3.7 -5 2 C-2 0 -2 0 0 0 Z " fill="#0D558F" transform="translate(117,284)"/>
<path d="M0 0 C0.33 0 0.66 0 1 0 C1.2295711 3.36704285 1.33943529 5.41370268 -0.375 8.375 C-0.91125 8.91125 -1.4475 9.4475 -2 10 C-2.66 10 -3.32 10 -4 10 C-2.8905928 6.51329166 -1.73662334 3.22515763 0 0 Z " fill="#2B6593" transform="translate(341,233)"/>
<path d="M0 0 C1.32 0 2.64 0 4 0 C2.60667426 3.36720387 1.0210714 4.9859524 -2 7 C-1.125 2.25 -1.125 2.25 0 0 Z " fill="#225E8D" transform="translate(492,179)"/>
<path d="M0 0 C0.99 0.33 1.98 0.66 3 1 C1.02 3.31 -0.96 5.62 -3 8 C-3.33 6.68 -3.66 5.36 -4 4 C-3.34 3.34 -2.68 2.68 -2 2 C-1.34 2.33 -0.68 2.66 0 3 C0 2.01 0 1.02 0 0 Z " fill="#D2F7F8" transform="translate(591,134)"/>
<path d="M0 0 C1.32 0.33 2.64 0.66 4 1 C1.69 3.31 -0.62 5.62 -3 8 C-3.33 7.01 -3.66 6.02 -4 5 C-3.34 5 -2.68 5 -2 5 C-1.34 3.35 -0.68 1.7 0 0 Z " fill="#D9FCFC" transform="translate(611,113)"/>
<path d="M0 0 C0.66 0.33 1.32 0.66 2 1 C-2.02167317 3.96837781 -5.00088076 5.52389341 -10 6 C-9.34 5.34 -8.68 4.68 -8 4 C-7.01 4 -6.02 4 -5 4 C-5 3.34 -5 2.68 -5 2 C-2.625 0.9375 -2.625 0.9375 0 0 Z " fill="#47BAC1" transform="translate(344,533)"/>
<path d="M0 0 C0.99 0 1.98 0 3 0 C3 2.31 3 4.62 3 7 C2.01 7 1.02 7 0 7 C0 4.69 0 2.38 0 0 Z " fill="#47B9C8" transform="translate(655,451)"/>
<path d="M0 0 C3.24299151 2.38957269 5.50902342 4.2047869 7 8 C5.35 7.67 3.7 7.34 2 7 C1.34 4.69 0.68 2.38 0 0 Z " fill="#246397" transform="translate(154,383)"/>
<path d="M0 0 C1.98 0.99 1.98 0.99 4 2 C4 2.66 4 3.32 4 4 C4.99 4.33 5.98 4.66 7 5 C7 5.66 7 6.32 7 7 C7.66 7 8.32 7 9 7 C8.67 7.99 8.34 8.98 8 10 C6.66370254 8.52351062 5.33103329 7.0437367 4 5.5625 C3.2575 4.73878906 2.515 3.91507812 1.75 3.06640625 C0 1 0 1 0 0 Z " fill="#3FB9C4" transform="translate(158,368)"/>
<path d="M0 0 C-0.66 1.32 -1.32 2.64 -2 4 C-3.98 3.01 -5.96 2.02 -8 1 C-8 0.67 -8 0.34 -8 0 C-4.71303767 -0.79953138 -3.28976808 -1.09658936 0 0 Z " fill="#115892" transform="translate(180,275)"/>
<path d="M0 0 C1.32 0.33 2.64 0.66 4 1 C3.19185349 2.33597652 2.37836819 3.668725 1.5625 5 C1.11003906 5.7425 0.65757812 6.485 0.19140625 7.25 C-0.20175781 7.8275 -0.59492187 8.405 -1 9 C-1.33 9 -1.66 9 -2 9 C-2.20140476 5.37471432 -1.85776765 3.13498292 0 0 Z " fill="#3FBFC4" transform="translate(588,162)"/>
<path d="M0 0 C2.31 0 4.62 0 7 0 C4.60490662 2.89932357 2.68754757 3.50168276 -1 4 C-0.67 2.68 -0.34 1.36 0 0 Z " fill="#13568B" transform="translate(240,149)"/>
<path d="M0 0 C8.19256018 0.35010941 8.19256018 0.35010941 11.5625 3.0625 C12.036875 3.701875 12.51125 4.34125 13 5 C11.39402675 4.54803755 9.79027492 4.08817673 8.1875 3.625 C6.84751953 3.24214844 6.84751953 3.24214844 5.48046875 2.8515625 C3 2 3 2 0 0 Z " fill="#336C9A" transform="translate(265,63)"/>
<path d="M0 0 C2.76390737 2.40339772 3.04065919 3.16263678 4 7 C1.36 5.35 -1.28 3.7 -4 2 C-2.68 1.34 -1.36 0.68 0 0 Z " fill="#DCF0F7" transform="translate(318,56)"/>
<path d="M0 0 C4.87362847 0.45336079 7.39042389 1.7089159 11 5 C10.67 5.66 10.34 6.32 10 7 C8.33073546 6.02526874 6.66464358 5.04510211 5 4.0625 C4.071875 3.51722656 3.14375 2.97195312 2.1875 2.41015625 C1.465625 1.94480469 0.74375 1.47945312 0 1 C0 0.67 0 0.34 0 0 Z " fill="#D1EAF5" transform="translate(303,50)"/>
<path d="M0 0 C2 0 2 0 4.5 2.375 C5.325 3.24125 6.15 4.1075 7 5 C7.66 5.66 8.32 6.32 9 7 C8.34 7.66 7.68 8.32 7 9 C5.83037314 7.69013727 4.66437056 6.3770374 3.5 5.0625 C2.8503125 4.33160156 2.200625 3.60070312 1.53125 2.84765625 C0 1 0 1 0 0 Z " fill="#43BBC2" transform="translate(174,386)"/>
<path d="M0 0 C0.99 0.33 1.98 0.66 3 1 C1.35 2.98 -0.3 4.96 -2 7 C-2.6875 5.1875 -2.6875 5.1875 -3 3 C-1.5625 1.25 -1.5625 1.25 0 0 Z " fill="#3ABCC4" transform="translate(405,329)"/>
<path d="M0 0 C2.04119788 1.61594832 4.04072937 3.2856382 6 5 C6 5.66 6 6.32 6 7 C4.125 6.6875 4.125 6.6875 2 6 C0 3 0 3 0 0 Z " fill="#D9F9FA" transform="translate(107,312)"/>
<path d="M0 0 C0.721875 0.144375 1.44375 0.28875 2.1875 0.4375 C3.5796875 0.7159375 3.5796875 0.7159375 5 1 C6.66666667 1.33333333 8.33333333 1.66666667 10 2 C10 2.99 10 3.98 10 5 C8.51800098 4.55090939 7.03944764 4.09043436 5.5625 3.625 C4.73878906 3.36976563 3.91507813 3.11453125 3.06640625 2.8515625 C1 2 1 2 0 0 Z " fill="#2B648F" transform="translate(179,279)"/>
<path d="M0 0 C3.0916909 2.52956528 3.90931332 5.22454612 5 9 C3.68 8.67 2.36 8.34 1 8 C0.67 5.36 0.34 2.72 0 0 Z " fill="#24608E" transform="translate(283,199)"/>
<path d="M0 0 C1.32 0.66 2.64 1.32 4 2 C0.535 4.97 0.535 4.97 -3 8 C-2.22404875 4.89619499 -1.4731994 2.74997221 0 0 Z " fill="#175485" transform="translate(477,195)"/>
<path d="M0 0 C2.66735273 2.48952921 4.55746343 4.63408134 6 8 C4.35 7.67 2.7 7.34 1 7 C0.67 4.69 0.34 2.38 0 0 Z " fill="#27608E" transform="translate(346,87)"/>
<path d="M0 0 C0.33 0.99 0.66 1.98 1 3 C-0.98 4.98 -2.96 6.96 -5 9 C-5.66 8.67 -6.32 8.34 -7 8 C-4.69 5.36 -2.38 2.72 0 0 Z " fill="#C9F7F9" transform="translate(357,522)"/>
<path d="M0 0 C2.64752004 2.57784846 4.94432065 4.91648098 7 8 C5.35 7.67 3.7 7.34 2 7 C1.34 4.69 0.68 2.38 0 0 Z " fill="#D4F9FA" transform="translate(249,472)"/>
<path d="M0 0 C1.32 0.33 2.64 0.66 4 1 C4 1.66 4 2.32 4 3 C4.66 3 5.32 3 6 3 C6.33 4.65 6.66 6.3 7 8 C1.125 3.375 1.125 3.375 0 0 Z " fill="#40BBC8" transform="translate(167,378)"/>
<path d="M0 0 C0.33 0.66 0.66 1.32 1 2 C0.67 2.66 0.34 3.32 0 4 C-2.64860427 4.59355614 -5.29197322 4.74209269 -8 5 C-5.44008376 2.98863724 -2.95409701 1.37154504 0 0 Z " fill="#DDF2F9" transform="translate(278,277)"/>
<path d="M0 0 C0.33 1.32 0.66 2.64 1 4 C-0.65 5.32 -2.3 6.64 -4 8 C-4.66 7.67 -5.32 7.34 -6 7 C-4.02 4.69 -2.04 2.38 0 0 Z " fill="#DAF0F8" transform="translate(517,156)"/>
<path d="M0 0 C0.66 1.32 1.32 2.64 2 4 C0.35 5.32 -1.3 6.64 -3 8 C-3 4.42424104 -1.91159393 2.94704065 0 0 Z " fill="#DEFCFD" transform="translate(627,107)"/>
<path d="M0 0 C2.31 1.98 4.62 3.96 7 6 C6.67 6.66 6.34 7.32 6 8 C3.5625 6.8125 3.5625 6.8125 1 5 C0.1875 2.3125 0.1875 2.3125 0 0 Z " fill="#1F5B89" transform="translate(250,88)"/>
<path d="M0 0 C2.31 0.66 4.62 1.32 7 2 C6.34 3.32 5.68 4.64 5 6 C3.31237149 4.3545622 1.6459651 2.68711423 0 1 C0 0.67 0 0.34 0 0 Z " fill="#3EBCC9" transform="translate(286,513)"/>
<path d="M0 0 C3.40320742 1.01176437 4.75725331 1.64843582 6.8125 4.625 C7.204375 5.40875 7.59625 6.1925 8 7 C7.01 7 6.02 7 5 7 C3.61328125 5.46875 3.61328125 5.46875 2.3125 3.5 C1.87550781 2.8503125 1.43851563 2.200625 0.98828125 1.53125 C0.49908203 0.77328125 0.49908203 0.77328125 0 0 Z " fill="#47BEC6" transform="translate(240,461)"/>
<path d="M0 0 C2.375 0.25 2.375 0.25 5 1 C6.375 2.875 6.375 2.875 7 5 C6.67 5.99 6.34 6.98 6 8 C4.02 5.36 2.04 2.72 0 0 Z " fill="#3EBCC5" transform="translate(216,434)"/>
<path d="M0 0 C1.32 0 2.64 0 4 0 C5.8125 1.8125 5.8125 1.8125 7 4 C6.67 4.99 6.34 5.98 6 7 C4.02 4.69 2.04 2.38 0 0 Z " fill="#D6E9F7" transform="translate(159,388)"/>
<path d="M0 0 C1.65 0 3.3 0 5 0 C6 3 6 3 5 6 C3.35 4.02 1.7 2.04 0 0 Z " fill="#E7F6FC" transform="translate(136,363)"/>
<path d="M0 0 C2.64752004 2.57784846 4.94432065 4.91648098 7 8 C4.50638429 6.79618552 2.31856917 5.54571278 0 4 C0 2.68 0 1.36 0 0 Z " fill="#D0F5F8" transform="translate(118,324)"/>
<path d="M0 0 C-1.75 3.875 -1.75 3.875 -4 5 C-4.99 4.34 -5.98 3.68 -7 3 C-2.25 0 -2.25 0 0 0 Z " fill="#31BEC8" transform="translate(479,257)"/>
<path d="M0 0 C0.66 0.33 1.32 0.66 2 1 C1.46930939 4.82097239 0.50298434 7.06171403 -2 10 C-2.22036864 6.14354879 -1.60355101 3.50776784 0 0 Z " fill="#2B6493" transform="translate(364,246)"/>
<path d="M0 0 C0.66 1.32 1.32 2.64 2 4 C0.68 5.32 -0.64 6.64 -2 8 C-1.125 1.125 -1.125 1.125 0 0 Z " fill="#185F96" transform="translate(514,154)"/>
<path d="M0 0 C0 0.33 0 0.66 0 1 C-1.62171239 1.38897161 -3.24754925 1.76078298 -4.875 2.125 C-5.77992188 2.33382812 -6.68484375 2.54265625 -7.6171875 2.7578125 C-8.40351563 2.83773437 -9.18984375 2.91765625 -10 3 C-10.66 2.34 -11.32 1.68 -12 1 C-8.0186217 -0.3271261 -4.14954773 -0.06915913 0 0 Z " fill="#C1DCEB" transform="translate(218,58)"/>
<path d="M0 0 C0.99 0.33 1.98 0.66 3 1 C1.02 3.97 1.02 3.97 -1 7 C-1.66 5.68 -2.32 4.36 -3 3 C-2.01 3 -1.02 3 0 3 C0 2.01 0 1.02 0 0 Z " fill="#3BBCC5" transform="translate(354,521)"/>
<path d="M0 0 C2.64752004 2.57784846 4.94432065 4.91648098 7 8 C5.35 7.67 3.7 7.34 2 7 C1.34 4.69 0.68 2.38 0 0 Z " fill="#CDF8FA" transform="translate(234,455)"/>
<path d="M0 0 C0.66 0 1.32 0 2 0 C2 0.66 2 1.32 2 2 C2.99 2 3.98 2 5 2 C5.66 3.98 6.32 5.96 7 8 C1.125 3.375 1.125 3.375 0 0 Z " fill="#43B6C5" transform="translate(191,405)"/>
<path d="M0 0 C0.99 0.66 1.98 1.32 3 2 C0.03 4.475 0.03 4.475 -3 7 C-3.33 6.01 -3.66 5.02 -4 4 C-2.68 2.68 -1.36 1.36 0 0 Z " fill="#D9F9FA" transform="translate(373,358)"/>
<path d="M0 0 C2.475 0.495 2.475 0.495 5 1 C5 2.65 5 4.3 5 6 C3.31237149 4.3545622 1.6459651 2.68711423 0 1 C0 0.67 0 0.34 0 0 Z " fill="#3DBCC4" transform="translate(121,326)"/>
<path d="M0 0 C3.96 1.98 3.96 1.98 8 4 C8 4.33 8 4.66 8 5 C6.35 5 4.7 5 3 5 C3 4.34 3 3.68 3 3 C2.01 2.67 1.02 2.34 0 2 C0 1.34 0 0.68 0 0 Z " fill="#41BBC6" transform="translate(118,316)"/>
<path d="M0 0 C0.99 0.33 1.98 0.66 3 1 C-0.465 3.97 -0.465 3.97 -4 7 C-3.67 5.68 -3.34 4.36 -3 3 C-2.34 3 -1.68 3 -1 3 C-0.67 2.01 -0.34 1.02 0 0 Z " fill="#DCFCFE" transform="translate(432,298)"/>
<path d="M0 0 C2.475 0.99 2.475 0.99 5 2 C4.67 2.99 4.34 3.98 4 5 C2.68 4.67 1.36 4.34 0 4 C0 2.68 0 1.36 0 0 Z " fill="#145994" transform="translate(162,289)"/>
<path d="M0 0 C0 0.66 0 1.32 0 2 C-2.25 3.125 -2.25 3.125 -5 4 C-7.3125 3.125 -7.3125 3.125 -9 2 C-3.375 0 -3.375 0 0 0 Z " fill="#D7EDF7" transform="translate(262,285)"/>
<path d="M0 0 C1 3 1 3 -0.4375 6.1875 C-1.2109375 7.5796875 -1.2109375 7.5796875 -2 9 C-2.66 9 -3.32 9 -4 9 C-2.80100302 5.9168649 -1.52299523 2.93720508 0 0 Z " fill="#E1F5FB" transform="translate(363,254)"/>
<path d="M0 0 C0.33 0.66 0.66 1.32 1 2 C-0.32 3.65 -1.64 5.3 -3 7 C-3.99 6.67 -4.98 6.34 -6 6 C-4.02 4.02 -2.04 2.04 0 0 Z " fill="#54C0CC" transform="translate(500,231)"/>
<path d="M0 0 C0.33 0 0.66 0 1 0 C1.36923077 5.53846154 1.36923077 5.53846154 -0.5 7.875 C-1.2425 8.431875 -1.2425 8.431875 -2 9 C-2.33 8.34 -2.66 7.68 -3 7 C-2.06421005 4.64018187 -1.06652192 2.30368736 0 0 Z " fill="#2C6597" transform="translate(167,201)"/>
<path d="M0 0 C0.66 0.66 1.32 1.32 2 2 C-0.3125 4.0625 -0.3125 4.0625 -3 6 C-3.99 5.67 -4.98 5.34 -6 5 C-4.02 3.35 -2.04 1.7 0 0 Z " fill="#32BAC4" transform="translate(595,135)"/>
<path d="M0 0 C0 3.90838866 -1.50567876 5.11594107 -4 8 C-4.66 7.34 -5.32 6.68 -6 6 C-4.02 4.02 -2.04 2.04 0 0 Z " fill="#7AC3CA" transform="translate(637,90)"/>
<path d="M0 0 C0.66 0.99 1.32 1.98 2 3 C-0.35953094 5.35953094 -1.77895617 5.49141413 -5 6 C-3.35 4.02 -1.7 2.04 0 0 Z " fill="#E3F6FD" transform="translate(142,91)"/>
</svg>
