<svg width="517" height="380" viewBox="0 0 517 380" fill="none" xmlns="http://www.w3.org/2000/svg">
<rect x="12.9795" width="232.228" height="139.004" rx="10" transform="rotate(2.87806 12.9795 0)" fill="#9DE7EC"/>
<rect x="215" y="215.062" width="279" height="167" rx="10" transform="rotate(-6.39207 215 215.062)" fill="#B6B9FC"/>
<rect x="361.95" y="12.4238" width="125.871" height="125.871" stroke="#101E64" stroke-width="1.57997" stroke-dasharray="3.16 3.16"/>
<rect x="484.666" y="9.79486" width="5.84307" height="5.84307" fill="white" stroke="#101E64" stroke-width="1.58923"/>
<rect x="358.795" y="9.79511" width="5.84307" height="5.84307" fill="white" stroke="#101E64" stroke-width="1.58923"/>
<rect x="421.993" y="9.79535" width="5.84307" height="5.84307" fill="white" stroke="#101E64" stroke-width="1.58923"/>
<rect x="421.993" y="135.14" width="5.84307" height="5.84307" fill="white" stroke="#101E64" stroke-width="1.58923"/>
<rect x="358.795" y="72.4672" width="5.78397" height="5.78397" fill="white" stroke="#101E64" stroke-width="1.58923"/>
<rect x="484.666" y="72.467" width="5.78397" height="5.78397" fill="white" stroke="#101E64" stroke-width="1.58923"/>
<rect x="484.666" y="135.139" width="5.84307" height="5.84307" fill="white" stroke="#101E64" stroke-width="1.58923"/>
<rect x="358.795" y="135.14" width="5.84307" height="5.84307" fill="white" stroke="#101E64" stroke-width="1.58923"/>
<path d="M424.885 68.512V82.2051" stroke="#101E64" stroke-width="1.57997"/>
<path d="M431.732 75.3586L418.038 75.3586" stroke="#101E64" stroke-width="1.57997"/>
<g filter="url(#filter0_d_8602_3374)">
<g clip-path="url(#clip0_8602_3374)">
<rect x="45.1558" y="38" width="414.344" height="286.489" rx="7.89227" fill="white"/>
<rect x="45.1558" y="38" width="414.344" height="21.8998" fill="#F5F5FF"/>
<circle cx="59.1716" cy="49.388" r="4.37996" fill="#FF584E"/>
<circle cx="73.1875" cy="49.388" r="4.37996" fill="#FFA15C"/>
<circle cx="87.2033" cy="49.388" r="4.37996" fill="#73D463"/>
<g filter="url(#filter1_d_8602_3374)">
<g clip-path="url(#clip1_8602_3374)">
<rect x="266.782" y="96.6914" width="153.299" height="198.64" rx="5.39784" fill="white"/>
<rect x="266.782" y="96.6914" width="57.2171" height="185.146" fill="#FAEFEF"/>
<rect x="266.782" y="96.6914" width="153.299" height="52.359" fill="#FCF7F7"/>
<rect x="266.782" y="96.6914" width="57.2171" height="198.64" fill="#FAEFEF"/>
<rect x="266.782" y="96.6914" width="57.2171" height="52.359" fill="#F2D8D6"/>
<rect x="278.657" y="116.664" width="17.8129" height="4.85805" fill="#BEA8B0"/>
<rect x="278.657" y="124.76" width="32.9268" height="4.85805" fill="#BEA8B0"/>
<rect x="338.033" y="116.665" width="50.4603" height="3.47692" fill="#E0D8DD"/>
<rect x="278.657" y="167.942" width="27.529" height="3.47692" fill="#E0D8DD"/>
<rect x="278.657" y="225.16" width="27.529" height="3.47692" fill="#E0D8DD"/>
<rect x="338.034" y="124.76" width="68.0126" height="1.32361" fill="#E0D8DD"/>
<path d="M338.034 130.055H372.58V131.378H338.034V130.055Z" fill="#E0D8DD"/>
<rect x="278.657" y="180.357" width="35.6256" height="1.32361" fill="#E0D8DD"/>
<rect x="278.657" y="185.652" width="35.6256" height="1.32361" fill="#E0D8DD"/>
<rect x="278.657" y="191.609" width="35.6256" height="1.32361" fill="#E0D8DD"/>
<rect x="278.657" y="196.903" width="35.6256" height="1.32361" fill="#E0D8DD"/>
<path d="M278.657 202.86H289.967V204.183H278.657V202.86Z" fill="#E0D8DD"/>
<rect x="278.657" y="237.575" width="35.6256" height="1.32361" fill="#E0D8DD"/>
<rect x="278.657" y="242.87" width="35.6256" height="1.32361" fill="#E0D8DD"/>
<rect x="278.657" y="248.827" width="35.6256" height="1.32361" fill="#E0D8DD"/>
<rect x="278.657" y="254.121" width="35.6256" height="1.32361" fill="#E0D8DD"/>
<path d="M278.657 260.078H289.967V261.401H278.657V260.078Z" fill="#E0D8DD"/>
<rect x="338.034" y="167.943" width="68.0126" height="1.32361" fill="#E0D8DD"/>
<rect x="338.034" y="173.238" width="68.0126" height="1.32361" fill="#E0D8DD"/>
<rect x="338.034" y="179.194" width="68.0126" height="1.32361" fill="#E0D8DD"/>
<rect x="338.034" y="184.489" width="68.0126" height="1.32361" fill="#E0D8DD"/>
<rect x="338.034" y="190.446" width="68.0126" height="1.32361" fill="#E0D8DD"/>
<path d="M338.034 195.738H378.474V197.061H338.034V195.738Z" fill="#E0D8DD"/>
<rect x="338.034" y="208.937" width="68.0126" height="1.32361" fill="#E0D8DD"/>
<rect x="338.034" y="214.231" width="68.0126" height="1.32361" fill="#E0D8DD"/>
<rect x="338.034" y="220.188" width="68.0126" height="1.32361" fill="#E0D8DD"/>
<rect x="338.034" y="225.482" width="68.0126" height="1.32361" fill="#E0D8DD"/>
<path d="M338.034 231.439H359.625V232.763H338.034V231.439Z" fill="#E0D8DD"/>
<rect x="338.034" y="244.638" width="68.0126" height="1.32361" fill="#E0D8DD"/>
<rect x="338.034" y="249.932" width="68.0126" height="1.32361" fill="#E0D8DD"/>
<rect x="338.034" y="255.889" width="68.0126" height="1.32361" fill="#E0D8DD"/>
<rect x="338.034" y="261.183" width="68.0126" height="1.32361" fill="#E0D8DD"/>
<rect x="338.034" y="267.14" width="68.0126" height="1.32361" fill="#E0D8DD"/>
<path d="M338.034 272.167H401.188V273.786H338.034V272.167Z" fill="#E0D8DD"/>
</g>
</g>
<g clip-path="url(#clip2_8602_3374)">
<path d="M442.565 191.158C442.475 190.789 440.255 182.065 438.263 177.971C436.403 174.156 435.78 172.868 433.223 169.722C431.363 167.423 429.527 166.23 427.903 166.23C427.292 166.23 426.713 166.398 426.172 166.74C425.205 167.355 424.678 167.988 424.339 168.483C423.582 167.882 422.606 167.392 421.535 167.392C420.904 167.392 420.239 167.562 419.567 167.979C418.536 168.619 418.029 169.382 417.743 170.047C417.254 169.697 416.663 169.398 415.998 169.267C415.765 169.222 415.533 169.2 415.301 169.2C414.512 169.2 413.735 169.458 413.013 169.964C412.354 170.424 411.831 170.871 411.433 171.298L407.361 165.506C406.725 164.601 405.817 164.143 404.787 164.143C403.903 164.143 402.928 164.48 401.956 165.161C400.03 166.515 399.498 168.627 400.667 170.288L410.567 184.369C409.847 184.187 409.071 184.061 408.307 184.059C407.609 184.059 406.922 184.167 406.297 184.435C405.756 184.668 405.277 184.927 404.876 185.214C403.009 186.523 402.92 188.143 403.455 189.222C404.222 190.773 408.502 192.322 409.019 192.503C409.379 192.66 412.912 194.214 418.117 196.983C422.829 199.493 424.284 200.653 425.082 201.453L426.616 203L442.739 191.839L442.565 191.158ZM426.851 200.374L426.513 200.034C425.563 199.079 424.001 197.832 419.064 195.202C413.509 192.245 409.817 190.649 409.78 190.633C409.572 190.543 405.62 188.849 405.257 188.316C404.968 187.708 405.706 187.101 406.037 186.868C406.328 186.663 406.679 186.45 407.102 186.294C407.445 186.165 407.811 186.109 408.188 186.109C410.55 186.109 413.187 188.189 413.326 188.299L414.976 187.138L402.317 169.132C401.555 168.045 402.741 167.085 403.123 166.818C403.54 166.523 404.172 166.161 404.755 166.161C405.112 166.161 405.451 166.298 405.712 166.666L415.902 181.162L417.552 180.002L412.645 173.02C412.767 172.815 413.131 172.351 414.179 171.617C414.558 171.35 414.929 171.218 415.3 171.218C415.401 171.218 415.503 171.228 415.606 171.248C416.589 171.436 417.907 172.847 418.207 173.266L421.16 177.47L422.814 176.314L419.449 171.531C419.452 171.097 419.68 170.267 420.672 169.674C420.961 169.499 421.252 169.428 421.532 169.428C422.739 169.428 423.767 170.738 423.82 170.805L424.59 171.765L427.332 175.661L428.983 174.505L425.8 169.976C425.996 169.603 426.383 168.926 427.243 168.459C427.44 168.352 427.655 168.302 427.88 168.302C429.034 168.302 430.508 169.574 431.657 170.99C434.064 173.959 434.568 174.993 436.444 178.853C438.04 182.122 439.867 188.829 440.435 190.974L426.851 200.374Z" fill="#101E64"/>
<path d="M440.436 190.974L426.852 200.375L426.513 200.034C425.564 199.079 424.002 197.832 419.064 195.203C413.51 192.246 409.818 190.649 409.78 190.633C409.572 190.544 405.621 188.849 405.257 188.316C404.969 187.708 405.706 187.101 406.037 186.868C406.329 186.663 406.68 186.45 407.102 186.294C407.446 186.165 407.812 186.109 408.188 186.109C410.55 186.109 413.188 188.189 413.326 188.3L414.977 187.138L402.318 169.132C401.555 168.045 402.742 167.085 403.124 166.819C403.54 166.524 404.173 166.162 404.755 166.162C405.112 166.162 405.452 166.298 405.712 166.666L415.903 181.162L417.553 180.002L412.646 173.02C412.767 172.815 413.132 172.352 414.179 171.618C414.559 171.35 414.93 171.219 415.3 171.219C415.402 171.219 415.504 171.228 415.606 171.248C416.59 171.437 417.908 172.848 418.208 173.267L421.161 177.471L422.815 176.314L419.45 171.531C419.453 171.097 419.681 170.268 420.673 169.674C420.961 169.499 421.253 169.428 421.533 169.428C422.739 169.428 423.767 170.739 423.821 170.806L424.59 171.765L427.333 175.662L428.983 174.505L425.801 169.976C425.996 169.603 426.383 168.926 427.244 168.459C427.441 168.352 427.655 168.303 427.881 168.303C429.034 168.303 430.508 169.575 431.658 170.99C434.064 173.96 434.569 174.994 436.445 178.853C438.04 182.122 439.868 188.829 440.436 190.974Z" fill="white"/>
</g>
<rect x="77.5675" y="172.027" width="146.291" height="20.1478" rx="1.75198" fill="#EBEEFA"/>
<rect x="77.5675" y="197.431" width="146.291" height="20.1478" rx="1.75198" fill="#EBEEFA"/>
<rect x="77.5675" y="223.71" width="146.291" height="20.1478" rx="1.75198" fill="#EBEEFA"/>
<rect x="77.5675" y="249.114" width="146.291" height="20.1478" rx="1.75198" fill="#EBEEFA"/>
<rect x="77.5675" y="275.394" width="146.291" height="20.1478" rx="1.75198" fill="#EBEEFA"/>
<rect x="77.5675" y="96.6914" width="146.291" height="20.1478" rx="1.75198" fill="#EBEEFA"/>
<rect x="77.5675" y="122.095" width="146.291" height="20.1478" rx="1.75198" fill="#EBEEFA"/>
</g>
</g>
<g filter="url(#filter2_d_8602_3374)">
<rect x="18" y="184.291" width="188.338" height="51.8728" rx="3.7678" fill="#FCFCFC"/>
</g>
<circle cx="44.7344" cy="210.227" r="13.9658" fill="#1E275E"/>
<path d="M44.7345 204.242V216.212" stroke="#FCFCFC" stroke-width="1.71009"/>
<path d="M50.7197 210.227L38.7491 210.227" stroke="#FCFCFC" stroke-width="1.71009"/>
<path d="M77.8334 207.858V200.595H82.3256V201.311H78.7049V203.843H82.0143V204.548H78.7049V207.142H82.3256V207.858H77.8334ZM82.9214 207.858L84.6954 205.243L82.9214 202.629H83.8758L85.2868 204.766L86.7185 202.629H87.6522L85.8781 205.243L87.6522 207.858H86.7185L85.2868 205.71L83.8758 207.858H82.9214ZM90.4493 207.982C89.9582 207.982 89.5225 207.868 89.1421 207.64C88.7686 207.412 88.4746 207.093 88.2602 206.685C88.0458 206.27 87.9386 205.79 87.9386 205.243C87.9386 204.69 88.0424 204.209 88.2499 203.801C88.4643 203.393 88.7617 203.075 89.1421 202.847C89.5294 202.619 89.972 202.504 90.47 202.504C90.9818 202.504 91.4141 202.619 91.7668 202.847C92.1265 203.075 92.3997 203.376 92.5864 203.749C92.7801 204.116 92.8769 204.521 92.8769 204.963C92.8769 205.032 92.8769 205.105 92.8769 205.181C92.8769 205.257 92.8735 205.344 92.8665 205.44H88.5922V204.766H92.0262C92.0055 204.289 91.8464 203.915 91.549 203.646C91.2585 203.376 90.8919 203.241 90.4493 203.241C90.1519 203.241 89.8752 203.31 89.6193 203.448C89.3703 203.58 89.1697 203.777 89.0176 204.04C88.8654 204.296 88.7893 204.617 88.7893 205.005V205.295C88.7893 205.724 88.8654 206.084 89.0176 206.374C89.1767 206.665 89.3807 206.882 89.6297 207.028C89.8856 207.173 90.1588 207.246 90.4493 207.246C90.8158 207.246 91.1167 207.166 91.3519 207.007C91.5939 206.841 91.7668 206.62 91.8706 206.343H92.7317C92.6487 206.654 92.5034 206.934 92.2959 207.183C92.0884 207.432 91.8291 207.629 91.5178 207.775C91.2135 207.913 90.8573 207.982 90.4493 207.982ZM96.2005 207.982C95.7094 207.982 95.2668 207.868 94.8726 207.64C94.4852 207.412 94.1809 207.093 93.9596 206.685C93.7383 206.27 93.6276 205.793 93.6276 205.254C93.6276 204.7 93.7383 204.22 93.9596 203.812C94.1809 203.404 94.4852 203.085 94.8726 202.857C95.2668 202.622 95.7094 202.504 96.2005 202.504C96.823 202.504 97.3417 202.667 97.7567 202.992C98.1717 203.31 98.4345 203.739 98.5452 204.278H97.6529C97.5838 203.953 97.4143 203.701 97.1446 203.521C96.8749 203.341 96.5567 203.251 96.1901 203.251C95.8927 203.251 95.6161 203.327 95.3602 203.48C95.1043 203.625 94.9002 203.846 94.7481 204.144C94.5959 204.441 94.5198 204.808 94.5198 205.243C94.5198 205.568 94.5648 205.859 94.6547 206.115C94.7446 206.364 94.8656 206.571 95.0178 206.737C95.17 206.903 95.3463 207.031 95.5469 207.121C95.7544 207.204 95.9688 207.246 96.1901 207.246C96.4391 207.246 96.6639 207.208 96.8645 207.131C97.0651 207.048 97.2345 206.927 97.3728 206.768C97.5112 206.609 97.6045 206.423 97.6529 206.208H98.5452C98.4345 206.734 98.1682 207.163 97.7463 207.495C97.3313 207.82 96.8161 207.982 96.2005 207.982ZM101.474 207.982C101.072 207.982 100.72 207.903 100.415 207.744C100.118 207.584 99.8862 207.339 99.7202 207.007C99.5612 206.675 99.4816 206.26 99.4816 205.762V202.629H100.353V205.669C100.353 206.187 100.467 206.578 100.695 206.841C100.924 207.104 101.245 207.235 101.66 207.235C101.951 207.235 102.214 207.166 102.449 207.028C102.684 206.882 102.867 206.678 102.999 206.416C103.137 206.146 103.206 205.817 103.206 205.43V202.629H104.078V207.858H103.289L103.237 206.945C103.078 207.27 102.843 207.526 102.532 207.712C102.221 207.892 101.868 207.982 101.474 207.982ZM107.369 207.858C107.058 207.858 106.788 207.809 106.56 207.712C106.331 207.616 106.155 207.453 106.03 207.225C105.913 206.99 105.854 206.675 105.854 206.281V203.365H104.941V202.629H105.854L105.968 201.363H106.726V202.629H108.24V203.365H106.726V206.281C106.726 206.606 106.791 206.827 106.923 206.945C107.054 207.055 107.286 207.111 107.618 207.111H108.178V207.858H107.369ZM111.321 207.982C110.83 207.982 110.394 207.868 110.014 207.64C109.64 207.412 109.346 207.093 109.132 206.685C108.917 206.27 108.81 205.79 108.81 205.243C108.81 204.69 108.914 204.209 109.121 203.801C109.336 203.393 109.633 203.075 110.014 202.847C110.401 202.619 110.844 202.504 111.342 202.504C111.853 202.504 112.286 202.619 112.638 202.847C112.998 203.075 113.271 203.376 113.458 203.749C113.652 204.116 113.748 204.521 113.748 204.963C113.748 205.032 113.748 205.105 113.748 205.181C113.748 205.257 113.745 205.344 113.738 205.44H109.464V204.766H112.898C112.877 204.289 112.718 203.915 112.42 203.646C112.13 203.376 111.763 203.241 111.321 203.241C111.023 203.241 110.747 203.31 110.491 203.448C110.242 203.58 110.041 203.777 109.889 204.04C109.737 204.296 109.661 204.617 109.661 205.005V205.295C109.661 205.724 109.737 206.084 109.889 206.374C110.048 206.665 110.252 206.882 110.501 207.028C110.757 207.173 111.03 207.246 111.321 207.246C111.687 207.246 111.988 207.166 112.223 207.007C112.465 206.841 112.638 206.62 112.742 206.343H113.603C113.52 206.654 113.375 206.934 113.167 207.183C112.96 207.432 112.701 207.629 112.389 207.775C112.085 207.913 111.729 207.982 111.321 207.982ZM117.02 207.982C116.515 207.982 116.073 207.865 115.692 207.629C115.312 207.387 115.018 207.059 114.81 206.644C114.603 206.229 114.499 205.759 114.499 205.233C114.499 204.707 114.603 204.24 114.81 203.832C115.018 203.417 115.312 203.092 115.692 202.857C116.08 202.622 116.526 202.504 117.031 202.504C117.459 202.504 117.833 202.591 118.151 202.764C118.476 202.937 118.725 203.179 118.898 203.49V200.388H119.769V207.858H118.981L118.908 206.997C118.798 207.169 118.656 207.332 118.483 207.484C118.31 207.629 118.103 207.75 117.86 207.847C117.618 207.937 117.338 207.982 117.02 207.982ZM117.124 207.225C117.47 207.225 117.774 207.142 118.037 206.976C118.3 206.81 118.504 206.582 118.649 206.291C118.794 205.994 118.867 205.644 118.867 205.243C118.867 204.849 118.794 204.503 118.649 204.206C118.504 203.908 118.3 203.677 118.037 203.511C117.774 203.345 117.47 203.262 117.124 203.262C116.785 203.262 116.484 203.345 116.221 203.511C115.958 203.677 115.754 203.908 115.609 204.206C115.464 204.503 115.391 204.849 115.391 205.243C115.391 205.644 115.464 205.994 115.609 206.291C115.754 206.582 115.958 206.81 116.221 206.976C116.484 207.142 116.785 207.225 117.124 207.225ZM125.533 207.982C125.098 207.982 124.717 207.91 124.392 207.764C124.074 207.619 123.818 207.418 123.624 207.163C123.438 206.9 123.324 206.592 123.282 206.239H124.174C124.209 206.419 124.281 206.585 124.392 206.737C124.503 206.889 124.651 207.014 124.838 207.111C125.032 207.201 125.267 207.246 125.544 207.246C125.786 207.246 125.986 207.211 126.145 207.142C126.304 207.066 126.422 206.965 126.498 206.841C126.581 206.716 126.623 206.582 126.623 206.436C126.623 206.222 126.571 206.059 126.467 205.949C126.37 205.838 126.225 205.752 126.031 205.689C125.838 205.62 125.602 205.561 125.326 205.513C125.098 205.472 124.873 205.416 124.651 205.347C124.43 205.278 124.233 205.188 124.06 205.077C123.887 204.96 123.749 204.818 123.645 204.652C123.548 204.486 123.5 204.282 123.5 204.04C123.5 203.742 123.576 203.48 123.728 203.251C123.88 203.016 124.098 202.833 124.382 202.702C124.672 202.57 125.008 202.504 125.388 202.504C125.948 202.504 126.401 202.639 126.747 202.909C127.093 203.179 127.297 203.57 127.359 204.081H126.498C126.464 203.819 126.349 203.614 126.156 203.469C125.969 203.317 125.71 203.241 125.378 203.241C125.053 203.241 124.804 203.307 124.631 203.438C124.465 203.57 124.382 203.742 124.382 203.957C124.382 204.095 124.427 204.22 124.517 204.33C124.613 204.434 124.752 204.524 124.932 204.6C125.118 204.676 125.347 204.738 125.616 204.787C125.962 204.849 126.277 204.932 126.56 205.036C126.844 205.14 127.072 205.295 127.245 205.503C127.425 205.703 127.515 205.99 127.515 206.364C127.515 206.689 127.432 206.972 127.266 207.214C127.107 207.457 126.879 207.647 126.581 207.785C126.284 207.916 125.934 207.982 125.533 207.982ZM130.461 207.982C130.06 207.982 129.707 207.903 129.403 207.744C129.105 207.584 128.873 207.339 128.707 207.007C128.548 206.675 128.469 206.26 128.469 205.762V202.629H129.34V205.669C129.34 206.187 129.454 206.578 129.683 206.841C129.911 207.104 130.232 207.235 130.647 207.235C130.938 207.235 131.201 207.166 131.436 207.028C131.671 206.882 131.854 206.678 131.986 206.416C132.124 206.146 132.193 205.817 132.193 205.43V202.629H133.065V207.858H132.276L132.224 206.945C132.065 207.27 131.83 207.526 131.519 207.712C131.208 207.892 130.855 207.982 130.461 207.982ZM136.657 207.982C136.166 207.982 135.723 207.868 135.329 207.64C134.942 207.412 134.637 207.093 134.416 206.685C134.195 206.27 134.084 205.793 134.084 205.254C134.084 204.7 134.195 204.22 134.416 203.812C134.637 203.404 134.942 203.085 135.329 202.857C135.723 202.622 136.166 202.504 136.657 202.504C137.279 202.504 137.798 202.667 138.213 202.992C138.628 203.31 138.891 203.739 139.002 204.278H138.109C138.04 203.953 137.871 203.701 137.601 203.521C137.331 203.341 137.013 203.251 136.646 203.251C136.349 203.251 136.072 203.327 135.817 203.48C135.561 203.625 135.357 203.846 135.204 204.144C135.052 204.441 134.976 204.808 134.976 205.243C134.976 205.568 135.021 205.859 135.111 206.115C135.201 206.364 135.322 206.571 135.474 206.737C135.626 206.903 135.803 207.031 136.003 207.121C136.211 207.204 136.425 207.246 136.646 207.246C136.895 207.246 137.12 207.208 137.321 207.131C137.521 207.048 137.691 206.927 137.829 206.768C137.968 206.609 138.061 206.423 138.109 206.208H139.002C138.891 206.734 138.625 207.163 138.203 207.495C137.788 207.82 137.272 207.982 136.657 207.982ZM142.386 207.982C141.895 207.982 141.453 207.868 141.058 207.64C140.671 207.412 140.367 207.093 140.145 206.685C139.924 206.27 139.813 205.793 139.813 205.254C139.813 204.7 139.924 204.22 140.145 203.812C140.367 203.404 140.671 203.085 141.058 202.857C141.453 202.622 141.895 202.504 142.386 202.504C143.009 202.504 143.528 202.667 143.943 202.992C144.358 203.31 144.62 203.739 144.731 204.278H143.839C143.77 203.953 143.6 203.701 143.33 203.521C143.061 203.341 142.743 203.251 142.376 203.251C142.079 203.251 141.802 203.327 141.546 203.48C141.29 203.625 141.086 203.846 140.934 204.144C140.782 204.441 140.706 204.808 140.706 205.243C140.706 205.568 140.751 205.859 140.841 206.115C140.93 206.364 141.052 206.571 141.204 206.737C141.356 206.903 141.532 207.031 141.733 207.121C141.94 207.204 142.155 207.246 142.376 207.246C142.625 207.246 142.85 207.208 143.05 207.131C143.251 207.048 143.42 206.927 143.559 206.768C143.697 206.609 143.79 206.423 143.839 206.208H144.731C144.62 206.734 144.354 207.163 143.932 207.495C143.517 207.82 143.002 207.982 142.386 207.982ZM148.054 207.982C147.563 207.982 147.127 207.868 146.746 207.64C146.373 207.412 146.079 207.093 145.865 206.685C145.65 206.27 145.543 205.79 145.543 205.243C145.543 204.69 145.647 204.209 145.854 203.801C146.069 203.393 146.366 203.075 146.746 202.847C147.134 202.619 147.576 202.504 148.074 202.504C148.586 202.504 149.018 202.619 149.371 202.847C149.731 203.075 150.004 203.376 150.191 203.749C150.384 204.116 150.481 204.521 150.481 204.963C150.481 205.032 150.481 205.105 150.481 205.181C150.481 205.257 150.478 205.344 150.471 205.44H146.197V204.766H149.631C149.61 204.289 149.451 203.915 149.153 203.646C148.863 203.376 148.496 203.241 148.054 203.241C147.756 203.241 147.48 203.31 147.224 203.448C146.975 203.58 146.774 203.777 146.622 204.04C146.47 204.296 146.394 204.617 146.394 205.005V205.295C146.394 205.724 146.47 206.084 146.622 206.374C146.781 206.665 146.985 206.882 147.234 207.028C147.49 207.173 147.763 207.246 148.054 207.246C148.42 207.246 148.721 207.166 148.956 207.007C149.198 206.841 149.371 206.62 149.475 206.343H150.336C150.253 206.654 150.108 206.934 149.9 207.183C149.693 207.432 149.433 207.629 149.122 207.775C148.818 207.913 148.462 207.982 148.054 207.982ZM153.421 207.982C152.985 207.982 152.605 207.91 152.28 207.764C151.962 207.619 151.706 207.418 151.512 207.163C151.325 206.9 151.211 206.592 151.17 206.239H152.062C152.097 206.419 152.169 206.585 152.28 206.737C152.39 206.889 152.539 207.014 152.726 207.111C152.92 207.201 153.155 207.246 153.431 207.246C153.673 207.246 153.874 207.211 154.033 207.142C154.192 207.066 154.31 206.965 154.386 206.841C154.469 206.716 154.51 206.582 154.51 206.436C154.51 206.222 154.458 206.059 154.355 205.949C154.258 205.838 154.113 205.752 153.919 205.689C153.725 205.62 153.49 205.561 153.214 205.513C152.985 205.472 152.761 205.416 152.539 205.347C152.318 205.278 152.121 205.188 151.948 205.077C151.775 204.96 151.637 204.818 151.533 204.652C151.436 204.486 151.388 204.282 151.388 204.04C151.388 203.742 151.464 203.48 151.616 203.251C151.768 203.016 151.986 202.833 152.269 202.702C152.56 202.57 152.895 202.504 153.276 202.504C153.836 202.504 154.289 202.639 154.635 202.909C154.981 203.179 155.185 203.57 155.247 204.081H154.386C154.351 203.819 154.237 203.614 154.043 203.469C153.857 203.317 153.597 203.241 153.265 203.241C152.94 203.241 152.691 203.307 152.518 203.438C152.352 203.57 152.269 203.742 152.269 203.957C152.269 204.095 152.314 204.22 152.404 204.33C152.501 204.434 152.639 204.524 152.819 204.6C153.006 204.676 153.234 204.738 153.504 204.787C153.85 204.849 154.165 204.932 154.448 205.036C154.732 205.14 154.96 205.295 155.133 205.503C155.313 205.703 155.403 205.99 155.403 206.364C155.403 206.689 155.32 206.972 155.154 207.214C154.994 207.457 154.766 207.647 154.469 207.785C154.171 207.916 153.822 207.982 153.421 207.982ZM158.421 207.982C157.985 207.982 157.605 207.91 157.28 207.764C156.962 207.619 156.706 207.418 156.512 207.163C156.325 206.9 156.211 206.592 156.17 206.239H157.062C157.097 206.419 157.169 206.585 157.28 206.737C157.391 206.889 157.539 207.014 157.726 207.111C157.92 207.201 158.155 207.246 158.431 207.246C158.674 207.246 158.874 207.211 159.033 207.142C159.192 207.066 159.31 206.965 159.386 206.841C159.469 206.716 159.51 206.582 159.51 206.436C159.51 206.222 159.459 206.059 159.355 205.949C159.258 205.838 159.113 205.752 158.919 205.689C158.725 205.62 158.49 205.561 158.214 205.513C157.985 205.472 157.761 205.416 157.539 205.347C157.318 205.278 157.121 205.188 156.948 205.077C156.775 204.96 156.637 204.818 156.533 204.652C156.436 204.486 156.388 204.282 156.388 204.04C156.388 203.742 156.464 203.48 156.616 203.251C156.768 203.016 156.986 202.833 157.269 202.702C157.56 202.57 157.895 202.504 158.276 202.504C158.836 202.504 159.289 202.639 159.635 202.909C159.981 203.179 160.185 203.57 160.247 204.081H159.386C159.351 203.819 159.237 203.614 159.044 203.469C158.857 203.317 158.597 203.241 158.265 203.241C157.94 203.241 157.691 203.307 157.518 203.438C157.352 203.57 157.269 203.742 157.269 203.957C157.269 204.095 157.314 204.22 157.404 204.33C157.501 204.434 157.64 204.524 157.819 204.6C158.006 204.676 158.234 204.738 158.504 204.787C158.85 204.849 159.165 204.932 159.448 205.036C159.732 205.14 159.96 205.295 160.133 205.503C160.313 205.703 160.403 205.99 160.403 206.364C160.403 206.689 160.32 206.972 160.154 207.214C159.995 207.457 159.766 207.647 159.469 207.785C159.172 207.916 158.822 207.982 158.421 207.982ZM161.74 207.858V201.82C161.74 201.488 161.796 201.218 161.906 201.01C162.017 200.796 162.18 200.64 162.394 200.544C162.615 200.44 162.885 200.388 163.203 200.388H163.795V201.135H163.338C163.082 201.135 162.895 201.187 162.778 201.291C162.667 201.394 162.612 201.578 162.612 201.84V207.858H161.74ZM160.942 203.365V202.629H163.929V203.365H160.942ZM166.667 207.982C166.266 207.982 165.913 207.903 165.609 207.744C165.311 207.584 165.079 207.339 164.913 207.007C164.754 206.675 164.675 206.26 164.675 205.762V202.629H165.546V205.669C165.546 206.187 165.66 206.578 165.889 206.841C166.117 207.104 166.439 207.235 166.853 207.235C167.144 207.235 167.407 207.166 167.642 207.028C167.877 206.882 168.06 206.678 168.192 206.416C168.33 206.146 168.399 205.817 168.399 205.43V202.629H169.271V207.858H168.482L168.43 206.945C168.271 207.27 168.036 207.526 167.725 207.712C167.414 207.892 167.061 207.982 166.667 207.982ZM170.508 207.858V200.388H171.379V207.858H170.508ZM77.7815 220.858V215.629H78.57L78.6219 216.376C78.7879 216.106 79.0092 215.895 79.2858 215.743C79.5694 215.584 79.8772 215.504 80.2092 215.504C80.4789 215.504 80.721 215.542 80.9354 215.619C81.1567 215.688 81.3504 215.798 81.5164 215.95C81.6824 216.096 81.8172 216.282 81.921 216.511C82.1008 216.193 82.3463 215.947 82.6576 215.774C82.9757 215.594 83.3146 215.504 83.6743 215.504C84.0754 215.504 84.4247 215.587 84.7221 215.753C85.0264 215.912 85.2581 216.158 85.4172 216.49C85.5832 216.815 85.6662 217.23 85.6662 217.735V220.858H84.8051V217.828C84.8051 217.303 84.6979 216.908 84.4835 216.646C84.2691 216.383 83.9682 216.251 83.5809 216.251C83.3112 216.251 83.0691 216.324 82.8547 216.469C82.6403 216.608 82.4708 216.812 82.3463 217.081C82.2218 217.351 82.1596 217.683 82.1596 218.077V220.858H81.2881V217.828C81.2881 217.303 81.1809 216.908 80.9665 216.646C80.7521 216.383 80.4478 216.251 80.0535 216.251C79.7907 216.251 79.5521 216.324 79.3377 216.469C79.1302 216.608 78.9642 216.812 78.8397 217.081C78.7152 217.351 78.653 217.683 78.653 218.077V220.858H77.7815ZM88.5153 220.982C88.0934 220.982 87.7407 220.91 87.4571 220.764C87.1735 220.612 86.9626 220.415 86.8242 220.173C86.6859 219.924 86.6168 219.654 86.6168 219.364C86.6168 219.011 86.7067 218.714 86.8865 218.472C87.0732 218.223 87.3326 218.036 87.6646 217.911C88.0035 217.78 88.4012 217.714 88.8577 217.714H90.2375C90.2375 217.389 90.1856 217.119 90.0819 216.905C89.985 216.684 89.8398 216.518 89.6461 216.407C89.4594 216.296 89.2242 216.241 88.9407 216.241C88.6087 216.241 88.3216 216.324 88.0796 216.49C87.8375 216.656 87.6888 216.901 87.6335 217.227H86.7413C86.7828 216.853 86.9072 216.542 87.1147 216.293C87.3291 216.037 87.5989 215.843 87.924 215.712C88.249 215.574 88.5879 215.504 88.9407 215.504C89.4248 215.504 89.826 215.594 90.1441 215.774C90.4692 215.947 90.7113 216.193 90.8703 216.511C91.0294 216.822 91.1089 217.192 91.1089 217.621V220.858H90.3309L90.279 219.934C90.2098 220.08 90.1199 220.218 90.0092 220.349C89.9055 220.474 89.781 220.584 89.6358 220.681C89.4905 220.771 89.3245 220.844 89.1378 220.899C88.958 220.954 88.7505 220.982 88.5153 220.982ZM88.6502 220.246C88.8922 220.246 89.1101 220.197 89.3038 220.1C89.5043 219.997 89.6738 219.858 89.8121 219.685C89.9505 219.506 90.0542 219.308 90.1234 219.094C90.1994 218.88 90.2375 218.655 90.2375 218.42V218.389H88.9303C88.5914 218.389 88.3182 218.43 88.1107 218.513C87.9032 218.589 87.7545 218.7 87.6646 218.845C87.5747 218.983 87.5297 219.142 87.5297 219.322C87.5297 219.509 87.5712 219.672 87.6542 219.81C87.7441 219.948 87.8721 220.055 88.0381 220.131C88.211 220.208 88.415 220.246 88.6502 220.246ZM92.2496 220.858V215.629H93.038L93.1003 216.625C93.2179 216.39 93.3666 216.189 93.5464 216.023C93.7331 215.857 93.9545 215.729 94.2104 215.639C94.4732 215.549 94.7706 215.504 95.1026 215.504V216.417H94.781C94.5596 216.417 94.3487 216.448 94.1481 216.511C93.9476 216.566 93.7677 216.659 93.6086 216.791C93.4565 216.922 93.3355 217.102 93.2455 217.33C93.1625 217.552 93.121 217.828 93.121 218.16V220.858H92.2496ZM99.098 220.858L96.6081 217.994L98.8801 215.629H99.9487L97.3447 218.306L97.3551 217.683L100.208 220.858H99.098ZM95.8819 220.858V213.388H96.7534V220.858H95.8819ZM102.82 220.982C102.329 220.982 101.893 220.868 101.513 220.64C101.139 220.412 100.846 220.093 100.631 219.685C100.417 219.27 100.309 218.79 100.309 218.243C100.309 217.69 100.413 217.209 100.621 216.801C100.835 216.393 101.133 216.075 101.513 215.847C101.9 215.619 102.343 215.504 102.841 215.504C103.353 215.504 103.785 215.619 104.138 215.847C104.497 216.075 104.771 216.376 104.957 216.749C105.151 217.116 105.248 217.521 105.248 217.963C105.248 218.032 105.248 218.105 105.248 218.181C105.248 218.257 105.244 218.344 105.237 218.44H100.963V217.766H104.397C104.376 217.289 104.217 216.915 103.92 216.646C103.629 216.376 103.263 216.241 102.82 216.241C102.523 216.241 102.246 216.31 101.99 216.448C101.741 216.58 101.541 216.777 101.388 217.04C101.236 217.296 101.16 217.617 101.16 218.005V218.295C101.16 218.724 101.236 219.084 101.388 219.374C101.548 219.665 101.752 219.882 102.001 220.028C102.256 220.173 102.53 220.246 102.82 220.246C103.187 220.246 103.488 220.166 103.723 220.007C103.965 219.841 104.138 219.62 104.241 219.343H105.103C105.02 219.654 104.874 219.934 104.667 220.183C104.459 220.432 104.2 220.629 103.889 220.775C103.584 220.913 103.228 220.982 102.82 220.982ZM108.098 220.858C107.787 220.858 107.517 220.809 107.289 220.712C107.061 220.616 106.884 220.453 106.76 220.225C106.642 219.99 106.584 219.675 106.584 219.281V216.365H105.671V215.629H106.584L106.698 214.363H107.455V215.629H108.97V216.365H107.455V219.281C107.455 219.606 107.521 219.827 107.652 219.945C107.784 220.055 108.015 220.111 108.347 220.111H108.907V220.858H108.098ZM109.982 220.858V215.629H110.854V220.858H109.982ZM110.418 214.519C110.245 214.519 110.1 214.463 109.982 214.353C109.872 214.235 109.816 214.09 109.816 213.917C109.816 213.744 109.872 213.606 109.982 213.502C110.1 213.391 110.245 213.336 110.418 213.336C110.584 213.336 110.726 213.391 110.843 213.502C110.961 213.606 111.02 213.744 111.02 213.917C111.02 214.09 110.961 214.235 110.843 214.353C110.726 214.463 110.584 214.519 110.418 214.519ZM112.184 220.858V215.629H112.973L113.014 216.542C113.18 216.217 113.415 215.964 113.72 215.785C114.031 215.598 114.384 215.504 114.778 215.504C115.186 215.504 115.539 215.587 115.836 215.753C116.133 215.912 116.365 216.158 116.531 216.49C116.697 216.815 116.78 217.23 116.78 217.735V220.858H115.909V217.828C115.909 217.303 115.791 216.908 115.556 216.646C115.328 216.383 115.003 216.251 114.581 216.251C114.29 216.251 114.031 216.324 113.803 216.469C113.574 216.608 113.391 216.812 113.253 217.081C113.121 217.344 113.056 217.673 113.056 218.067V220.858H112.184ZM119.998 223.265C119.528 223.265 119.11 223.202 118.743 223.078C118.383 222.96 118.103 222.777 117.903 222.528C117.702 222.279 117.602 221.971 117.602 221.605C117.602 221.446 117.633 221.276 117.695 221.096C117.764 220.916 117.879 220.74 118.038 220.567C118.204 220.394 118.435 220.239 118.733 220.1L119.334 220.453C118.968 220.605 118.729 220.778 118.619 220.972C118.508 221.172 118.453 221.356 118.453 221.522C118.453 221.75 118.518 221.94 118.65 222.092C118.781 222.244 118.964 222.359 119.2 222.435C119.435 222.511 119.701 222.549 119.998 222.549C120.296 222.549 120.552 222.507 120.766 222.424C120.981 222.341 121.147 222.224 121.264 222.071C121.382 221.919 121.441 221.74 121.441 221.532C121.441 221.29 121.351 221.086 121.171 220.92C120.991 220.761 120.649 220.667 120.144 220.64C119.736 220.612 119.393 220.574 119.117 220.526C118.84 220.477 118.612 220.422 118.432 220.36C118.252 220.291 118.1 220.214 117.975 220.131C117.858 220.048 117.751 219.962 117.654 219.872V219.633L118.66 218.638L119.417 218.907L118.38 219.841L118.515 219.478C118.591 219.533 118.664 219.585 118.733 219.633C118.802 219.682 118.895 219.723 119.013 219.758C119.13 219.793 119.293 219.824 119.5 219.851C119.715 219.879 119.995 219.907 120.341 219.934C120.818 219.969 121.198 220.052 121.482 220.183C121.773 220.315 121.98 220.491 122.105 220.712C122.236 220.934 122.302 221.197 122.302 221.501C122.302 221.798 122.219 222.078 122.053 222.341C121.894 222.611 121.645 222.832 121.306 223.005C120.967 223.178 120.531 223.265 119.998 223.265ZM119.988 219.218C119.552 219.218 119.179 219.135 118.868 218.969C118.563 218.804 118.332 218.582 118.173 218.306C118.013 218.022 117.934 217.707 117.934 217.361C117.934 217.016 118.013 216.704 118.173 216.428C118.339 216.151 118.574 215.93 118.878 215.764C119.182 215.591 119.552 215.504 119.988 215.504C120.424 215.504 120.794 215.591 121.098 215.764C121.402 215.93 121.634 216.151 121.793 216.428C121.952 216.704 122.032 217.016 122.032 217.361C122.032 217.707 121.952 218.022 121.793 218.306C121.634 218.582 121.402 218.804 121.098 218.969C120.794 219.135 120.424 219.218 119.988 219.218ZM119.988 218.503C120.362 218.503 120.656 218.406 120.87 218.212C121.084 218.018 121.192 217.735 121.192 217.361C121.192 216.995 121.084 216.715 120.87 216.521C120.656 216.327 120.362 216.231 119.988 216.231C119.622 216.231 119.324 216.327 119.096 216.521C118.875 216.715 118.764 216.995 118.764 217.361C118.764 217.735 118.875 218.018 119.096 218.212C119.317 218.406 119.615 218.503 119.988 218.503ZM120.839 216.365L120.579 215.629H122.717V216.282L120.839 216.365ZM128.415 220.982C127.924 220.982 127.481 220.868 127.087 220.64C126.699 220.412 126.395 220.093 126.174 219.685C125.953 219.27 125.842 218.793 125.842 218.254C125.842 217.7 125.953 217.22 126.174 216.812C126.395 216.404 126.699 216.085 127.087 215.857C127.481 215.622 127.924 215.504 128.415 215.504C129.037 215.504 129.556 215.667 129.971 215.992C130.386 216.31 130.649 216.739 130.759 217.278H129.867C129.798 216.953 129.629 216.701 129.359 216.521C129.089 216.341 128.771 216.251 128.404 216.251C128.107 216.251 127.83 216.327 127.574 216.48C127.319 216.625 127.114 216.846 126.962 217.144C126.81 217.441 126.734 217.808 126.734 218.243C126.734 218.568 126.779 218.859 126.869 219.115C126.959 219.364 127.08 219.571 127.232 219.737C127.384 219.903 127.561 220.031 127.761 220.121C127.969 220.204 128.183 220.246 128.404 220.246C128.653 220.246 128.878 220.208 129.079 220.131C129.279 220.048 129.449 219.927 129.587 219.768C129.725 219.609 129.819 219.423 129.867 219.208H130.759C130.649 219.734 130.382 220.163 129.961 220.495C129.546 220.82 129.03 220.982 128.415 220.982ZM133.491 220.982C133.069 220.982 132.716 220.91 132.432 220.764C132.149 220.612 131.938 220.415 131.8 220.173C131.661 219.924 131.592 219.654 131.592 219.364C131.592 219.011 131.682 218.714 131.862 218.472C132.049 218.223 132.308 218.036 132.64 217.911C132.979 217.78 133.377 217.714 133.833 217.714H135.213C135.213 217.389 135.161 217.119 135.057 216.905C134.96 216.684 134.815 216.518 134.621 216.407C134.435 216.296 134.2 216.241 133.916 216.241C133.584 216.241 133.297 216.324 133.055 216.49C132.813 216.656 132.664 216.901 132.609 217.227H131.717C131.758 216.853 131.883 216.542 132.09 216.293C132.305 216.037 132.574 215.843 132.899 215.712C133.224 215.574 133.563 215.504 133.916 215.504C134.4 215.504 134.801 215.594 135.119 215.774C135.445 215.947 135.687 216.193 135.846 216.511C136.005 216.822 136.084 217.192 136.084 217.621V220.858H135.306L135.254 219.934C135.185 220.08 135.095 220.218 134.985 220.349C134.881 220.474 134.756 220.584 134.611 220.681C134.466 220.771 134.3 220.844 134.113 220.899C133.933 220.954 133.726 220.982 133.491 220.982ZM133.626 220.246C133.868 220.246 134.085 220.197 134.279 220.1C134.48 219.997 134.649 219.858 134.787 219.685C134.926 219.506 135.03 219.308 135.099 219.094C135.175 218.88 135.213 218.655 135.213 218.42V218.389H133.906C133.567 218.389 133.294 218.43 133.086 218.513C132.879 218.589 132.73 218.7 132.64 218.845C132.55 218.983 132.505 219.142 132.505 219.322C132.505 219.509 132.547 219.672 132.63 219.81C132.719 219.948 132.847 220.055 133.013 220.131C133.186 220.208 133.39 220.246 133.626 220.246ZM137.225 220.858V215.629H138.013L138.065 216.376C138.231 216.106 138.453 215.895 138.729 215.743C139.013 215.584 139.321 215.504 139.653 215.504C139.922 215.504 140.164 215.542 140.379 215.619C140.6 215.688 140.794 215.798 140.96 215.95C141.126 216.096 141.261 216.282 141.364 216.511C141.544 216.193 141.79 215.947 142.101 215.774C142.419 215.594 142.758 215.504 143.118 215.504C143.519 215.504 143.868 215.587 144.166 215.753C144.47 215.912 144.702 216.158 144.861 216.49C145.027 216.815 145.11 217.23 145.11 217.735V220.858H144.249V217.828C144.249 217.303 144.141 216.908 143.927 216.646C143.713 216.383 143.412 216.251 143.024 216.251C142.755 216.251 142.513 216.324 142.298 216.469C142.084 216.608 141.914 216.812 141.79 217.081C141.665 217.351 141.603 217.683 141.603 218.077V220.858H140.732V217.828C140.732 217.303 140.624 216.908 140.41 216.646C140.196 216.383 139.891 216.251 139.497 216.251C139.234 216.251 138.996 216.324 138.781 216.469C138.574 216.608 138.408 216.812 138.283 217.081C138.159 217.351 138.096 217.683 138.096 218.077V220.858H137.225ZM146.257 223.14V215.629H147.046L147.118 216.48C147.229 216.314 147.371 216.158 147.544 216.013C147.717 215.861 147.924 215.74 148.166 215.65C148.408 215.553 148.685 215.504 148.996 215.504C149.508 215.504 149.951 215.625 150.324 215.867C150.705 216.11 150.998 216.438 151.206 216.853C151.42 217.261 151.528 217.728 151.528 218.254C151.528 218.779 151.42 219.25 151.206 219.665C150.998 220.073 150.705 220.394 150.324 220.629C149.944 220.865 149.498 220.982 148.986 220.982C148.564 220.982 148.19 220.896 147.865 220.723C147.547 220.55 147.302 220.308 147.129 219.997V223.14H146.257ZM148.892 220.225C149.231 220.225 149.532 220.142 149.795 219.976C150.058 219.81 150.262 219.582 150.407 219.291C150.559 218.994 150.635 218.644 150.635 218.243C150.635 217.849 150.559 217.503 150.407 217.206C150.262 216.908 150.058 216.677 149.795 216.511C149.532 216.345 149.231 216.262 148.892 216.262C148.547 216.262 148.242 216.345 147.979 216.511C147.717 216.677 147.513 216.908 147.367 217.206C147.222 217.503 147.15 217.849 147.15 218.243C147.15 218.644 147.222 218.994 147.367 219.291C147.513 219.582 147.717 219.81 147.979 219.976C148.242 220.142 148.547 220.225 148.892 220.225ZM154.245 220.982C153.824 220.982 153.471 220.91 153.187 220.764C152.904 220.612 152.693 220.415 152.554 220.173C152.416 219.924 152.347 219.654 152.347 219.364C152.347 219.011 152.437 218.714 152.617 218.472C152.803 218.223 153.063 218.036 153.395 217.911C153.734 217.78 154.131 217.714 154.588 217.714H155.968C155.968 217.389 155.916 217.119 155.812 216.905C155.715 216.684 155.57 216.518 155.376 216.407C155.19 216.296 154.954 216.241 154.671 216.241C154.339 216.241 154.052 216.324 153.81 216.49C153.568 216.656 153.419 216.901 153.364 217.227H152.471C152.513 216.853 152.637 216.542 152.845 216.293C153.059 216.037 153.329 215.843 153.654 215.712C153.979 215.574 154.318 215.504 154.671 215.504C155.155 215.504 155.556 215.594 155.874 215.774C156.199 215.947 156.441 216.193 156.601 216.511C156.76 216.822 156.839 217.192 156.839 217.621V220.858H156.061L156.009 219.934C155.94 220.08 155.85 220.218 155.739 220.349C155.636 220.474 155.511 220.584 155.366 220.681C155.221 220.771 155.055 220.844 154.868 220.899C154.688 220.954 154.481 220.982 154.245 220.982ZM154.38 220.246C154.622 220.246 154.84 220.197 155.034 220.1C155.235 219.997 155.404 219.858 155.542 219.685C155.681 219.506 155.784 219.308 155.854 219.094C155.93 218.88 155.968 218.655 155.968 218.42V218.389H154.66C154.322 218.389 154.048 218.43 153.841 218.513C153.633 218.589 153.485 218.7 153.395 218.845C153.305 218.983 153.26 219.142 153.26 219.322C153.26 219.509 153.301 219.672 153.384 219.81C153.474 219.948 153.602 220.055 153.768 220.131C153.941 220.208 154.145 220.246 154.38 220.246ZM158.063 220.858V215.629H158.934V220.858H158.063ZM158.498 214.519C158.326 214.519 158.18 214.463 158.063 214.353C157.952 214.235 157.897 214.09 157.897 213.917C157.897 213.744 157.952 213.606 158.063 213.502C158.18 213.391 158.326 213.336 158.498 213.336C158.664 213.336 158.806 213.391 158.924 213.502C159.041 213.606 159.1 213.744 159.1 213.917C159.1 214.09 159.041 214.235 158.924 214.353C158.806 214.463 158.664 214.519 158.498 214.519ZM162.329 223.265C161.859 223.265 161.44 223.202 161.074 223.078C160.714 222.96 160.434 222.777 160.233 222.528C160.033 222.279 159.933 221.971 159.933 221.605C159.933 221.446 159.964 221.276 160.026 221.096C160.095 220.916 160.209 220.74 160.368 220.567C160.534 220.394 160.766 220.239 161.063 220.1L161.665 220.453C161.299 220.605 161.06 220.778 160.949 220.972C160.839 221.172 160.783 221.356 160.783 221.522C160.783 221.75 160.849 221.94 160.98 222.092C161.112 222.244 161.295 222.359 161.53 222.435C161.765 222.511 162.032 222.549 162.329 222.549C162.627 222.549 162.882 222.507 163.097 222.424C163.311 222.341 163.477 222.224 163.595 222.071C163.712 221.919 163.771 221.74 163.771 221.532C163.771 221.29 163.681 221.086 163.501 220.92C163.322 220.761 162.979 220.667 162.474 220.64C162.066 220.612 161.724 220.574 161.447 220.526C161.171 220.477 160.942 220.422 160.763 220.36C160.583 220.291 160.431 220.214 160.306 220.131C160.189 220.048 160.081 219.962 159.984 219.872V219.633L160.991 218.638L161.748 218.907L160.711 219.841L160.846 219.478C160.922 219.533 160.994 219.585 161.063 219.633C161.133 219.682 161.226 219.723 161.344 219.758C161.461 219.793 161.624 219.824 161.831 219.851C162.046 219.879 162.326 219.907 162.671 219.934C163.149 219.969 163.529 220.052 163.813 220.183C164.103 220.315 164.311 220.491 164.435 220.712C164.567 220.934 164.632 221.197 164.632 221.501C164.632 221.798 164.549 222.078 164.383 222.341C164.224 222.611 163.975 222.832 163.636 223.005C163.297 223.178 162.862 223.265 162.329 223.265ZM162.319 219.218C161.883 219.218 161.51 219.135 161.198 218.969C160.894 218.804 160.662 218.582 160.503 218.306C160.344 218.022 160.265 217.707 160.265 217.361C160.265 217.016 160.344 216.704 160.503 216.428C160.669 216.151 160.904 215.93 161.209 215.764C161.513 215.591 161.883 215.504 162.319 215.504C162.754 215.504 163.125 215.591 163.429 215.764C163.733 215.93 163.965 216.151 164.124 216.428C164.283 216.704 164.363 217.016 164.363 217.361C164.363 217.707 164.283 218.022 164.124 218.306C163.965 218.582 163.733 218.804 163.429 218.969C163.125 219.135 162.754 219.218 162.319 219.218ZM162.319 218.503C162.692 218.503 162.986 218.406 163.201 218.212C163.415 218.018 163.522 217.735 163.522 217.361C163.522 216.995 163.415 216.715 163.201 216.521C162.986 216.327 162.692 216.231 162.319 216.231C161.952 216.231 161.655 216.327 161.427 216.521C161.205 216.715 161.095 216.995 161.095 217.361C161.095 217.735 161.205 218.018 161.427 218.212C161.648 218.406 161.945 218.503 162.319 218.503ZM163.169 216.365L162.91 215.629H165.047V216.282L163.169 216.365ZM165.842 220.858V215.629H166.631L166.672 216.542C166.838 216.217 167.073 215.964 167.378 215.785C167.689 215.598 168.042 215.504 168.436 215.504C168.844 215.504 169.197 215.587 169.494 215.753C169.791 215.912 170.023 216.158 170.189 216.49C170.355 216.815 170.438 217.23 170.438 217.735V220.858H169.567V217.828C169.567 217.303 169.449 216.908 169.214 216.646C168.986 216.383 168.661 216.251 168.239 216.251C167.948 216.251 167.689 216.324 167.461 216.469C167.232 216.608 167.049 216.812 166.911 217.081C166.779 217.344 166.714 217.673 166.714 218.067V220.858H165.842ZM173.563 220.982C173.127 220.982 172.747 220.91 172.422 220.764C172.104 220.619 171.848 220.418 171.654 220.163C171.467 219.9 171.353 219.592 171.312 219.239H172.204C172.239 219.419 172.311 219.585 172.422 219.737C172.533 219.889 172.681 220.014 172.868 220.111C173.062 220.201 173.297 220.246 173.573 220.246C173.816 220.246 174.016 220.211 174.175 220.142C174.334 220.066 174.452 219.965 174.528 219.841C174.611 219.716 174.652 219.582 174.652 219.436C174.652 219.222 174.601 219.059 174.497 218.949C174.4 218.838 174.255 218.752 174.061 218.689C173.867 218.62 173.632 218.561 173.356 218.513C173.127 218.472 172.903 218.416 172.681 218.347C172.46 218.278 172.263 218.188 172.09 218.077C171.917 217.96 171.779 217.818 171.675 217.652C171.578 217.486 171.53 217.282 171.53 217.04C171.53 216.742 171.606 216.48 171.758 216.251C171.91 216.016 172.128 215.833 172.412 215.702C172.702 215.57 173.037 215.504 173.418 215.504C173.978 215.504 174.431 215.639 174.777 215.909C175.123 216.179 175.327 216.57 175.389 217.081H174.528C174.493 216.819 174.379 216.614 174.186 216.469C173.999 216.317 173.739 216.241 173.407 216.241C173.082 216.241 172.833 216.307 172.66 216.438C172.494 216.57 172.412 216.742 172.412 216.957C172.412 217.095 172.456 217.22 172.546 217.33C172.643 217.434 172.782 217.524 172.961 217.6C173.148 217.676 173.376 217.738 173.646 217.787C173.992 217.849 174.307 217.932 174.59 218.036C174.874 218.14 175.102 218.295 175.275 218.503C175.455 218.703 175.545 218.99 175.545 219.364C175.545 219.689 175.462 219.972 175.296 220.214C175.137 220.457 174.908 220.647 174.611 220.785C174.314 220.916 173.964 220.982 173.563 220.982Z" fill="#1E275E"/>
<g filter="url(#filter3_d_8602_3374)">
<rect x="18" y="249.73" width="188.338" height="51.8728" rx="3.7678" fill="#FCFCFC"/>
</g>
<circle cx="44.7344" cy="275.667" r="13.9658" fill="#1E275E"/>
<path d="M44.7345 269.682V281.652" stroke="#FCFCFC" stroke-width="1.71009"/>
<path d="M50.7197 275.667L38.7491 275.667" stroke="#FCFCFC" stroke-width="1.71009"/>
<path d="M77.8334 273.297V266.035H82.253V266.751H78.7049V269.303H81.7239V270.009H78.7049V273.297H77.8334ZM83.209 273.297V268.069H84.0805V273.297H83.209ZM83.6448 266.959C83.4719 266.959 83.3266 266.903 83.209 266.793C83.0984 266.675 83.043 266.53 83.043 266.357C83.043 266.184 83.0984 266.046 83.209 265.942C83.3266 265.831 83.4719 265.776 83.6448 265.776C83.8108 265.776 83.9525 265.831 84.0701 265.942C84.1877 266.046 84.2465 266.184 84.2465 266.357C84.2465 266.53 84.1877 266.675 84.0701 266.793C83.9525 266.903 83.8108 266.959 83.6448 266.959ZM85.4109 273.297V268.069H86.1993L86.2408 268.982C86.4068 268.656 86.642 268.404 86.9463 268.224C87.2575 268.037 87.6103 267.944 88.0045 267.944C88.4126 267.944 88.7653 268.027 89.0627 268.193C89.3601 268.352 89.5918 268.598 89.7578 268.93C89.9238 269.255 90.0068 269.67 90.0068 270.175V273.297H89.1353V270.268C89.1353 269.742 89.0178 269.348 88.7826 269.085C88.5544 268.822 88.2293 268.691 87.8074 268.691C87.5169 268.691 87.2575 268.764 87.0293 268.909C86.8011 269.047 86.6178 269.251 86.4795 269.521C86.348 269.784 86.2823 270.112 86.2823 270.507V273.297H85.4109ZM92.8621 273.422C92.4402 273.422 92.0874 273.349 91.8039 273.204C91.5203 273.052 91.3094 272.855 91.171 272.613C91.0327 272.364 90.9635 272.094 90.9635 271.803C90.9635 271.451 91.0535 271.153 91.2333 270.911C91.42 270.662 91.6794 270.475 92.0114 270.351C92.3503 270.22 92.748 270.154 93.2044 270.154H94.5843C94.5843 269.829 94.5324 269.559 94.4286 269.345C94.3318 269.123 94.1866 268.957 93.9929 268.847C93.8062 268.736 93.571 268.681 93.2874 268.681C92.9555 268.681 92.6684 268.764 92.4264 268.93C92.1843 269.096 92.0356 269.341 91.9802 269.666H91.088C91.1295 269.293 91.254 268.982 91.4615 268.733C91.6759 268.477 91.9457 268.283 92.2707 268.152C92.5958 268.013 92.9347 267.944 93.2874 267.944C93.7716 267.944 94.1727 268.034 94.4909 268.214C94.816 268.387 95.058 268.632 95.2171 268.95C95.3762 269.262 95.4557 269.632 95.4557 270.06V273.297H94.6776L94.6258 272.374C94.5566 272.519 94.4667 272.658 94.356 272.789C94.2523 272.914 94.1278 273.024 93.9825 273.121C93.8373 273.211 93.6713 273.284 93.4846 273.339C93.3047 273.394 93.0972 273.422 92.8621 273.422ZM92.997 272.685C93.239 272.685 93.4569 272.637 93.6506 272.54C93.8511 272.436 94.0206 272.298 94.1589 272.125C94.2972 271.945 94.401 271.748 94.4701 271.534C94.5462 271.319 94.5843 271.094 94.5843 270.859V270.828H93.2771C92.9382 270.828 92.665 270.87 92.4575 270.953C92.25 271.029 92.1013 271.139 92.0114 271.285C91.9215 271.423 91.8765 271.582 91.8765 271.762C91.8765 271.949 91.918 272.111 92.001 272.25C92.0909 272.388 92.2189 272.495 92.3849 272.571C92.5578 272.647 92.7618 272.685 92.997 272.685ZM96.5964 273.297V265.828H97.4678V273.297H96.5964ZM98.7818 273.297V268.069H99.6533V273.297H98.7818ZM99.2176 266.959C99.0446 266.959 98.8994 266.903 98.7818 266.793C98.6712 266.675 98.6158 266.53 98.6158 266.357C98.6158 266.184 98.6712 266.046 98.7818 265.942C98.8994 265.831 99.0446 265.776 99.2176 265.776C99.3836 265.776 99.5253 265.831 99.6429 265.942C99.7605 266.046 99.8193 266.184 99.8193 266.357C99.8193 266.53 99.7605 266.675 99.6429 266.793C99.5253 266.903 99.3836 266.959 99.2176 266.959ZM100.631 273.297V272.582L103.525 268.795H100.683V268.069H104.521V268.784L101.617 272.571H104.573V273.297H100.631ZM107.821 273.422C107.33 273.422 106.894 273.308 106.513 273.079C106.14 272.851 105.846 272.533 105.632 272.125C105.417 271.71 105.31 271.229 105.31 270.683C105.31 270.13 105.414 269.649 105.621 269.241C105.836 268.833 106.133 268.515 106.513 268.286C106.901 268.058 107.343 267.944 107.841 267.944C108.353 267.944 108.785 268.058 109.138 268.286C109.498 268.515 109.771 268.816 109.958 269.189C110.151 269.556 110.248 269.96 110.248 270.403C110.248 270.472 110.248 270.545 110.248 270.621C110.248 270.697 110.245 270.783 110.238 270.88H105.964V270.206H109.398C109.377 269.729 109.218 269.355 108.92 269.085C108.63 268.816 108.263 268.681 107.821 268.681C107.523 268.681 107.247 268.75 106.991 268.888C106.742 269.02 106.541 269.217 106.389 269.48C106.237 269.735 106.161 270.057 106.161 270.444V270.735C106.161 271.164 106.237 271.523 106.389 271.814C106.548 272.104 106.752 272.322 107.001 272.467C107.257 272.613 107.53 272.685 107.821 272.685C108.187 272.685 108.488 272.606 108.723 272.447C108.965 272.281 109.138 272.059 109.242 271.783H110.103C110.02 272.094 109.875 272.374 109.667 272.623C109.46 272.872 109.2 273.069 108.889 273.214C108.585 273.353 108.229 273.422 107.821 273.422ZM113.52 273.422C113.015 273.422 112.572 273.304 112.192 273.069C111.812 272.827 111.518 272.499 111.31 272.084C111.103 271.669 110.999 271.198 110.999 270.673C110.999 270.147 111.103 269.68 111.31 269.272C111.518 268.857 111.812 268.532 112.192 268.297C112.579 268.062 113.025 267.944 113.53 267.944C113.959 267.944 114.333 268.031 114.651 268.203C114.976 268.376 115.225 268.618 115.398 268.93V265.828H116.269V273.297H115.481L115.408 272.436C115.297 272.609 115.156 272.772 114.983 272.924C114.81 273.069 114.602 273.19 114.36 273.287C114.118 273.377 113.838 273.422 113.52 273.422ZM113.624 272.665C113.97 272.665 114.274 272.582 114.537 272.416C114.799 272.25 115.004 272.021 115.149 271.731C115.294 271.433 115.367 271.084 115.367 270.683C115.367 270.289 115.294 269.943 115.149 269.646C115.004 269.348 114.799 269.116 114.537 268.95C114.274 268.784 113.97 268.701 113.624 268.701C113.285 268.701 112.984 268.784 112.721 268.95C112.458 269.116 112.254 269.348 112.109 269.646C111.964 269.943 111.891 270.289 111.891 270.683C111.891 271.084 111.964 271.433 112.109 271.731C112.254 272.021 112.458 272.25 112.721 272.416C112.984 272.582 113.285 272.665 113.624 272.665ZM122.033 273.422C121.597 273.422 121.217 273.349 120.892 273.204C120.574 273.059 120.318 272.858 120.124 272.602C119.937 272.339 119.823 272.032 119.782 271.679H120.674C120.709 271.859 120.781 272.025 120.892 272.177C121.003 272.329 121.151 272.454 121.338 272.55C121.532 272.64 121.767 272.685 122.043 272.685C122.286 272.685 122.486 272.651 122.645 272.582C122.804 272.505 122.922 272.405 122.998 272.281C123.081 272.156 123.122 272.021 123.122 271.876C123.122 271.662 123.071 271.499 122.967 271.388C122.87 271.278 122.725 271.191 122.531 271.129C122.337 271.06 122.102 271.001 121.826 270.953C121.597 270.911 121.373 270.856 121.151 270.787C120.93 270.718 120.733 270.628 120.56 270.517C120.387 270.399 120.249 270.258 120.145 270.092C120.048 269.926 120 269.722 120 269.48C120 269.182 120.076 268.919 120.228 268.691C120.38 268.456 120.598 268.273 120.882 268.141C121.172 268.01 121.507 267.944 121.888 267.944C122.448 267.944 122.901 268.079 123.247 268.349C123.593 268.618 123.797 269.009 123.859 269.521H122.998C122.963 269.258 122.849 269.054 122.656 268.909C122.469 268.757 122.209 268.681 121.877 268.681C121.552 268.681 121.303 268.746 121.131 268.878C120.965 269.009 120.882 269.182 120.882 269.397C120.882 269.535 120.926 269.659 121.016 269.77C121.113 269.874 121.252 269.964 121.431 270.04C121.618 270.116 121.846 270.178 122.116 270.226C122.462 270.289 122.777 270.372 123.06 270.475C123.344 270.579 123.572 270.735 123.745 270.942C123.925 271.143 124.015 271.43 124.015 271.803C124.015 272.128 123.932 272.412 123.766 272.654C123.607 272.896 123.378 273.086 123.081 273.225C122.784 273.356 122.434 273.422 122.033 273.422ZM126.763 273.422C126.342 273.422 125.989 273.349 125.705 273.204C125.422 273.052 125.211 272.855 125.072 272.613C124.934 272.364 124.865 272.094 124.865 271.803C124.865 271.451 124.955 271.153 125.135 270.911C125.321 270.662 125.581 270.475 125.913 270.351C126.252 270.22 126.649 270.154 127.106 270.154H128.486C128.486 269.829 128.434 269.559 128.33 269.345C128.233 269.123 128.088 268.957 127.894 268.847C127.707 268.736 127.472 268.681 127.189 268.681C126.857 268.681 126.57 268.764 126.328 268.93C126.086 269.096 125.937 269.341 125.882 269.666H124.989C125.031 269.293 125.155 268.982 125.363 268.733C125.577 268.477 125.847 268.283 126.172 268.152C126.497 268.013 126.836 267.944 127.189 267.944C127.673 267.944 128.074 268.034 128.392 268.214C128.717 268.387 128.959 268.632 129.118 268.95C129.278 269.262 129.357 269.632 129.357 270.06V273.297H128.579L128.527 272.374C128.458 272.519 128.368 272.658 128.257 272.789C128.154 272.914 128.029 273.024 127.884 273.121C127.739 273.211 127.573 273.284 127.386 273.339C127.206 273.394 126.999 273.422 126.763 273.422ZM126.898 272.685C127.14 272.685 127.358 272.637 127.552 272.54C127.752 272.436 127.922 272.298 128.06 272.125C128.199 271.945 128.302 271.748 128.371 271.534C128.448 271.319 128.486 271.094 128.486 270.859V270.828H127.178C126.839 270.828 126.566 270.87 126.359 270.953C126.151 271.029 126.003 271.139 125.913 271.285C125.823 271.423 125.778 271.582 125.778 271.762C125.778 271.949 125.819 272.111 125.902 272.25C125.992 272.388 126.12 272.495 126.286 272.571C126.459 272.647 126.663 272.685 126.898 272.685ZM130.498 273.297V265.828H131.369V273.297H130.498ZM134.893 273.422C134.402 273.422 133.966 273.308 133.586 273.079C133.212 272.851 132.918 272.533 132.704 272.125C132.489 271.71 132.382 271.229 132.382 270.683C132.382 270.13 132.486 269.649 132.694 269.241C132.908 268.833 133.205 268.515 133.586 268.286C133.973 268.058 134.416 267.944 134.914 267.944C135.425 267.944 135.858 268.058 136.211 268.286C136.57 268.515 136.843 268.816 137.03 269.189C137.224 269.556 137.321 269.96 137.321 270.403C137.321 270.472 137.321 270.545 137.321 270.621C137.321 270.697 137.317 270.783 137.31 270.88H133.036V270.206H136.47C136.449 269.729 136.29 269.355 135.993 269.085C135.702 268.816 135.336 268.681 134.893 268.681C134.596 268.681 134.319 268.75 134.063 268.888C133.814 269.02 133.613 269.217 133.461 269.48C133.309 269.735 133.233 270.057 133.233 270.444V270.735C133.233 271.164 133.309 271.523 133.461 271.814C133.62 272.104 133.824 272.322 134.073 272.467C134.329 272.613 134.602 272.685 134.893 272.685C135.26 272.685 135.56 272.606 135.796 272.447C136.038 272.281 136.211 272.059 136.314 271.783H137.175C137.092 272.094 136.947 272.374 136.74 272.623C136.532 272.872 136.273 273.069 135.962 273.214C135.657 273.353 135.301 273.422 134.893 273.422ZM140.26 273.422C139.825 273.422 139.444 273.349 139.119 273.204C138.801 273.059 138.545 272.858 138.351 272.602C138.165 272.339 138.051 272.032 138.009 271.679H138.901C138.936 271.859 139.008 272.025 139.119 272.177C139.23 272.329 139.378 272.454 139.565 272.55C139.759 272.64 139.994 272.685 140.271 272.685C140.513 272.685 140.713 272.651 140.872 272.582C141.031 272.505 141.149 272.405 141.225 272.281C141.308 272.156 141.35 272.021 141.35 271.876C141.35 271.662 141.298 271.499 141.194 271.388C141.097 271.278 140.952 271.191 140.758 271.129C140.565 271.06 140.329 271.001 140.053 270.953C139.825 270.911 139.6 270.856 139.378 270.787C139.157 270.718 138.96 270.628 138.787 270.517C138.614 270.399 138.476 270.258 138.372 270.092C138.275 269.926 138.227 269.722 138.227 269.48C138.227 269.182 138.303 268.919 138.455 268.691C138.607 268.456 138.825 268.273 139.109 268.141C139.399 268.01 139.735 267.944 140.115 267.944C140.675 267.944 141.128 268.079 141.474 268.349C141.82 268.618 142.024 269.009 142.086 269.521H141.225C141.191 269.258 141.076 269.054 140.883 268.909C140.696 268.757 140.437 268.681 140.105 268.681C139.78 268.681 139.531 268.746 139.358 268.878C139.192 269.009 139.109 269.182 139.109 269.397C139.109 269.535 139.154 269.659 139.244 269.77C139.34 269.874 139.479 269.964 139.659 270.04C139.845 270.116 140.074 270.178 140.343 270.226C140.689 270.289 141.004 270.372 141.287 270.475C141.571 270.579 141.799 270.735 141.972 270.942C142.152 271.143 142.242 271.43 142.242 271.803C142.242 272.128 142.159 272.412 141.993 272.654C141.834 272.896 141.606 273.086 141.308 273.225C141.011 273.356 140.661 273.422 140.26 273.422ZM146.896 273.297L145.36 268.069H146.232L147.425 272.478H147.269L148.566 268.069H149.552L150.869 272.467L150.703 272.478L151.886 268.069H152.768L151.243 273.297H150.35L148.981 268.691H149.157L147.788 273.297H146.896ZM153.626 273.297V268.069H154.497V273.297H153.626ZM154.061 266.959C153.888 266.959 153.743 266.903 153.626 266.793C153.515 266.675 153.46 266.53 153.46 266.357C153.46 266.184 153.515 266.046 153.626 265.942C153.743 265.831 153.888 265.776 154.061 265.776C154.227 265.776 154.369 265.831 154.487 265.942C154.604 266.046 154.663 266.184 154.663 266.357C154.663 266.53 154.604 266.675 154.487 266.793C154.369 266.903 154.227 266.959 154.061 266.959ZM157.882 273.297C157.57 273.297 157.301 273.249 157.072 273.152C156.844 273.055 156.668 272.893 156.543 272.665C156.426 272.429 156.367 272.115 156.367 271.72V268.805H155.454V268.069H156.367L156.481 266.803H157.238V268.069H158.753V268.805H157.238V271.72C157.238 272.045 157.304 272.267 157.435 272.384C157.567 272.495 157.799 272.55 158.131 272.55H158.691V273.297H157.882ZM159.683 273.297V265.828H160.554V268.95C160.727 268.639 160.969 268.394 161.28 268.214C161.598 268.034 161.944 267.944 162.318 267.944C162.719 267.944 163.068 268.027 163.366 268.193C163.663 268.352 163.891 268.598 164.05 268.93C164.209 269.262 164.289 269.68 164.289 270.185V273.297H163.428V270.278C163.428 269.753 163.317 269.358 163.096 269.096C162.875 268.826 162.553 268.691 162.131 268.691C161.834 268.691 161.564 268.764 161.322 268.909C161.087 269.054 160.9 269.262 160.762 269.531C160.623 269.801 160.554 270.133 160.554 270.527V273.297H159.683ZM77.7815 286.297V278.828H78.653V281.95C78.8259 281.639 79.068 281.394 79.3792 281.214C79.6974 281.034 80.0432 280.944 80.4167 280.944C80.8178 280.944 81.1671 281.027 81.4645 281.193C81.7619 281.352 81.9901 281.598 82.1492 281.93C82.3083 282.262 82.3878 282.68 82.3878 283.185V286.297H81.5267V283.278C81.5267 282.753 81.4161 282.358 81.1947 282.096C80.9734 281.826 80.6518 281.691 80.2299 281.691C79.9325 281.691 79.6628 281.764 79.4207 281.909C79.1855 282.054 78.9988 282.262 78.8605 282.531C78.7221 282.801 78.653 283.133 78.653 283.527V286.297H77.7815ZM83.6244 286.297V281.069H84.4959V286.297H83.6244ZM84.0602 279.959C83.8872 279.959 83.742 279.903 83.6244 279.793C83.5138 279.675 83.4584 279.53 83.4584 279.357C83.4584 279.184 83.5138 279.046 83.6244 278.942C83.742 278.831 83.8872 278.776 84.0602 278.776C84.2261 278.776 84.3679 278.831 84.4855 278.942C84.6031 279.046 84.6619 279.184 84.6619 279.357C84.6619 279.53 84.6031 279.675 84.4855 279.793C84.3679 279.903 84.2261 279.959 84.0602 279.959ZM87.8908 288.704C87.4205 288.704 87.002 288.642 86.6355 288.518C86.2758 288.4 85.9957 288.217 85.7951 287.968C85.5946 287.719 85.4943 287.411 85.4943 287.044C85.4943 286.885 85.5254 286.716 85.5876 286.536C85.6568 286.356 85.7709 286.18 85.93 286.007C86.096 285.834 86.3277 285.678 86.6251 285.54L87.2268 285.893C86.8603 286.045 86.6216 286.218 86.511 286.411C86.4003 286.612 86.345 286.795 86.345 286.961C86.345 287.19 86.4107 287.38 86.5421 287.532C86.6735 287.684 86.8568 287.798 87.092 287.874C87.3271 287.95 87.5934 287.988 87.8908 287.988C88.1882 287.988 88.4441 287.947 88.6585 287.864C88.8729 287.781 89.0389 287.663 89.1565 287.511C89.2741 287.359 89.3329 287.179 89.3329 286.972C89.3329 286.73 89.243 286.526 89.0631 286.36C88.8833 286.201 88.5409 286.107 88.036 286.079C87.628 286.052 87.2856 286.014 87.009 285.965C86.7323 285.917 86.5041 285.862 86.3242 285.799C86.1444 285.73 85.9923 285.654 85.8678 285.571C85.7502 285.488 85.643 285.402 85.5462 285.312V285.073L86.5525 284.077L87.3098 284.347L86.2724 285.281L86.4072 284.918C86.4833 284.973 86.5559 285.025 86.6251 285.073C86.6943 285.122 86.7876 285.163 86.9052 285.198C87.0228 285.232 87.1853 285.263 87.3928 285.291C87.6072 285.319 87.8873 285.346 88.2332 285.374C88.7104 285.409 89.0908 285.492 89.3744 285.623C89.6649 285.754 89.8723 285.931 89.9968 286.152C90.1283 286.373 90.194 286.636 90.194 286.941C90.194 287.238 90.111 287.518 89.945 287.781C89.7859 288.051 89.5369 288.272 89.198 288.445C88.8591 288.618 88.4234 288.704 87.8908 288.704ZM87.8804 284.658C87.4447 284.658 87.0712 284.575 86.76 284.409C86.4557 284.243 86.224 284.022 86.0649 283.745C85.9058 283.462 85.8263 283.147 85.8263 282.801C85.8263 282.455 85.9058 282.144 86.0649 281.867C86.2309 281.591 86.466 281.369 86.7703 281.203C87.0747 281.031 87.4447 280.944 87.8804 280.944C88.3162 280.944 88.6862 281.031 88.9905 281.203C89.2948 281.369 89.5265 281.591 89.6856 281.867C89.8447 282.144 89.9242 282.455 89.9242 282.801C89.9242 283.147 89.8447 283.462 89.6856 283.745C89.5265 284.022 89.2948 284.243 88.9905 284.409C88.6862 284.575 88.3162 284.658 87.8804 284.658ZM87.8804 283.942C88.2539 283.942 88.5479 283.846 88.7623 283.652C88.9767 283.458 89.0839 283.175 89.0839 282.801C89.0839 282.435 88.9767 282.154 88.7623 281.961C88.5479 281.767 88.2539 281.67 87.8804 281.67C87.5139 281.67 87.2165 281.767 86.9882 281.961C86.7669 282.154 86.6562 282.435 86.6562 282.801C86.6562 283.175 86.7669 283.458 86.9882 283.652C87.2095 283.846 87.5069 283.942 87.8804 283.942ZM88.7311 281.805L88.4718 281.069H90.6089V281.722L88.7311 281.805ZM91.4038 286.297V278.828H92.2753V281.95C92.4482 281.639 92.6903 281.394 93.0015 281.214C93.3196 281.034 93.6655 280.944 94.0389 280.944C94.4401 280.944 94.7894 281.027 95.0868 281.193C95.3842 281.352 95.6124 281.598 95.7715 281.93C95.9306 282.262 96.0101 282.68 96.0101 283.185V286.297H95.149V283.278C95.149 282.753 95.0384 282.358 94.817 282.096C94.5957 281.826 94.2741 281.691 93.8522 281.691C93.5548 281.691 93.2851 281.764 93.043 281.909C92.8078 282.054 92.6211 282.262 92.4828 282.531C92.3444 282.801 92.2753 283.133 92.2753 283.527V286.297H91.4038ZM97.1845 283.6V282.863H101.293V283.6H97.1845ZM104.073 286.297L102.092 281.069H103.005L104.582 285.457L106.169 281.069H107.061L105.08 286.297H104.073ZM109.271 286.422C108.849 286.422 108.496 286.349 108.212 286.204C107.929 286.052 107.718 285.855 107.579 285.613C107.441 285.364 107.372 285.094 107.372 284.803C107.372 284.451 107.462 284.153 107.642 283.911C107.828 283.662 108.088 283.475 108.42 283.351C108.759 283.22 109.156 283.154 109.613 283.154H110.993C110.993 282.829 110.941 282.559 110.837 282.345C110.74 282.123 110.595 281.957 110.401 281.847C110.215 281.736 109.979 281.681 109.696 281.681C109.364 281.681 109.077 281.764 108.835 281.93C108.593 282.096 108.444 282.341 108.389 282.666H107.496C107.538 282.293 107.662 281.982 107.87 281.733C108.084 281.477 108.354 281.283 108.679 281.152C109.004 281.013 109.343 280.944 109.696 280.944C110.18 280.944 110.581 281.034 110.899 281.214C111.224 281.387 111.466 281.632 111.626 281.95C111.785 282.262 111.864 282.632 111.864 283.06V286.297H111.086L111.034 285.374C110.965 285.519 110.875 285.658 110.764 285.789C110.661 285.914 110.536 286.024 110.391 286.121C110.246 286.211 110.08 286.284 109.893 286.339C109.713 286.394 109.506 286.422 109.271 286.422ZM109.405 285.685C109.647 285.685 109.865 285.637 110.059 285.54C110.26 285.436 110.429 285.298 110.567 285.125C110.706 284.945 110.809 284.748 110.879 284.534C110.955 284.319 110.993 284.094 110.993 283.859V283.828H109.685C109.347 283.828 109.073 283.87 108.866 283.953C108.658 284.029 108.51 284.139 108.42 284.285C108.33 284.423 108.285 284.582 108.285 284.762C108.285 284.949 108.326 285.111 108.409 285.25C108.499 285.388 108.627 285.495 108.793 285.571C108.966 285.647 109.17 285.685 109.405 285.685ZM113.005 286.297V278.828H113.876V286.297H113.005ZM117.006 286.422C116.605 286.422 116.252 286.342 115.948 286.183C115.65 286.024 115.418 285.779 115.253 285.447C115.093 285.115 115.014 284.7 115.014 284.202V281.069H115.885V284.108C115.885 284.627 115.999 285.018 116.228 285.281C116.456 285.543 116.778 285.675 117.193 285.675C117.483 285.675 117.746 285.606 117.981 285.467C118.216 285.322 118.399 285.118 118.531 284.855C118.669 284.586 118.738 284.257 118.738 283.87V281.069H119.61V286.297H118.821L118.769 285.384C118.61 285.709 118.375 285.965 118.064 286.152C117.753 286.332 117.4 286.422 117.006 286.422ZM123.14 286.422C122.649 286.422 122.213 286.308 121.832 286.079C121.459 285.851 121.165 285.533 120.951 285.125C120.736 284.71 120.629 284.229 120.629 283.683C120.629 283.13 120.733 282.649 120.94 282.241C121.155 281.833 121.452 281.515 121.832 281.286C122.22 281.058 122.662 280.944 123.16 280.944C123.672 280.944 124.105 281.058 124.457 281.286C124.817 281.515 125.09 281.816 125.277 282.189C125.471 282.556 125.567 282.96 125.567 283.403C125.567 283.472 125.567 283.545 125.567 283.621C125.567 283.697 125.564 283.783 125.557 283.88H121.283V283.206H124.717C124.696 282.729 124.537 282.355 124.239 282.085C123.949 281.816 123.582 281.681 123.14 281.681C122.842 281.681 122.566 281.75 122.31 281.888C122.061 282.02 121.86 282.217 121.708 282.48C121.556 282.735 121.48 283.057 121.48 283.444V283.735C121.48 284.164 121.556 284.523 121.708 284.814C121.867 285.104 122.071 285.322 122.32 285.467C122.576 285.613 122.849 285.685 123.14 285.685C123.506 285.685 123.807 285.606 124.042 285.447C124.284 285.281 124.457 285.059 124.561 284.783H125.422C125.339 285.094 125.194 285.374 124.986 285.623C124.779 285.872 124.52 286.069 124.208 286.214C123.904 286.353 123.548 286.422 123.14 286.422ZM131.439 286.422C130.948 286.422 130.505 286.308 130.111 286.079C129.724 285.851 129.42 285.533 129.198 285.125C128.977 284.71 128.866 284.233 128.866 283.693C128.866 283.14 128.977 282.659 129.198 282.251C129.42 281.843 129.724 281.525 130.111 281.297C130.505 281.062 130.948 280.944 131.439 280.944C132.062 280.944 132.58 281.107 132.995 281.432C133.41 281.75 133.673 282.179 133.784 282.718H132.892C132.822 282.393 132.653 282.141 132.383 281.961C132.114 281.781 131.795 281.691 131.429 281.691C131.131 281.691 130.855 281.767 130.599 281.919C130.343 282.065 130.139 282.286 129.987 282.583C129.835 282.881 129.758 283.247 129.758 283.683C129.758 284.008 129.803 284.299 129.893 284.554C129.983 284.803 130.104 285.011 130.256 285.177C130.409 285.343 130.585 285.471 130.786 285.561C130.993 285.644 131.207 285.685 131.429 285.685C131.678 285.685 131.903 285.647 132.103 285.571C132.304 285.488 132.473 285.367 132.612 285.208C132.75 285.049 132.843 284.862 132.892 284.648H133.784C133.673 285.173 133.407 285.602 132.985 285.934C132.57 286.259 132.055 286.422 131.439 286.422ZM136.712 286.422C136.311 286.422 135.958 286.342 135.654 286.183C135.357 286.024 135.125 285.779 134.959 285.447C134.8 285.115 134.72 284.7 134.72 284.202V281.069H135.592V284.108C135.592 284.627 135.706 285.018 135.934 285.281C136.162 285.543 136.484 285.675 136.899 285.675C137.189 285.675 137.452 285.606 137.687 285.467C137.923 285.322 138.106 285.118 138.237 284.855C138.376 284.586 138.445 284.257 138.445 283.87V281.069H139.316V286.297H138.528L138.476 285.384C138.317 285.709 138.082 285.965 137.77 286.152C137.459 286.332 137.106 286.422 136.712 286.422ZM142.524 286.422C142.089 286.422 141.708 286.349 141.383 286.204C141.065 286.059 140.809 285.858 140.616 285.602C140.429 285.339 140.315 285.032 140.273 284.679H141.165C141.2 284.859 141.273 285.025 141.383 285.177C141.494 285.329 141.643 285.454 141.829 285.55C142.023 285.64 142.258 285.685 142.535 285.685C142.777 285.685 142.978 285.651 143.137 285.582C143.296 285.505 143.413 285.405 143.489 285.281C143.572 285.156 143.614 285.021 143.614 284.876C143.614 284.662 143.562 284.499 143.458 284.388C143.361 284.278 143.216 284.191 143.022 284.129C142.829 284.06 142.594 284.001 142.317 283.953C142.089 283.911 141.864 283.856 141.643 283.787C141.421 283.718 141.224 283.628 141.051 283.517C140.878 283.399 140.74 283.258 140.636 283.092C140.539 282.926 140.491 282.722 140.491 282.48C140.491 282.182 140.567 281.919 140.719 281.691C140.871 281.456 141.089 281.273 141.373 281.141C141.663 281.01 141.999 280.944 142.379 280.944C142.939 280.944 143.392 281.079 143.738 281.349C144.084 281.618 144.288 282.009 144.35 282.521H143.489C143.455 282.258 143.341 282.054 143.147 281.909C142.96 281.757 142.701 281.681 142.369 281.681C142.044 281.681 141.795 281.746 141.622 281.878C141.456 282.009 141.373 282.182 141.373 282.397C141.373 282.535 141.418 282.659 141.508 282.77C141.605 282.874 141.743 282.964 141.923 283.04C142.109 283.116 142.338 283.178 142.607 283.226C142.953 283.289 143.268 283.372 143.552 283.475C143.835 283.579 144.063 283.735 144.236 283.942C144.416 284.143 144.506 284.43 144.506 284.803C144.506 285.128 144.423 285.412 144.257 285.654C144.098 285.896 143.87 286.086 143.572 286.225C143.275 286.356 142.926 286.422 142.524 286.422ZM147.375 286.297C147.063 286.297 146.794 286.249 146.565 286.152C146.337 286.055 146.161 285.893 146.036 285.665C145.919 285.429 145.86 285.115 145.86 284.72V281.805H144.947V281.069H145.86L145.974 279.803H146.731V281.069H148.246V281.805H146.731V284.72C146.731 285.045 146.797 285.267 146.928 285.384C147.06 285.495 147.292 285.55 147.624 285.55H148.184V286.297H147.375ZM151.368 286.422C150.884 286.422 150.448 286.311 150.061 286.09C149.673 285.862 149.369 285.543 149.148 285.135C148.927 284.72 148.816 284.24 148.816 283.693C148.816 283.133 148.927 282.649 149.148 282.241C149.376 281.826 149.684 281.508 150.071 281.286C150.465 281.058 150.905 280.944 151.389 280.944C151.887 280.944 152.326 281.058 152.706 281.286C153.094 281.508 153.398 281.826 153.619 282.241C153.848 282.649 153.962 283.13 153.962 283.683C153.962 284.236 153.848 284.72 153.619 285.135C153.391 285.543 153.083 285.862 152.696 286.09C152.309 286.311 151.866 286.422 151.368 286.422ZM151.378 285.675C151.676 285.675 151.952 285.602 152.208 285.457C152.464 285.305 152.672 285.08 152.831 284.783C152.99 284.485 153.069 284.119 153.069 283.683C153.069 283.24 152.99 282.874 152.831 282.583C152.679 282.286 152.475 282.065 152.219 281.919C151.97 281.767 151.693 281.691 151.389 281.691C151.098 281.691 150.822 281.767 150.559 281.919C150.303 282.065 150.095 282.286 149.936 282.583C149.784 282.874 149.708 283.24 149.708 283.683C149.708 284.119 149.784 284.485 149.936 284.783C150.095 285.08 150.299 285.305 150.548 285.457C150.804 285.602 151.081 285.675 151.378 285.675ZM154.976 286.297V281.069H155.764L155.816 281.816C155.982 281.546 156.204 281.335 156.48 281.183C156.764 281.024 157.072 280.944 157.404 280.944C157.673 280.944 157.915 280.982 158.13 281.058C158.351 281.127 158.545 281.238 158.711 281.39C158.877 281.535 159.012 281.722 159.115 281.95C159.295 281.632 159.541 281.387 159.852 281.214C160.17 281.034 160.509 280.944 160.869 280.944C161.27 280.944 161.619 281.027 161.917 281.193C162.221 281.352 162.453 281.598 162.612 281.93C162.778 282.255 162.861 282.67 162.861 283.175V286.297H162V283.268C162 282.742 161.892 282.348 161.678 282.085C161.464 281.822 161.163 281.691 160.775 281.691C160.506 281.691 160.264 281.764 160.049 281.909C159.835 282.047 159.665 282.251 159.541 282.521C159.416 282.791 159.354 283.123 159.354 283.517V286.297H158.483V283.268C158.483 282.742 158.375 282.348 158.161 282.085C157.947 281.822 157.642 281.691 157.248 281.691C156.985 281.691 156.747 281.764 156.532 281.909C156.325 282.047 156.159 282.251 156.034 282.521C155.91 282.791 155.847 283.123 155.847 283.517V286.297H154.976ZM166.301 286.422C165.81 286.422 165.374 286.308 164.994 286.079C164.62 285.851 164.327 285.533 164.112 285.125C163.898 284.71 163.79 284.229 163.79 283.683C163.79 283.13 163.894 282.649 164.102 282.241C164.316 281.833 164.614 281.515 164.994 281.286C165.381 281.058 165.824 280.944 166.322 280.944C166.834 280.944 167.266 281.058 167.619 281.286C167.978 281.515 168.252 281.816 168.438 282.189C168.632 282.556 168.729 282.96 168.729 283.403C168.729 283.472 168.729 283.545 168.729 283.621C168.729 283.697 168.725 283.783 168.718 283.88H164.444V283.206H167.878C167.857 282.729 167.698 282.355 167.401 282.085C167.11 281.816 166.744 281.681 166.301 281.681C166.004 281.681 165.727 281.75 165.471 281.888C165.222 282.02 165.022 282.217 164.869 282.48C164.717 282.735 164.641 283.057 164.641 283.444V283.735C164.641 284.164 164.717 284.523 164.869 284.814C165.029 285.104 165.233 285.322 165.482 285.467C165.737 285.613 166.011 285.685 166.301 285.685C166.668 285.685 166.969 285.606 167.204 285.447C167.446 285.281 167.619 285.059 167.722 284.783H168.584C168.501 285.094 168.355 285.374 168.148 285.623C167.94 285.872 167.681 286.069 167.37 286.214C167.065 286.353 166.709 286.422 166.301 286.422ZM169.697 286.297V281.069H170.486L170.548 282.065C170.666 281.829 170.814 281.629 170.994 281.463C171.181 281.297 171.402 281.169 171.658 281.079C171.921 280.989 172.218 280.944 172.55 280.944V281.857H172.229C172.007 281.857 171.796 281.888 171.596 281.95C171.395 282.006 171.215 282.099 171.056 282.231C170.904 282.362 170.783 282.542 170.693 282.77C170.61 282.991 170.569 283.268 170.569 283.6V286.297H169.697ZM175.301 286.422C174.865 286.422 174.485 286.349 174.16 286.204C173.841 286.059 173.586 285.858 173.392 285.602C173.205 285.339 173.091 285.032 173.05 284.679H173.942C173.976 284.859 174.049 285.025 174.16 285.177C174.27 285.329 174.419 285.454 174.606 285.55C174.799 285.64 175.035 285.685 175.311 285.685C175.553 285.685 175.754 285.651 175.913 285.582C176.072 285.505 176.19 285.405 176.266 285.281C176.349 285.156 176.39 285.021 176.39 284.876C176.39 284.662 176.338 284.499 176.235 284.388C176.138 284.278 175.992 284.191 175.799 284.129C175.605 284.06 175.37 284.001 175.093 283.953C174.865 283.911 174.64 283.856 174.419 283.787C174.198 283.718 174.001 283.628 173.828 283.517C173.655 283.399 173.516 283.258 173.413 283.092C173.316 282.926 173.267 282.722 173.267 282.48C173.267 282.182 173.343 281.919 173.496 281.691C173.648 281.456 173.866 281.273 174.149 281.141C174.44 281.01 174.775 280.944 175.156 280.944C175.716 280.944 176.169 281.079 176.515 281.349C176.86 281.618 177.064 282.009 177.127 282.521H176.266C176.231 282.258 176.117 282.054 175.923 281.909C175.737 281.757 175.477 281.681 175.145 281.681C174.82 281.681 174.571 281.746 174.398 281.878C174.232 282.009 174.149 282.182 174.149 282.397C174.149 282.535 174.194 282.659 174.284 282.77C174.381 282.874 174.519 282.964 174.699 283.04C174.886 283.116 175.114 283.178 175.384 283.226C175.73 283.289 176.044 283.372 176.328 283.475C176.611 283.579 176.84 283.735 177.013 283.942C177.192 284.143 177.282 284.43 177.282 284.803C177.282 285.128 177.199 285.412 177.033 285.654C176.874 285.896 176.646 286.086 176.349 286.225C176.051 286.356 175.702 286.422 175.301 286.422Z" fill="#1E275E"/>
<path d="M185.899 352.947H180.907V358.267H177.965V352.947H173V350.307H177.965V345H180.907V350.307H185.899V352.947Z" fill="#1C2762"/>
<defs>
<filter id="filter0_d_8602_3374" x="14.1456" y="6.98988" width="476.364" height="348.51" filterUnits="userSpaceOnUse" color-interpolation-filters="sRGB">
<feFlood flood-opacity="0" result="BackgroundImageFix"/>
<feColorMatrix in="SourceAlpha" type="matrix" values="0 0 0 0 0 0 0 0 0 0 0 0 0 0 0 0 0 0 127 0" result="hardAlpha"/>
<feOffset/>
<feGaussianBlur stdDeviation="15.5051"/>
<feColorMatrix type="matrix" values="0 0 0 0 0.109804 0 0 0 0 0.152941 0 0 0 0 0.384314 0 0 0 0.1 0"/>
<feBlend mode="normal" in2="BackgroundImageFix" result="effect1_dropShadow_8602_3374"/>
<feBlend mode="normal" in="SourceGraphic" in2="effect1_dropShadow_8602_3374" result="shape"/>
</filter>
<filter id="filter1_d_8602_3374" x="262.84" y="93.6254" width="161.183" height="206.524" filterUnits="userSpaceOnUse" color-interpolation-filters="sRGB">
<feFlood flood-opacity="0" result="BackgroundImageFix"/>
<feColorMatrix in="SourceAlpha" type="matrix" values="0 0 0 0 0 0 0 0 0 0 0 0 0 0 0 0 0 0 127 0" result="hardAlpha"/>
<feOffset dy="0.875992"/>
<feGaussianBlur stdDeviation="1.97098"/>
<feComposite in2="hardAlpha" operator="out"/>
<feColorMatrix type="matrix" values="0 0 0 0 0.117647 0 0 0 0 0.152941 0 0 0 0 0.368627 0 0 0 0.1 0"/>
<feBlend mode="normal" in2="BackgroundImageFix" result="effect1_dropShadow_8602_3374"/>
<feBlend mode="normal" in="SourceGraphic" in2="effect1_dropShadow_8602_3374" result="shape"/>
</filter>
<filter id="filter2_d_8602_3374" x="12.3483" y="180.53" width="199.642" height="63.1762" filterUnits="userSpaceOnUse" color-interpolation-filters="sRGB">
<feFlood flood-opacity="0" result="BackgroundImageFix"/>
<feColorMatrix in="SourceAlpha" type="matrix" values="0 0 0 0 0 0 0 0 0 0 0 0 0 0 0 0 0 0 127 0" result="hardAlpha"/>
<feOffset dy="1.89068"/>
<feGaussianBlur stdDeviation="2.82585"/>
<feComposite in2="hardAlpha" operator="out"/>
<feColorMatrix type="matrix" values="0 0 0 0 0.027451 0 0 0 0 0.196078 0 0 0 0 0.317647 0 0 0 0.2 0"/>
<feBlend mode="normal" in2="BackgroundImageFix" result="effect1_dropShadow_8602_3374"/>
<feBlend mode="normal" in="SourceGraphic" in2="effect1_dropShadow_8602_3374" result="shape"/>
</filter>
<filter id="filter3_d_8602_3374" x="12.3483" y="245.969" width="199.642" height="63.1762" filterUnits="userSpaceOnUse" color-interpolation-filters="sRGB">
<feFlood flood-opacity="0" result="BackgroundImageFix"/>
<feColorMatrix in="SourceAlpha" type="matrix" values="0 0 0 0 0 0 0 0 0 0 0 0 0 0 0 0 0 0 127 0" result="hardAlpha"/>
<feOffset dy="1.89068"/>
<feGaussianBlur stdDeviation="2.82585"/>
<feComposite in2="hardAlpha" operator="out"/>
<feColorMatrix type="matrix" values="0 0 0 0 0.027451 0 0 0 0 0.196078 0 0 0 0 0.317647 0 0 0 0.2 0"/>
<feBlend mode="normal" in2="BackgroundImageFix" result="effect1_dropShadow_8602_3374"/>
<feBlend mode="normal" in="SourceGraphic" in2="effect1_dropShadow_8602_3374" result="shape"/>
</filter>
<clipPath id="clip0_8602_3374">
<rect x="45.1558" y="38" width="414.344" height="286.489" rx="7.89227" fill="white"/>
</clipPath>
<clipPath id="clip1_8602_3374">
<rect x="266.782" y="96.6914" width="153.299" height="198.64" rx="5.39784" fill="white"/>
</clipPath>
<clipPath id="clip2_8602_3374">
<rect width="42.6882" height="38.8572" fill="white" transform="translate(400.05 164.143)"/>
</clipPath>
</defs>
</svg>
